<svg id="Layer_1" data-name="Layer 1" xmlns="http://www.w3.org/2000/svg" viewBox="0 0 400 300" data-imageid="world-wide-web-c" imageName="CPU" class="illustrations_image" style="width: 272px;"><title>_</title><path d="M299.47,94.21c26.64,17.72,42,51.61,38.74,88-2.74,30.64-20.45,64.49-72.88,68.37C211.81,254.5,96.49,228.09,66,173.67c-24.71-44.06,2-115.91,60-123.54C166.54,44.78,247.46,59.6,299.47,94.21Z" fill="#e6e6e6" opacity="0.3"/><path d="M272,210.21a8.72,8.72,0,0,0,8.73,8.72v11.76H119.31V69.31H280.69V201.49A8.73,8.73,0,0,0,272,210.21Z" fill="#000000" class="target-color"/><rect x="154.95" y="55.83" width="12.18" height="39.36" fill="#ffd200"/><rect x="180.93" y="55.83" width="12.18" height="39.36" fill="#ffd200"/><rect x="206.9" y="55.83" width="12.18" height="39.36" fill="#ffd200"/><rect x="232.87" y="55.83" width="12.18" height="39.36" fill="#ffd200"/><rect x="154.95" y="204.81" width="12.18" height="39.36" fill="#ffd200"/><rect x="180.93" y="204.81" width="12.18" height="39.36" fill="#ffd200"/><rect x="206.9" y="204.81" width="12.18" height="39.36" fill="#ffd200"/><rect x="232.87" y="204.81" width="12.18" height="39.36" fill="#ffd200"/><rect x="268.4" y="91.36" width="12.18" height="39.36" transform="translate(385.53 -163.45) rotate(90)" fill="#ffd200"/><rect x="268.4" y="117.33" width="12.18" height="39.36" transform="translate(411.51 -137.48) rotate(90)" fill="#ffd200"/><rect x="268.4" y="143.31" width="12.18" height="39.36" transform="translate(437.48 -111.51) rotate(90)" fill="#ffd200"/><rect x="268.4" y="169.28" width="12.18" height="39.36" transform="translate(463.45 -85.53) rotate(90)" fill="#ffd200"/><rect x="119.42" y="91.36" width="12.18" height="39.36" transform="translate(236.55 -14.47) rotate(90)" fill="#ffd200"/><rect x="119.42" y="117.33" width="12.18" height="39.36" transform="translate(262.52 11.51) rotate(90)" fill="#ffd200"/><rect x="119.42" y="143.31" width="12.18" height="39.36" transform="translate(288.49 37.48) rotate(90)" fill="#ffd200"/><rect x="119.42" y="169.28" width="12.18" height="39.36" transform="translate(314.47 63.45) rotate(90)" fill="#ffd200"/><rect x="142.83" y="92.83" width="114.34" height="114.34" fill="#24285b"/><path d="M167,190.13l3.79,1.21a8.47,8.47,0,0,1-2.9,4.7,8.22,8.22,0,0,1-5.14,1.54,8.32,8.32,0,0,1-6.33-2.63,10.07,10.07,0,0,1-2.49-7.2c0-3.23.84-5.73,2.5-7.51a8.55,8.55,0,0,1,6.56-2.67,8,8,0,0,1,5.77,2.1,7.58,7.58,0,0,1,2,3.56l-3.87.93a4,4,0,0,0-4.08-3.25,4.4,4.4,0,0,0-3.49,1.54q-1.34,1.55-1.34,5,0,3.66,1.32,5.22a4.28,4.28,0,0,0,3.43,1.56,3.92,3.92,0,0,0,2.68-1A5.7,5.7,0,0,0,167,190.13Z" fill="#fff"/><path d="M174.14,197.25V177.9h6.27a23,23,0,0,1,4.65.29,5,5,0,0,1,2.78,1.89,6,6,0,0,1,1.13,3.77,6.34,6.34,0,0,1-.65,3,5.4,5.4,0,0,1-1.64,1.91,5.71,5.71,0,0,1-2,.91,21.73,21.73,0,0,1-4.05.28h-2.55v7.3Zm3.91-16.08v5.49h2.14a10.23,10.23,0,0,0,3.09-.3,2.58,2.58,0,0,0,1.22-1,2.63,2.63,0,0,0,.44-1.51,2.52,2.52,0,0,0-.62-1.74,2.72,2.72,0,0,0-1.57-.86,20.08,20.08,0,0,0-2.81-.13Z" fill="#fff"/><path d="M192.15,177.9h3.9v10.48a21,21,0,0,0,.15,3.23,3.12,3.12,0,0,0,1.19,1.91,4.16,4.16,0,0,0,2.58.72,4,4,0,0,0,2.51-.68,2.68,2.68,0,0,0,1-1.67,22.51,22.51,0,0,0,.17-3.29V177.9h3.91v10.16a26.18,26.18,0,0,1-.32,4.93,5.38,5.38,0,0,1-1.17,2.42,5.88,5.88,0,0,1-2.27,1.58,10,10,0,0,1-3.73.59,10.65,10.65,0,0,1-4.2-.64,6,6,0,0,1-2.26-1.66,5.38,5.38,0,0,1-1.1-2.15,23.18,23.18,0,0,1-.38-4.91Z" fill="#fff"/><rect x="154.27" y="103.91" width="8.43" height="8.43" fill="#fff"/><rect x="166.91" y="103.91" width="50.02" height="8.43" fill="#fff"/></svg>