<svg xmlns="http://www.w3.org/2000/svg" viewBox="0 0 500 500"><g id="freepik--background-simple--inject-20"><path d="M464.79,251.5c-5,42-24.12,90.8-62.41,113.22-57.84,33.89-53,86-165.91,108.67a232.09,232.09,0,0,1-50.06,4.73,194.69,194.69,0,0,1-24.58-2c-71.76-10.49-120-60.37-137.76-120.58-23.32-79.19,23.24-131,54.09-162.27S131.62,64.71,242.44,41.56a224.63,224.63,0,0,1,51.46-4.88c39.43,1,82.43,13.91,112.19,40.93q3.36,3,6.53,6.31C454,126.37,471.56,194.26,464.79,251.5Z" style="fill:#C7D2CB"></path><path d="M464.79,251.5c-5,42-24.12,90.8-62.41,113.22-57.84,33.89-53,86-165.91,108.67a232.09,232.09,0,0,1-50.06,4.73,194.69,194.69,0,0,1-24.58-2c-71.76-10.49-120-60.37-137.76-120.58-23.32-79.19,23.24-131,54.09-162.27S131.62,64.71,242.44,41.56a224.63,224.63,0,0,1,51.46-4.88c39.43,1,82.43,13.91,112.19,40.93q3.36,3,6.53,6.31C454,126.37,471.56,194.26,464.79,251.5Z" style="fill:#fff;opacity:0.7000000000000001"></path></g><g id="freepik--Graphics--inject-20"><g style="opacity:0.30000000000000004"><path d="M394.35,399.76a33.25,33.25,0,1,1,25.27-54.83h0a33.24,33.24,0,0,1-25.27,54.83Zm0-65.48a32.25,32.25,0,1,0,24.51,11.3h0a32.72,32.72,0,0,0-5.89-5.39,32.29,32.29,0,0,0-18.62-5.91Zm0,62.74a30.51,30.51,0,0,1,0-61,30.79,30.79,0,0,1,5.36.47,30.53,30.53,0,0,1,25.15,30A30.54,30.54,0,0,1,394.35,397Zm0-60a29.52,29.52,0,1,0,22.44,10.35,29.52,29.52,0,0,0-17.25-9.89A29.9,29.9,0,0,0,394.35,337Z"></path><path d="M394.35,399.76a33.25,33.25,0,1,1,25.27-54.83h0a33.24,33.24,0,0,1-25.27,54.83Zm0-65.48a32.25,32.25,0,1,0,24.51,11.3h0a32.72,32.72,0,0,0-5.89-5.39,32.29,32.29,0,0,0-18.62-5.91Zm0,62.74a30.51,30.51,0,0,1,0-61,30.79,30.79,0,0,1,5.36.47,30.53,30.53,0,0,1,25.15,30A30.54,30.54,0,0,1,394.35,397Zm0-60a29.52,29.52,0,1,0,22.44,10.35,29.52,29.52,0,0,0-17.25-9.89A29.9,29.9,0,0,0,394.35,337Z"></path><path d="M424.15,341.07a39.46,39.46,0,0,0-7.17-6.55,39,39,0,0,0-15.74-6.59,40.13,40.13,0,0,0-6.89-.6,39.19,39.19,0,1,0,29.8,13.74Zm-29.8,58.19a32.59,32.59,0,0,1-18.8-5.94,33,33,0,0,1-8.14-8.2,32.74,32.74,0,0,1,45.85-45.33,33,33,0,0,1,6,5.47,32.73,32.73,0,0,1-24.89,54Z" style="fill:none;stroke:#000;stroke-linecap:round;stroke-linejoin:round"></path><path d="M358.82,391.54a.51.51,0,0,1-.41-.21,43.68,43.68,0,0,1,35.94-68.49.5.5,0,0,1,.5.5v4a.5.5,0,0,1-.5.5,38.7,38.7,0,0,0-31.84,60.67.44.44,0,0,1,.08.37.46.46,0,0,1-.2.32l-3.28,2.26A.52.52,0,0,1,358.82,391.54Zm35-67.69A42.67,42.67,0,0,0,359,390.34l2.46-1.69a39.7,39.7,0,0,1,32.44-61.82Z"></path><path d="M394.35,397a30.51,30.51,0,0,1,0-61,30.79,30.79,0,0,1,5.36.47,30.53,30.53,0,0,1,25.15,30A30.54,30.54,0,0,1,394.35,397Zm0-60a29.52,29.52,0,1,0,22.44,10.35,29.52,29.52,0,0,0-17.25-9.89A29.9,29.9,0,0,0,394.35,337Z"></path><path d="M367.41,385.62a.49.49,0,0,1-.41-.22,33.23,33.23,0,0,1,27.35-52.12.5.5,0,0,1,.5.5v2.73a.5.5,0,0,1-.5.5,29.51,29.51,0,0,0-24.28,46.27.48.48,0,0,1,.09.37.51.51,0,0,1-.21.32l-2.26,1.56A.47.47,0,0,1,367.41,385.62Zm26.44-51.33a32.23,32.23,0,0,0-26.31,50.13l1.43-1A30.5,30.5,0,0,1,393.85,336Z"></path><path d="M411.68,342.52a.5.5,0,0,1-.29-.09,29,29,0,0,0-11.85-5,.56.56,0,0,1-.33-.21.54.54,0,0,1-.08-.37l.48-2.69a.51.51,0,0,1,.58-.41,32.89,32.89,0,0,1,13.36,5.59.51.51,0,0,1,.12.69l-1.58,2.24a.5.5,0,0,1-.33.2Zm-11.48-5.95a30.24,30.24,0,0,1,11.36,4.76l1-1.42a31.88,31.88,0,0,0-12.05-5Z"></path><path d="M417,335a.52.52,0,0,1-.29-.09,38.22,38.22,0,0,0-15.54-6.51.46.46,0,0,1-.32-.2.52.52,0,0,1-.09-.38l.7-3.91a.5.5,0,0,1,.58-.41,43.24,43.24,0,0,1,17.55,7.34.5.5,0,0,1,.12.7l-2.3,3.25a.48.48,0,0,1-.33.2Zm-15.16-7.49a39.17,39.17,0,0,1,15,6.3l1.72-2.44a42,42,0,0,0-16.24-6.79Z"></path><path d="M394.35,399.76a33.1,33.1,0,0,1-19.09-6,.5.5,0,0,1-.12-.69l1.58-2.25a.46.46,0,0,1,.32-.2.49.49,0,0,1,.37.08,29.5,29.5,0,0,0,39.38-43.31.48.48,0,0,1-.12-.36.47.47,0,0,1,.17-.34l2.08-1.78a.5.5,0,0,1,.7.05,33.24,33.24,0,0,1-25.27,54.83Zm-18.1-6.56A32.24,32.24,0,0,0,419.19,346l-1.32,1.13a30.5,30.5,0,0,1-40.62,44.68Z"></path><path d="M394.35,410.19a43.38,43.38,0,0,1-25.07-7.92.5.5,0,0,1-.13-.69l2.29-3.26a.49.49,0,0,1,.32-.21.56.56,0,0,1,.38.08,38.69,38.69,0,0,0,51.63-56.8.48.48,0,0,1-.12-.36.49.49,0,0,1,.17-.34l3-2.59a.49.49,0,0,1,.7.06,43.66,43.66,0,0,1-33.2,72Zm-24.09-8.45a42.67,42.67,0,0,0,56.86-62.55l-2.27,1.93A39.69,39.69,0,0,1,372,399.3Z"></path></g><g style="opacity:0.30000000000000004"><path d="M382.24,141a55.06,55.06,0,1,1,0-110.12,55,55,0,0,1,41.86,19.3A55.05,55.05,0,0,1,382.24,141Zm0-109.12a54.07,54.07,0,1,0,41.1,18.95h0a54.24,54.24,0,0,0-9.88-9,53.56,53.56,0,0,0-21.72-9.09A54.48,54.48,0,0,0,382.24,31.92Zm0,104.55a50.5,50.5,0,1,1,8.87-100.22,49.83,49.83,0,0,1,20.29,8.49,50.5,50.5,0,0,1-29.16,91.73Zm0-100A49.56,49.56,0,0,0,332.74,86a49.48,49.48,0,1,0,58.2-48.74A50.34,50.34,0,0,0,382.24,36.47Z"></path><path d="M382.24,141a55.06,55.06,0,1,1,0-110.12,55,55,0,0,1,41.86,19.3A55.05,55.05,0,0,1,382.24,141Zm0-109.12a54.07,54.07,0,1,0,41.1,18.95h0a54.24,54.24,0,0,0-9.88-9,53.56,53.56,0,0,0-21.72-9.09A54.48,54.48,0,0,0,382.24,31.92Zm0,104.55a50.5,50.5,0,1,1,8.87-100.22,49.83,49.83,0,0,1,20.29,8.49,50.5,50.5,0,0,1-29.16,91.73Zm0-100A49.56,49.56,0,0,0,332.74,86a49.48,49.48,0,1,0,58.2-48.74A50.34,50.34,0,0,0,382.24,36.47Z"></path><path d="M431.9,43.56A65.84,65.84,0,0,0,420,32.65a65,65,0,0,0-26.24-11,66.57,66.57,0,0,0-11.47-1A65.29,65.29,0,1,0,431.9,43.56Zm-49.66,97a54.32,54.32,0,0,1-31.33-9.89A55,55,0,0,1,337.34,117a54.56,54.56,0,1,1,44.9,23.57Z" style="fill:none;stroke:#000;stroke-linecap:round;stroke-linejoin:round"></path><path d="M323,127.34a.51.51,0,0,1-.41-.21,72.45,72.45,0,0,1,59.62-113.6.5.5,0,0,1,.5.5v6.64a.5.5,0,0,1-.5.5,64.81,64.81,0,0,0-53.33,101.62.54.54,0,0,1,.08.37.51.51,0,0,1-.21.32l-5.46,3.77A.52.52,0,0,1,323,127.34ZM381.74,14.53a71.45,71.45,0,0,0-58.58,111.62l4.64-3.21A65.81,65.81,0,0,1,381.74,20.17Z"></path><path d="M382.24,136.47a50.5,50.5,0,1,1,8.87-100.22,49.83,49.83,0,0,1,20.29,8.49,50.5,50.5,0,0,1-29.16,91.73Zm0-100A49.56,49.56,0,0,0,332.74,86a49.48,49.48,0,1,0,58.2-48.74A50.34,50.34,0,0,0,382.24,36.47Z"></path><path d="M337.34,117.47a.5.5,0,0,1-.41-.22,55.05,55.05,0,0,1,45.31-86.33.5.5,0,0,1,.5.5V36a.5.5,0,0,1-.5.5A49.56,49.56,0,0,0,332.74,86a49.07,49.07,0,0,0,8.77,28.12.56.56,0,0,1,.08.38.54.54,0,0,1-.21.32l-3.75,2.59A.52.52,0,0,1,337.34,117.47Zm44.4-85.55a54.05,54.05,0,0,0-44.27,84.35l2.93-2a50.5,50.5,0,0,1,41.34-78.77Z"></path><path d="M411.11,45.65a.52.52,0,0,1-.29-.09,48.94,48.94,0,0,0-19.88-8.33.46.46,0,0,1-.32-.2.52.52,0,0,1-.09-.38l.8-4.48a.5.5,0,0,1,.58-.4A54.36,54.36,0,0,1,414,41a.5.5,0,0,1,.12.7l-2.63,3.72a.48.48,0,0,1-.32.2Zm-19.5-9.31A49.63,49.63,0,0,1,411,44.46l2.06-2.91a53.48,53.48,0,0,0-20.82-8.71Z"></path><path d="M420,33.15a.52.52,0,0,1-.29-.09,63.8,63.8,0,0,0-26-10.89.56.56,0,0,1-.33-.21.54.54,0,0,1-.08-.37l1.16-6.53a.5.5,0,0,1,.58-.41,71.58,71.58,0,0,1,29.11,12.18.5.5,0,0,1,.12.7l-3.83,5.41a.53.53,0,0,1-.33.21ZM394.29,21.27A64.84,64.84,0,0,1,419.83,32l3.26-4.6a70.74,70.74,0,0,0-27.81-11.64Z"></path><path d="M382.24,141a54.81,54.81,0,0,1-31.62-10,.5.5,0,0,1-.12-.7l2.62-3.74a.53.53,0,0,1,.33-.21.49.49,0,0,1,.37.09,49.5,49.5,0,0,0,66.06-72.67.48.48,0,0,1-.12-.36.49.49,0,0,1,.17-.34l3.47-3a.51.51,0,0,1,.36-.12.5.5,0,0,1,.34.18A55.05,55.05,0,0,1,382.24,141ZM351.6,130.52a54.06,54.06,0,0,0,72.07-79.27L421,53.56a50.5,50.5,0,0,1-67.31,74Z"></path><path d="M382.24,158.42a72,72,0,0,1-41.6-13.14.5.5,0,0,1-.12-.69l3.81-5.43a.49.49,0,0,1,.32-.21.51.51,0,0,1,.38.09,64.81,64.81,0,0,0,86.49-95.15.49.49,0,0,1-.12-.37.51.51,0,0,1,.17-.34l5-4.31a.52.52,0,0,1,.71.06,72.44,72.44,0,0,1-55.08,119.49Zm-40.61-13.67A71.44,71.44,0,0,0,436.88,40l-4.28,3.66a65.81,65.81,0,0,1-87.74,96.52Z"></path></g><g style="opacity:0.30000000000000004"><path d="M209.91,377.84a123.86,123.86,0,1,1,0-247.72,124.66,124.66,0,0,1,21.75,1.9,122.62,122.62,0,0,1,49.76,20.82,124.21,124.21,0,0,1,22.65,20.69h0a123.85,123.85,0,0,1-94.16,204.31Zm0-246.72a122.87,122.87,0,1,0,93.4,43.06h0a123.86,123.86,0,0,0-22.46-20.52A121.57,121.57,0,0,0,231.48,133,123.58,123.58,0,0,0,209.91,131.12Zm0,236.41a113.56,113.56,0,1,1,0-227.11,114.15,114.15,0,0,1,19.94,1.74,113.5,113.5,0,0,1,66.39,38.08,113.53,113.53,0,0,1-86.33,187.29Zm0-226.11a112.6,112.6,0,1,0,85.57,39.47,112.61,112.61,0,0,0-65.8-37.75A114.23,114.23,0,0,0,209.91,141.42Z"></path><path d="M209.91,377.84a123.86,123.86,0,1,1,0-247.72,124.66,124.66,0,0,1,21.75,1.9,122.62,122.62,0,0,1,49.76,20.82,124.21,124.21,0,0,1,22.65,20.69h0a123.85,123.85,0,0,1-94.16,204.31Zm0-246.72a122.87,122.87,0,1,0,93.4,43.06h0a123.86,123.86,0,0,0-22.46-20.52A121.57,121.57,0,0,0,231.48,133,123.58,123.58,0,0,0,209.91,131.12Zm0,236.41a113.56,113.56,0,1,1,0-227.11,114.15,114.15,0,0,1,19.94,1.74,113.5,113.5,0,0,1,66.39,38.08,113.53,113.53,0,0,1-86.33,187.29Zm0-226.11a112.6,112.6,0,1,0,85.57,39.47,112.61,112.61,0,0,0-65.8-37.75A114.23,114.23,0,0,0,209.91,141.42Z"></path><path d="M322.17,158.08a148.45,148.45,0,0,0-27-24.67,146.69,146.69,0,0,0-59.33-24.83,149.74,149.74,0,0,0-25.93-2.27,147.67,147.67,0,1,0,112.26,51.77ZM209.91,377.34a123.37,123.37,0,1,1,71.23-224.09,124.32,124.32,0,0,1,22.55,20.61,123.35,123.35,0,0,1-93.78,203.48Z" style="fill:none;stroke:#000;stroke-linecap:round;stroke-linejoin:round"></path><path d="M76,346.88a.49.49,0,0,1-.41-.21A162.25,162.25,0,0,1,46.73,254c0-90,73.2-163.17,163.18-163.17a.5.5,0,0,1,.5.5v15a.5.5,0,0,1-.5.5c-81.15,0-147.16,66-147.16,147.16a146.16,146.16,0,0,0,26,83.6.45.45,0,0,1,.08.37.49.49,0,0,1-.21.33l-12.35,8.52A.47.47,0,0,1,76,346.88ZM209.41,91.8C120.22,92.07,47.73,164.72,47.73,254a161.27,161.27,0,0,0,28.43,91.72l11.53-8A147.23,147.23,0,0,1,61.75,254c0-81.53,66.19-147.89,147.66-148.16Z"></path><path d="M95.29,68.59H75.84a.5.5,0,0,1-.5-.5.5.5,0,0,1,.5-.5H95.29a.5.5,0,0,1,.5.5A.5.5,0,0,1,95.29,68.59Z"></path><path d="M95.29,79.39H75.84a.5.5,0,0,1-.5-.5.5.5,0,0,1,.5-.5H95.29a.5.5,0,0,1,.5.5A.5.5,0,0,1,95.29,79.39Z"></path><path d="M95.29,90.2H75.84a.5.5,0,0,1,0-1H95.29a.5.5,0,0,1,0,1Z"></path><path d="M95.29,101H75.84a.5.5,0,0,1-.5-.5.5.5,0,0,1,.5-.5H95.29a.5.5,0,0,1,.5.5A.5.5,0,0,1,95.29,101Z"></path><path d="M95.29,111.81H75.84a.5.5,0,0,1-.5-.5.5.5,0,0,1,.5-.5H95.29a.5.5,0,0,1,.5.5A.5.5,0,0,1,95.29,111.81Z"></path><path d="M95.29,122.62H75.84a.5.5,0,0,1-.5-.5.5.5,0,0,1,.5-.5H95.29a.5.5,0,0,1,.5.5A.5.5,0,0,1,95.29,122.62Z"></path><path d="M128.43,68.59H109a.5.5,0,0,1-.5-.5.5.5,0,0,1,.5-.5h19.45a.5.5,0,0,1,.5.5A.5.5,0,0,1,128.43,68.59Z"></path><path d="M128.43,79.39H109a.5.5,0,0,1-.5-.5.5.5,0,0,1,.5-.5h19.45a.5.5,0,0,1,.5.5A.5.5,0,0,1,128.43,79.39Z"></path><path d="M128.43,90.2H109a.5.5,0,0,1,0-1h19.45a.5.5,0,0,1,0,1Z"></path><path d="M464.9,327.24H445.45a.5.5,0,0,1,0-1H464.9a.5.5,0,0,1,0,1Z"></path><path d="M464.9,338.05H445.45a.5.5,0,0,1-.5-.5.5.5,0,0,1,.5-.5H464.9a.5.5,0,0,1,.5.5A.5.5,0,0,1,464.9,338.05Z"></path><path d="M464.9,348.86H445.45a.5.5,0,0,1-.5-.5.5.5,0,0,1,.5-.5H464.9a.5.5,0,0,1,.5.5A.5.5,0,0,1,464.9,348.86Z"></path><path d="M109.7,417.3H51.34a10.95,10.95,0,1,1,0-21.89H109.7a10.95,10.95,0,1,1,0,21.89ZM51.34,396.41a9.95,9.95,0,1,0,0,19.89H109.7a9.95,9.95,0,1,0,0-19.89Z"></path><path d="M81.76,446.84H51.34a10.95,10.95,0,1,1,0-21.89H81.76a10.95,10.95,0,0,1,0,21.89ZM51.34,426a9.95,9.95,0,1,0,0,19.89H81.76a9.95,9.95,0,0,0,0-19.89Z"></path><path d="M209.91,367.53a113.56,113.56,0,1,1,0-227.11,114.15,114.15,0,0,1,19.94,1.74,113.5,113.5,0,0,1,66.39,38.08,113.53,113.53,0,0,1-86.33,187.29Zm0-226.11a112.6,112.6,0,1,0,85.57,39.47,112.61,112.61,0,0,0-65.8-37.75A114.23,114.23,0,0,0,209.91,141.42Z"></path><path d="M108.38,324.56a.5.5,0,0,1-.41-.22A123.85,123.85,0,0,1,209.91,130.12a.51.51,0,0,1,.5.5v10.3a.51.51,0,0,1-.5.5,112.55,112.55,0,0,0-92.63,176.49.45.45,0,0,1,.08.37.46.46,0,0,1-.2.32l-8.49,5.87A.52.52,0,0,1,108.38,324.56Zm101-193.44a122.85,122.85,0,0,0-100.9,192.24l7.67-5.29a113.54,113.54,0,0,1,93.23-177.65Z"></path><path d="M275.18,162.17a.52.52,0,0,1-.29-.09,111.13,111.13,0,0,0-45.21-18.94.5.5,0,0,1-.33-.2.56.56,0,0,1-.08-.38l1.81-10.13a.5.5,0,0,1,.58-.41,122.62,122.62,0,0,1,49.76,20.82.5.5,0,0,1,.12.7l-6,8.42a.48.48,0,0,1-.32.2Zm-44.84-19.92A112.1,112.1,0,0,1,275.06,161l5.38-7.6A121.37,121.37,0,0,0,232,133.1Z"></path><path d="M295.17,133.91a.48.48,0,0,1-.29-.09,145.22,145.22,0,0,0-59.13-24.74.5.5,0,0,1-.4-.58L238,93.73a.49.49,0,0,1,.58-.4,160.92,160.92,0,0,1,65.56,27.43.5.5,0,0,1,.12.7l-8.67,12.24a.46.46,0,0,1-.32.2Zm-58.75-25.73a146.29,146.29,0,0,1,58.63,24.53l8.09-11.42A160,160,0,0,0,238.87,94.4Z"></path><path d="M209.91,377.84a123.12,123.12,0,0,1-71.14-22.45.51.51,0,0,1-.13-.7l5.94-8.45a.47.47,0,0,1,.32-.21.56.56,0,0,1,.38.08,112.53,112.53,0,0,0,150.2-165.22.53.53,0,0,1-.12-.37.57.57,0,0,1,.18-.34l7.83-6.7a.48.48,0,0,1,.36-.12.49.49,0,0,1,.34.17,123.85,123.85,0,0,1-94.16,204.31Zm-70.16-23a122.87,122.87,0,0,0,163.89-180.3l-7.07,6.06a113.54,113.54,0,0,1-151.46,166.6Z"></path><path d="M209.91,417.14a162.2,162.2,0,0,1-93.7-29.58.5.5,0,0,1-.12-.7l8.61-12.28a.52.52,0,0,1,.33-.2.54.54,0,0,1,.37.08,146.28,146.28,0,0,0,84.51,26.67c81.13,0,147.14-66,147.14-147.16a147.21,147.21,0,0,0-35.26-95.57.52.52,0,0,1-.11-.36.47.47,0,0,1,.17-.34l11.4-9.75a.52.52,0,0,1,.71.06,163.14,163.14,0,0,1,39.1,106C373.06,344,299.87,417.14,209.91,417.14ZM117.19,387a161.16,161.16,0,0,0,92.72,29.11c89.41,0,162.15-72.75,162.15-162.17A162.1,162.1,0,0,0,333.52,149l-10.64,9.09A148.26,148.26,0,0,1,358.05,254c0,81.7-66.46,148.16-148.14,148.16a147.32,147.32,0,0,1-84.68-26.56Z"></path></g></g><g id="freepik--Robot--inject-20"><path d="M263.72,455.77s-8.63.39-17.17-12.72S235,423.5,235,423.5s4.27,6.55-1,10.33S223.78,431,223.78,431s1.78,6.93-1.56,9.67S207.13,434,207.13,434s2.32,1.45-.53,5.47-18.81-1.46-18.81-1.46L155,431l123.07,34.73Z" style="fill:#fff"></path><path d="M278.09,466.27a.3.3,0,0,1-.13,0L154.88,431.52a.5.5,0,0,1-.35-.6.51.51,0,0,1,.59-.37l32.77,7c4.4,1.5,16.14,4.71,18.3,1.66a5.27,5.27,0,0,0,1.29-3.69,1.81,1.81,0,0,0-.51-1l-.15-.11a.49.49,0,0,1-.09-.68.48.48,0,0,1,.67-.13l.19.14c3.29,2.6,11.87,8.54,14.31,6.52,3-2.5,1.41-9.09,1.4-9.16a.5.5,0,0,1,.88-.42c.19.26,4.65,6.18,9.47,2.73,3.33-2.39,2.56-6,1.71-8-.58-1.1-.85-1.66-.86-1.68a.5.5,0,0,1,.87-.49,11.27,11.27,0,0,1,.78,1.54c1.36,2.59,4.68,8.6,10.81,18,8.27,12.69,16.67,12.54,16.74,12.5a.63.63,0,0,1,.31.09l14.37,10a.5.5,0,0,1-.29.91Zm-108-31.5,105.29,29.71-11.79-8.2c-1.33,0-9.41-.63-17.44-13-4.3-6.6-7.23-11.54-9.07-14.81a6.38,6.38,0,0,1-2.83,5.73c-4,2.86-7.77.2-9.64-1.6.32,2.33.44,6.37-2.05,8.42-2.86,2.35-10.52-2.76-14-5.34a6.53,6.53,0,0,1-1.5,4.08c-3,4.2-17.72-.71-19.39-1.28Z" style="fill:#263238"></path><path d="M299.27,250.44a2,2,0,0,0-2.49,3.14c.08.06,8.12,6.57,7.15,14.34a8.34,8.34,0,0,1-3.11,5.17c.26-13.38-8.9-14.42-9-14.43a2,2,0,0,0-.4,4c.24,0,6,.89,5.36,11.43,0,.62-.11,1.2-.2,1.76a30.71,30.71,0,0,1-4,1.62c-.74-6-4.4-10.62-8.78-10.6-4.9,0-8.84,5.77-8.8,12.82,0,4.46,1.64,8.38,4.06,10.65l-4,.34.12.53a7.81,7.81,0,0,0-7.3.13c-2.49,1.55-3.61,4.68-3.31,8.23l-20.47,8.52,1.08,2.81,20-8.33a18.11,18.11,0,0,0,.81,2.18l-19.95,8.32,1.08,2.81,20.36-8.48A16.84,16.84,0,0,0,269,309.3L248,318l1.07,2.81,21.16-8.79-.93-2.4c3.72,4,8.68,5.51,12.11,3.37,3.14-1.94,4.11-6.38,2.81-11L299,299.35l-.67-4.5-4.5.67-.72-2.62,4-1-.42-3.12-7.12.62a12.34,12.34,0,0,0,1.43-2.21,11.65,11.65,0,0,0,5.13-2.39,12.15,12.15,0,0,0,3.94-6.32c3.72-2.15,7.23-5.38,7.82-10.08C309.15,258.4,299.67,250.76,299.27,250.44Zm-5.63,31.26a7.21,7.21,0,0,1-1.13.76c0-.27.08-.55.11-.84.49-.14,1.05-.31,1.65-.52A7.11,7.11,0,0,1,293.64,281.7Z" style="fill:#263238"></path><path d="M249,321.34a.65.65,0,0,1-.19,0,.53.53,0,0,1-.27-.28l-1.08-2.81a.49.49,0,0,1,.27-.64l20.37-8.46q-.43-.54-.84-1.11l-20,8.32a.53.53,0,0,1-.39,0,.57.57,0,0,1-.27-.28l-1.07-2.81a.49.49,0,0,1,.27-.64l19.48-8.13c-.17-.41-.32-.82-.46-1.24l-19.47,8.12a.53.53,0,0,1-.39,0,.57.57,0,0,1-.27-.28l-1.08-2.81a.51.51,0,0,1,.28-.64l20.14-8.39c-.22-3.7,1.1-6.79,3.57-8.33a8,8,0,0,1,7-.45l0-.08a.53.53,0,0,1,.36-.2l2.92-.25a15.87,15.87,0,0,1-3.47-10.24,16.44,16.44,0,0,1,2.64-9.33c1.75-2.55,4.12-4,6.65-4h0c4.43,0,8.22,4.34,9.16,10.42a29.28,29.28,0,0,0,3.13-1.29c.07-.52.12-1,.15-1.45.6-10.1-4.7-10.87-4.93-10.9a2.52,2.52,0,0,1-2.18-2.76,2.47,2.47,0,0,1,2.7-2.21c.09,0,9.17,1,9.45,13.76a7.21,7.21,0,0,0,2.12-4.07c.93-7.48-6.89-13.83-7-13.89a2.5,2.5,0,0,1,3.11-3.92h0c.41.33,10.11,8.12,8.82,18.43-.51,4.09-3.17,7.58-7.89,10.35a12.66,12.66,0,0,1-4.05,6.38,12.19,12.19,0,0,1-5.12,2.44,12.06,12.06,0,0,1-.7,1.17l6-.52a.51.51,0,0,1,.54.44l.42,3.12a.5.5,0,0,1-.38.55l-3.5.85.47,1.7,4.06-.6a.49.49,0,0,1,.57.42l.67,4.5a.5.5,0,0,1-.41.56l-14.29,2.57c1.19,4.8,0,9.1-3.16,11s-7.44,1.09-11.13-1.94l.14.36a.51.51,0,0,1-.27.65l-21.15,8.78A.48.48,0,0,1,249,321.34Zm-.43-3,.72,1.88,20.23-8.4-.73-1.88Zm-1.92-5,.72,1.88,19.88-8.28a.51.51,0,0,1,.61.18,16,16,0,0,0,1.44,1.87.53.53,0,0,1,.11.21.59.59,0,0,1,.19.13c3.62,3.88,8.35,5.23,11.48,3.29,2.86-1.77,3.88-5.88,2.58-10.45a.55.55,0,0,1,.06-.4.5.5,0,0,1,.34-.23l14.35-2.58-.53-3.52-4,.59a.49.49,0,0,1-.56-.36l-.72-2.62a.49.49,0,0,1,.05-.39.52.52,0,0,1,.31-.23l3.57-.87-.3-2.2-6.64.57a.49.49,0,0,1-.43-.81,11.72,11.72,0,0,0,1.36-2.12.52.52,0,0,1,.35-.26,11.19,11.19,0,0,0,4.92-2.29,11.72,11.72,0,0,0,3.77-6.06.5.5,0,0,1,.23-.3c4.55-2.63,7.1-5.9,7.58-9.71,1.21-9.76-8.06-17.21-8.45-17.53h0a1.5,1.5,0,0,0-1.86,2.36c.08.06,8.35,6.7,7.34,14.8a8.83,8.83,0,0,1-3.28,5.48.51.51,0,0,1-.54.08.5.5,0,0,1-.29-.47c.25-12.83-8.46-13.91-8.55-13.92a1.48,1.48,0,0,0-1.61,1.33,1.52,1.52,0,0,0,1.32,1.66c.26,0,6.45.92,5.8,12a16.27,16.27,0,0,1-.21,1.81.47.47,0,0,1-.27.37,32.17,32.17,0,0,1-4.06,1.65.49.49,0,0,1-.42-.06.49.49,0,0,1-.23-.36c-.72-5.89-4.18-10.15-8.25-10.15h0c-2.2,0-4.27,1.27-5.84,3.55a15.46,15.46,0,0,0-2.46,8.76c0,4.17,1.48,8,3.9,10.29a.5.5,0,0,1-.3.86l-3.4.29a.49.49,0,0,1-.18.47.47.47,0,0,1-.51.07,7.28,7.28,0,0,0-6.83.09c-2.23,1.38-3.38,4.28-3.08,7.76a.5.5,0,0,1-.3.51l-20,8.33.72,1.88,19.5-8.13a.47.47,0,0,1,.4,0,.49.49,0,0,1,.27.31,16.26,16.26,0,0,0,.79,2.11.53.53,0,0,1,0,.39.48.48,0,0,1-.28.28ZM292.51,283a.52.52,0,0,1-.29-.09.51.51,0,0,1-.2-.49c0-.26.07-.54.1-.81a.5.5,0,0,1,.36-.43c.48-.14,1-.31,1.63-.51a.49.49,0,0,1,.58.2.5.5,0,0,1-.05.61,8.31,8.31,0,0,1-.68.65h0a7.51,7.51,0,0,1-1.21.81A.5.5,0,0,1,292.51,283Z" style="fill:#263238"></path><path d="M232.51,303.83l-2-5.45L227,300.2c.84-3.21.13-7.38-2.23-11.18-3.71-6-10.1-8.76-14.26-6.18-3,1.88-4,6.07-2.92,10.52a21.73,21.73,0,0,1-7.21-2.48,13,13,0,0,1,.72-5.5c2.23-6.24,2.82-10.29,1.8-12.38a2.68,2.68,0,0,0-1.55-1.46,2,2,0,0,0-2.53,1.26,2,2,0,0,0,.52,2.08c.11.54.29,2.74-2,9.15a17.21,17.21,0,0,0-.92,4,11.72,11.72,0,0,1-3.87-6.67,36.64,36.64,0,0,1,1.4-16.65,2,2,0,0,0-3.74-1.43A40,40,0,0,0,188.56,282c.66,4.33,3.55,8.36,8.13,11.35a15.14,15.14,0,0,0,15.13,11.85,20.13,20.13,0,0,0,4.72-.59,10,10,0,0,0,1,.4l-6.36,3.26,1.3,2.87,3.91-1.3.78,2.6L213,314.28l1.83,4.17,10-4a17.44,17.44,0,0,0,2.31,5.83c3.72,6,10.1,8.76,14.26,6.18s4.52-9.53.8-15.52C239.72,306.83,236,304.26,232.51,303.83Zm-29.12-6.09a11.53,11.53,0,0,1-1.33-1.71,22,22,0,0,0,7.11,1.45c.16.3.32.59.5.88a17.92,17.92,0,0,0,2.18,2.84A11.35,11.35,0,0,1,203.39,297.74Z" style="fill:#263238"></path><path d="M238,327.89c-3.89,0-8.33-2.76-11.19-7.38a18,18,0,0,1-2.26-5.41L215,318.91a.49.49,0,0,1-.64-.26l-1.82-4.17a.46.46,0,0,1,0-.38.48.48,0,0,1,.26-.28l3.77-1.65-.51-1.68-3.42,1.14a.5.5,0,0,1-.61-.27l-1.31-2.87a.5.5,0,0,1,.23-.65l5.05-2.59c-6.39,1.35-12-.29-15.9-4.41a15.77,15.77,0,0,1-3.88-7.17c-4.6-3.06-7.51-7.17-8.19-11.59a40.71,40.71,0,0,1,1.64-18.93,2.5,2.5,0,0,1,4.68,1.77,36.1,36.1,0,0,0-1.38,16.4,10.79,10.79,0,0,0,3,5.69,17.63,17.63,0,0,1,.8-3.14c2.11-5.9,2.09-8.14,2-8.75a2.5,2.5,0,0,1,.73-3.92,2.49,2.49,0,0,1,1.91-.14,3.2,3.2,0,0,1,1.84,1.72c1.1,2.25.53,6.31-1.78,12.77a12.54,12.54,0,0,0-.71,5,21.81,21.81,0,0,0,6.08,2.18c-.9-4.51.37-8.51,3.31-10.34,2.16-1.33,4.91-1.39,7.76-.15a16.39,16.39,0,0,1,7.19,6.5,15.91,15.91,0,0,1,2.5,10.52l2.61-1.34a.45.45,0,0,1,.41,0,.47.47,0,0,1,.28.29l1.91,5.17c3.63.57,7.36,3.33,9.8,7.26A16.52,16.52,0,0,1,245.3,320c-.17,3.11-1.44,5.55-3.59,6.88A7.08,7.08,0,0,1,238,327.89Zm-13.08-14a.53.53,0,0,1,.24.06.51.51,0,0,1,.25.34,16.78,16.78,0,0,0,2.25,5.66c3.56,5.75,9.65,8.45,13.57,6,1.87-1.15,3-3.31,3.12-6.08a15.51,15.51,0,0,0-2.48-8.75c-2.36-3.8-5.95-6.42-9.37-6.84A.5.5,0,0,1,232,304l-1.82-4.92-3,1.56a.5.5,0,0,1-.72-.57c.85-3.21,0-7.24-2.16-10.78a15.47,15.47,0,0,0-6.74-6.12c-2.54-1.1-5-1.07-6.83.09-2.73,1.69-3.79,5.61-2.71,10a.49.49,0,0,1-.11.45.47.47,0,0,1-.44.16,22.11,22.11,0,0,1-7.38-2.53.5.5,0,0,1-.25-.39,13.19,13.19,0,0,1,.74-5.72c2.15-6,2.77-10.06,1.82-12a2.24,2.24,0,0,0-1.25-1.21,1.48,1.48,0,0,0-1.15.08,1.47,1.47,0,0,0-.75.87,1.51,1.51,0,0,0,.39,1.56.51.51,0,0,1,.14.26c.15.71.25,3.06-2,9.42a16.89,16.89,0,0,0-.89,3.92.5.5,0,0,1-.32.42.5.5,0,0,1-.52-.1,12.17,12.17,0,0,1-4-7,37.07,37.07,0,0,1,1.42-16.9,1.5,1.5,0,1,0-2.8-1.07,39.55,39.55,0,0,0-1.59,18.43c.65,4.19,3.46,8.1,7.92,11a.49.49,0,0,1,.21.31,15,15,0,0,0,3.67,6.91c3.79,4,9.28,5.48,15.57,4a.58.58,0,0,1,.32,0c.33.15.66.28,1,.39a.49.49,0,0,1,.35.43.52.52,0,0,1-.27.48l-5.94,3.05.92,2,3.48-1.17a.48.48,0,0,1,.39,0,.5.5,0,0,1,.25.3l.78,2.6a.48.48,0,0,1-.28.6l-3.71,1.63,1.43,3.26,9.56-3.85A.58.58,0,0,1,224.87,313.92Zm-13-12.22h0a11.82,11.82,0,0,1-8.82-3.61h0a11.47,11.47,0,0,1-1.39-1.8.5.5,0,0,1,.6-.73,21.52,21.52,0,0,0,6.94,1.42.49.49,0,0,1,.43.26c.15.29.31.57.49.86a17.61,17.61,0,0,0,2.12,2.76.5.5,0,0,1-.37.84Zm-8.1-4.3a10.63,10.63,0,0,0,6.95,3.25,17.87,17.87,0,0,1-1.45-2c-.14-.21-.26-.43-.38-.65a21,21,0,0,1-5.47-1c.11.14.23.27.35.4Z" style="fill:#263238"></path><path d="M337.16,372.38c-15.86-37.9-46-61.39-67.26-52.48l-25.29,9.67,9.28,9.18c-5.86,16.68-4.11,41.29,6.19,65.9,10.47,25,27.15,43.74,43.41,51l-9.91,3.51,8.47,7.6,25.29-9.67C348.63,448.21,353,410.27,337.16,372.38Z" style="fill:#999"></path><path d="M302.05,467.29a.46.46,0,0,1-.33-.13l-8.47-7.6a.48.48,0,0,1-.16-.47.52.52,0,0,1,.32-.38l8.75-3.09c-16.69-8-32.53-26.86-42.54-50.78s-12.33-48.46-6.31-66l-9.05-9a.5.5,0,0,1-.14-.45.51.51,0,0,1,.31-.37l25.29-9.67c10.45-4.37,23.3-1.27,36.15,8.76s24.05,25.59,31.76,44c15.94,38.09,11.41,76.4-10.09,85.4l-25.31,9.68Zm-7.51-7.91,7.62,6.83,25-9.55c21-8.79,25.26-46.51,9.53-84.09-7.64-18.25-18.8-33.73-31.44-43.59s-25-12.86-35.17-8.62l-24.58,9.4,8.73,8.63a.5.5,0,0,1,.12.52c-6.07,17.29-3.76,41.8,6.18,65.54s26.52,43.32,43.15,50.77a.5.5,0,0,1,0,.93Z" style="fill:#263238"></path><path d="M332,375.71c-15.86-37.89-46-61.39-67.26-52.47l-19.11,7.3,8.29,8.21c-5.86,16.68-4.11,41.29,6.19,65.9,10.47,25,27.15,43.74,43.41,51l-7,2.47c.61.3,1.21.59,1.81.86l-3.52,1.25,7.27,6.53,25.29-9.67c.35-.14.68-.32,1-.48C344.14,443.45,346.15,409.57,332,375.71Z" style="fill:#999"></path><path d="M302.05,467.29a.46.46,0,0,1-.33-.13l-7.28-6.53a.49.49,0,0,1-.15-.47.48.48,0,0,1,.32-.37L297,459l-.71-.35a.51.51,0,0,1-.28-.48.52.52,0,0,1,.34-.44l5.83-2.06c-16.69-8-32.53-26.86-42.54-50.78s-12.33-48.46-6.31-66l-8.07-8a.49.49,0,0,1-.13-.46.47.47,0,0,1,.31-.36l19.11-7.31c10.46-4.38,23.3-1.27,36.15,8.76s24.05,25.58,31.76,44c14.07,33.63,12.5,67.91-3.75,81.5l-.11.07-.32.15c-.24.12-.48.24-.72.34l-25.31,9.68Zm-6.31-6.84,6.42,5.76,25-9.55c.21-.09.43-.2.65-.31l.27-.13c15.88-13.35,17.32-47.11,3.42-80.31h0c-7.64-18.25-18.8-33.73-31.44-43.59s-25-12.86-35.17-8.62l-18.4,7,7.74,7.66a.5.5,0,0,1,.12.52c-6.07,17.29-3.76,41.8,6.18,65.54s26.52,43.32,43.15,50.77a.5.5,0,0,1,0,.93l-5.86,2.08.71.33a.49.49,0,0,1,0,.92Zm32.63-3.81h0Z" style="fill:#263238"></path><path d="M324.56,378.31c-15.86-37.9-46-61.39-67.26-52.48l-11.88,4.54,8.47,8.38c-5.86,16.68-4.11,41.29,6.19,65.9,10.47,25,27.15,43.74,43.41,51l-9.91,3.51,8.47,7.6,18.18-7C336.67,447.1,339,412.68,324.56,378.31Z" style="fill:#999"></path><path d="M302.05,467.29a.46.46,0,0,1-.33-.13l-8.47-7.6a.48.48,0,0,1-.16-.47.52.52,0,0,1,.32-.38l8.75-3.09c-16.69-8-32.53-26.86-42.54-50.78s-12.33-48.46-6.31-66l-8.24-8.15a.53.53,0,0,1-.14-.46.51.51,0,0,1,.31-.37l11.88-4.54c10.46-4.37,23.3-1.27,36.15,8.76s24.05,25.59,31.75,44h0c14.41,34.41,12.52,68.95-4.49,82.13l-.13.07-18.17,6.95Zm-7.51-7.91,7.62,6.83L320,459.4c16.33-12.73,18.11-47.49,4.12-80.9h0c-7.64-18.25-18.81-33.73-31.44-43.59s-25.05-12.86-35.17-8.62l-11.17,4.27,7.92,7.83a.5.5,0,0,1,.12.52c-6.07,17.29-3.76,41.8,6.18,65.54s26.52,43.32,43.15,50.77a.5.5,0,0,1,0,.93Zm25.69.46h0Z" style="fill:#263238"></path><path d="M317.89,381.27c-15.86-37.89-46-61.39-67.26-52.47l-4.91,1.87,8.17,8.08c-5.86,16.68-4.11,41.29,6.19,65.9,10.47,25,27.15,43.74,43.41,51l-9.91,3.51,8.47,7.6,12.41-4.74C330.06,448.75,332,415,317.89,381.27Z" style="fill:#999"></path><path d="M302.05,467.29a.46.46,0,0,1-.33-.13l-8.47-7.6a.48.48,0,0,1-.16-.47.52.52,0,0,1,.32-.38l8.75-3.09c-16.69-8-32.53-26.86-42.54-50.78s-12.33-48.46-6.31-66L245.37,331a.5.5,0,0,1,.18-.83l4.9-1.87c21.49-9,52,14.66,67.9,52.75,14,33.45,12.5,67.66-3.57,81.35a.38.38,0,0,1-.15.09l-12.4,4.74Zm-7.51-7.91,7.62,6.83,12-4.6c15.68-13.45,17.05-47.13,3.23-80.15-15.73-37.57-45.61-61-66.61-52.2l-4.19,1.6,7.61,7.53a.5.5,0,0,1,.12.52c-6.07,17.29-3.76,41.8,6.18,65.54s26.52,43.32,43.15,50.77a.5.5,0,0,1,0,.93Zm19.92,2.67h0Z" style="fill:#263238"></path><ellipse cx="273.33" cy="398.18" rx="41.78" ry="74.38" transform="translate(-132.56 136.43) rotate(-22.71)" style="fill:#263238"></ellipse><path d="M292.39,469.19c-8.21,0-17.26-3.63-26.31-10.69-12.77-10-24-25.59-31.75-44s-10.92-37.4-9.06-53.49,8.68-27.53,19.15-31.91,23.31-1.28,36.16,8.75,24.05,25.59,31.76,44c15.94,38.09,11.41,76.4-10.09,85.4A25.31,25.31,0,0,1,292.39,469.19Zm-38.12-141A24.45,24.45,0,0,0,244.8,330c-10.12,4.24-16.7,15.28-18.53,31.1s1.34,34.74,9,53,18.81,33.73,31.45,43.59,25,12.86,35.16,8.62c21-8.79,25.28-46.51,9.55-84.09-7.64-18.25-18.8-33.73-31.44-43.59C271.1,331.73,262.26,328.17,254.27,328.17Z" style="fill:#263238"></path><path d="M330.81,430.13h-.06a1,1,0,0,1-.94-1.06c.68-11.49-1.11-24.4-5.18-37.34a1,1,0,0,1,.66-1.25,1,1,0,0,1,1.25.65c4.14,13.17,6,26.33,5.27,38.06A1,1,0,0,1,330.81,430.13Z" style="fill:#fff"></path><path d="M337.56,427.4h-.06a1,1,0,0,1-.94-1.06c.69-11.49-1.1-24.4-5.17-37.34a1,1,0,0,1,1.9-.6c4.15,13.16,6,26.33,5.27,38.06A1,1,0,0,1,337.56,427.4Z" style="fill:#fff"></path><path d="M344.31,424.67h-.06a1,1,0,0,1-.93-1.06c.68-11.5-1.11-24.41-5.18-37.34a1,1,0,0,1,.65-1.26,1,1,0,0,1,1.26.66c4.14,13.16,6,26.32,5.26,38.06A1,1,0,0,1,344.31,424.67Z" style="fill:#fff"></path><path d="M324.22,431.74h-.06a1,1,0,0,1-.94-1.06c.68-11.49-1.11-24.41-5.18-37.34a1,1,0,1,1,1.91-.6c4.14,13.16,6,26.32,5.27,38.06A1,1,0,0,1,324.22,431.74Z" style="fill:#fff"></path><ellipse cx="273.33" cy="398.18" rx="19.99" ry="35.58" transform="translate(-132.55 136.43) rotate(-22.71)" style="fill:#fff"></ellipse><path d="M282.52,432.39c-9.78,0-21.51-10.6-28.09-26.3-7.68-18.35-5.45-36.83,5-41.19,5.1-2.13,11.34-.64,17.56,4.22s11.57,12.3,15.27,21.15c7.68,18.35,5.46,36.83-5,41.19A12.14,12.14,0,0,1,282.52,432.39ZM264.21,365a11.35,11.35,0,0,0-4.42.87c-9.92,4.15-11.9,22-4.43,39.89s21.61,29,31.52,24.83,11.9-22,4.43-39.88h0c-3.64-8.69-8.95-16.06-15-20.75C272.15,366.64,268,365,264.21,365Z" style="fill:#263238"></path><ellipse cx="276.39" cy="398.18" rx="14.9" ry="26.53" transform="translate(-132.32 137.61) rotate(-22.71)" style="fill:#263238"></ellipse><path d="M283.24,423.81c-7.34,0-16.14-7.93-21.06-19.68-2.77-6.62-3.92-13.45-3.25-19.24s3.18-10,7-11.64c7.83-3.28,18.89,5.24,24.65,19s4.06,27.6-3.78,30.88A9.07,9.07,0,0,1,283.24,423.81ZM269.6,373.53a8.39,8.39,0,0,0-3.26.64c-3.5,1.46-5.78,5.31-6.42,10.83s.48,12.28,3.18,18.74c4.76,11.38,13.16,19.09,20.08,19.09a8.39,8.39,0,0,0,3.26-.64c7.32-3.07,8.77-16.33,3.23-29.57C284.91,381.24,276.51,373.53,269.6,373.53Z" style="fill:#263238"></path><path d="M309,370.24l27.3-8.24c-17.56-33.53-45.6-53.11-66-44.58l-26.1,7.81,11,7.64c-4.11,8.7-5.9,20.05-5.2,32.75L288.92,384Z" style="fill:#fff"></path><path d="M288.92,384.5a.5.5,0,0,1-.21-.05l-38.93-18.38a.48.48,0,0,1-.29-.42c-.69-12.64,1.06-23.91,5.07-32.61l-10.66-7.4a.5.5,0,0,1,.14-.89l26.1-7.81c9.9-4.15,22.16-1.81,34.47,6.59,12.11,8.26,23.51,21.84,32.1,38.24a.54.54,0,0,1,0,.43.48.48,0,0,1-.31.28l-27.23,8.22-20,13.71A.47.47,0,0,1,288.92,384.5Zm-38.45-19.2,38.4,18.12,19.8-13.59.14-.07,26.73-8.06c-17.58-33.2-45.47-52-65.07-43.82l-25.15,7.53,10.15,7a.52.52,0,0,1,.17.63C251.61,341.62,249.82,352.75,250.47,365.3Z" style="fill:#263238"></path><path d="M279,400.45,309,370.24c-17.56-33.54-45.6-53.11-66-44.58-14.49,6.07-21.56,24.88-20.29,48.2Z" style="fill:#fff"></path><path d="M279,401a.54.54,0,0,1-.21,0l-56.34-26.6a.5.5,0,0,1-.29-.43c-1.34-24.52,6.36-42.72,20.6-48.68,9.95-4.17,22.22-1.84,34.53,6.56,12.1,8.26,23.5,21.85,32.09,38.25a.49.49,0,0,1-.09.58l-29.93,30.22A.55.55,0,0,1,279,401Zm-55.85-27.43,55.75,26.32,29.42-29.7c-17.56-33.33-45.54-52.25-65.17-44C229.39,331.89,221.93,349.6,223.17,373.53Z" style="fill:#263238"></path><path d="M276.39,398.18l-83.4-26a10.47,10.47,0,0,1-6.42-14.31h0a10.47,10.47,0,0,1,14.94-4.66Z" style="fill:#C7D2CB"></path><path d="M276.39,398.68l-.15,0-83.39-26a11,11,0,1,1,8.92-19.88l74.88,45a.49.49,0,0,1,.19.63A.49.49,0,0,1,276.39,398.68Zm-80.28-46.5a10,10,0,0,0-3,19.49l79.42,24.79-71.31-42.85A10,10,0,0,0,196.11,352.18Z" style="fill:#263238"></path><path d="M208.4,357.32a10.46,10.46,0,0,0-8.07,17.12l76.06,23.74Z" style="fill:#fff"></path><path d="M276.39,398.68l-.15,0-76.06-23.74a.46.46,0,0,1-.23-.16,11,11,0,0,1,8.44-17.94h0a.45.45,0,0,1,.25.07l68,40.86a.49.49,0,0,1,.19.63A.49.49,0,0,1,276.39,398.68ZM200.63,374l71.93,22.45-64.3-38.64A10,10,0,0,0,200.63,374Z" style="fill:#263238"></path><path d="M288.56,393.43c4,9.61,2.91,19.24-2.49,21.49s-13-3.69-17.06-13.3-2.9-19.23,2.5-21.49S284.54,383.82,288.56,393.43Z" style="fill:#fff"></path><path d="M283.67,415.89c-5.28,0-11.59-5.67-15.12-14.08-4.12-9.85-2.88-19.78,2.76-22.14s13.59,3.72,17.72,13.57h0A28.32,28.32,0,0,1,291.35,407c-.49,4.25-2.3,7.23-5.08,8.4A6.8,6.8,0,0,1,283.67,415.89ZM274,380.14a5.86,5.86,0,0,0-2.27.45c-5.14,2.15-6.13,11.49-2.22,20.83s11.26,15.2,16.4,13c2.44-1,4-3.71,4.47-7.58a27,27,0,0,0-2.25-13.25C284.74,385.59,278.82,380.14,274,380.14Z" style="fill:#263238"></path><path d="M270,353.72c4,9.61,2.91,19.23-2.49,21.49s-13-3.7-17-13.31-2.91-19.23,2.49-21.49S266,344.11,270,353.72Z" style="fill:#fff"></path><path d="M265.12,376.18c-5.28,0-11.59-5.67-15.12-14.08a28.34,28.34,0,0,1-2.32-13.76c.49-4.24,2.3-7.22,5.08-8.39,5.65-2.37,13.59,3.73,17.72,13.58h0a28.3,28.3,0,0,1,2.32,13.75c-.49,4.25-2.3,7.23-5.08,8.39A6.62,6.62,0,0,1,265.12,376.18Zm-9.7-35.75a5.85,5.85,0,0,0-2.27.44c-2.44,1-4,3.72-4.48,7.59a27.15,27.15,0,0,0,2.26,13.25c3.91,9.34,11.26,15.19,16.4,13,2.44-1,4-3.71,4.47-7.58a27.05,27.05,0,0,0-2.25-13.26C266.19,345.88,260.28,340.43,255.42,340.43Z" style="fill:#263238"></path><path d="M250.63,343.61l-13.17-34.24,7.86-9.43,19.55,2.34,8.45,14.08a24.64,24.64,0,0,1,7.32-.78c-5.47-14.43-17.6-43.25-17.6-51.34L238,253l-12,5.21s-16.68,13.55-17.46,17.46c-.48,2.38,9.73,24.86,17.81,42.14l8.76,19.47a42.56,42.56,0,0,0,15.61,18.22l5.94,3.85,10.71,2.88L255,342.46Z" style="fill:#263238"></path><path d="M267.41,362.76l-.13,0-10.71-2.87-.15-.07L250.49,356a43,43,0,0,1-15.8-18.43l-8.76-19.47c-12.24-26.17-18.24-40.45-17.84-42.45.79-4,15.91-16.35,17.63-17.75l.12-.07,12-5.21a.55.55,0,0,1,.4,0l25,11.21a.5.5,0,0,1,.29.46c0,6.36,7.86,26.36,13.59,41,1.48,3.75,2.87,7.29,4,10.21a.49.49,0,0,1-.07.48.51.51,0,0,1-.44.19,24.05,24.05,0,0,0-7.14.77.5.5,0,0,1-.55-.23l-8.34-13.87-19-2.28-7.5,9L250.94,343l3.9-1a.5.5,0,0,1,.55.22L267.83,362a.5.5,0,0,1,0,.56A.52.52,0,0,1,267.41,362.76Zm-10.51-3.84,9.41,2.52L254.74,343l-4,1a.5.5,0,0,1-.6-.3L237,309.55a.51.51,0,0,1,.09-.5l7.86-9.43a.5.5,0,0,1,.44-.18l19.55,2.35a.47.47,0,0,1,.37.24l8.26,13.76a26.31,26.31,0,0,1,6.33-.75c-1.05-2.76-2.33-6-3.69-9.47-6-15.25-13.41-34.16-13.65-41l-24.53-11-11.72,5.09c-4.64,3.78-16.62,14.08-17.23,17.13-.16.81,1.25,6.49,17.77,41.83l8.77,19.48a42,42,0,0,0,15.42,18Z" style="fill:#263238"></path><path d="M183.58,231.15s.79,26.58,4.7,33.35,17.72,19.29,39.61,21.11a115.63,115.63,0,0,0,42.35-4.19,49.93,49.93,0,0,0,26.49-19c6.18-8.84,6-19.93,4.91-30.23l-.52-4.17s-9.64,14.85-36.49,20.59-58.11-2.35-69.58-9.91Z" style="fill:#263238"></path><path d="M237.88,286.53c-3.34,0-6.69-.14-10-.42-21.34-1.78-35.62-13.75-40-21.36-3.92-6.8-4.72-32.5-4.75-33.59a.49.49,0,0,1,.77-.43l11.47,7.56c11.52,7.59,42.8,15.46,69.2,9.83s36.07-20.23,36.17-20.37a.5.5,0,0,1,.53-.22.49.49,0,0,1,.38.43l.53,4.17c1.07,10.06,1.31,21.55-5,30.58a50.46,50.46,0,0,1-26.76,19.19A113.68,113.68,0,0,1,237.88,286.53ZM184.12,232.1c.19,4.82,1.2,26.29,4.59,32.15,4.29,7.43,18.27,19.12,39.22,20.86a114.68,114.68,0,0,0,42.16-4.17,49.4,49.4,0,0,0,26.23-18.81c6.12-8.75,5.87-20,4.82-29.89l-.36-2.93c-2.78,3.48-13.39,14.95-36,19.78-26.67,5.7-58.29-2.28-70-10Z" style="fill:#263238"></path><path d="M333.92,240.69a161.62,161.62,0,0,1,21.55,12.39c10.15,6.7,29,17.23,36.6,3,8.59-16-7.27-29-16.17-36.2-6.75-5.49-11.47-7.65-15.95-15.07s-7.55-15.78-12.43-23c-13.81-20.55-42.38-29.53-60.7-9.24-10.52,11.67-9.46,28-.63,40.48A45.57,45.57,0,0,0,298.1,225c8,5.2,17.59,7.73,26.29,11.51C327.55,237.85,330.74,239.24,333.92,240.69Z" style="fill:#C7D2CB"></path><path d="M380.21,263.67c-6.44,0-14.68-3.36-25-10.17a162.36,162.36,0,0,0-21.49-12.35h0c-3.07-1.4-6.18-2.76-9.2-4.07l-.32-.14c-2.84-1.24-5.83-2.36-8.73-3.44-6-2.25-12.23-4.58-17.63-8.11a45.87,45.87,0,0,1-12.05-12.08c-9.59-13.51-9.32-30,.67-41.1,7.49-8.29,17.07-12.28,27.74-11.51,12.8.91,25.74,8.88,33.75,20.8a108.71,108.71,0,0,1,7,12.8c1.68,3.42,3.42,7,5.42,10.26,3.3,5.48,6.74,8,11.1,11.29,1.49,1.11,3,2.27,4.74,3.65,8.76,7.13,25.08,20.41,16.29,36.83a13,13,0,0,1-8.39,6.88A16.31,16.31,0,0,1,380.21,263.67ZM311.64,161.6c-9.35,0-17.76,3.87-24.45,11.28-9.67,10.71-9.91,26.73-.59,39.85a45,45,0,0,0,11.77,11.83c5.32,3.46,11.48,5.77,17.44,8,2.91,1.09,5.92,2.22,8.78,3.46l.32.14c3,1.31,6.14,2.67,9.21,4.08h0a163,163,0,0,1,21.63,12.42c12.13,8,21.6,11.23,28.13,9.58a12,12,0,0,0,7.75-6.38c8.4-15.69-7.5-28.63-16-35.58-1.69-1.37-3.22-2.52-4.71-3.63-4.44-3.31-7.95-5.93-11.36-11.57-2-3.34-3.76-6.9-5.46-10.33a107.29,107.29,0,0,0-6.95-12.69c-7.85-11.67-20.49-19.47-33-20.37C313.28,161.63,312.46,161.6,311.64,161.6Z" style="fill:#263238"></path><path d="M390.37,255.84l-.15,0a.51.51,0,0,1-.33-.63c4.37-14-9.4-25.16-17.62-31.85-1.69-1.37-3.22-2.52-4.71-3.63-4.44-3.31-7.95-5.92-11.36-11.57-2-3.34-3.76-6.89-5.45-10.33a108.83,108.83,0,0,0-7-12.69c-11-16.31-30.29-24.17-46-18.69a.48.48,0,0,1-.63-.3.49.49,0,0,1,.3-.64c16.09-5.63,35.91,2.39,47.12,19.07a110.39,110.39,0,0,1,7,12.81c1.68,3.42,3.41,6.95,5.41,10.25,3.31,5.48,6.74,8,11.1,11.29,1.49,1.12,3,2.27,4.74,3.65,8.42,6.85,22.51,18.32,18,32.93A.5.5,0,0,1,390.37,255.84Z" style="fill:#263238"></path><path d="M311.07,180.57H311a.5.5,0,0,1-.38-.6,19.18,19.18,0,0,1,17.55-14.17.5.5,0,1,1,.07,1,18.18,18.18,0,0,0-16.65,13.4A.49.49,0,0,1,311.07,180.57Z" style="fill:#263238"></path><path d="M283,191s5.87-12.76,19.91-9.95,17.36,11.74,18.89,25.78a70.41,70.41,0,0,0,7.91,25s-15.57-.76-26.55-10.21S284.26,207.12,283,191Z" style="fill:#263238"></path><path d="M329.7,232.38h0c-.15,0-15.86-.88-26.84-10.33-1.05-.9-2.07-1.76-3.06-2.59-9.35-7.91-16.11-13.62-17.28-28.38a.49.49,0,0,1,0-.24c.06-.14,6.2-13.09,20.47-10.24,14,2.81,17.7,11.74,19.28,26.22a70.81,70.81,0,0,0,7.85,24.81.52.52,0,0,1,0,.51A.51.51,0,0,1,329.7,232.38Zm-46.2-41.24c1.16,14.24,7.44,19.54,16.92,27.55,1,.84,2,1.7,3.06,2.61,9.21,7.92,21.87,9.67,25.34,10a72.37,72.37,0,0,1-7.53-24.39c-1.57-14.35-5-22.64-18.49-25.34C289.87,179,284.15,189.81,283.5,191.14Z" style="fill:#263238"></path><path d="M208.34,190.49s-13,4.17-21.37,8.86-13.55,25.54-4.43,36,30.49,24.24,54.21,25.8,55.51-11.46,64.89-28.92,2.87-34.92-4.17-39.35S279.31,187,279.31,187Z" style="fill:#fff"></path><path d="M240.86,261.75c-1.4,0-2.78-.05-4.14-.14-24.78-1.63-46.2-16.42-54.55-26-4.24-4.84-5.86-12.35-4.44-20.6,1.27-7.44,4.81-13.77,9-16.12,8.29-4.67,21.33-8.86,21.46-8.91l.13,0,71-3.51c.54.06,11.4,1.5,18.45,5.93,6.74,4.25,14.17,21.73,4.34,40C293.48,248.44,265.15,261.75,240.86,261.75ZM208.43,191c-1,.32-13.3,4.35-21.21,8.8-3.94,2.21-7.28,8.27-8.51,15.42-1.36,7.95.17,15.16,4.21,19.78,8.24,9.41,29.39,24,53.86,25.63,24.78,1.63,55.48-12,64.42-28.67,9.54-17.75,2.47-34.62-4-38.69-6.86-4.32-17.84-5.77-17.95-5.78Z" style="fill:#263238"></path><path d="M276.46,225.87a.52.52,0,0,1-.46-.3.5.5,0,0,1,.26-.66c20.83-9,36.44-30.82,36.6-31a.51.51,0,0,1,.69-.12.5.5,0,0,1,.12.7c-.15.22-15.92,22.22-37,31.38A.71.71,0,0,1,276.46,225.87Z" style="fill:#263238"></path><path d="M215.25,232.67h-.07c-13.19-2-26.13-12.8-26.26-12.91a.5.5,0,0,1,.65-.77c.13.11,12.85,10.74,25.76,12.69a.5.5,0,0,1-.08,1Z" style="fill:#263238"></path><path d="M191.27,239.31c7.25-10.39,7.13-30.95,0-42.16-1.5.71-3,1.45-4.3,2.2-8.34,4.69-13.55,25.54-4.43,36a58,58,0,0,0,6.75,6.44A22.72,22.72,0,0,0,191.27,239.31Z" style="fill:#263238"></path><path d="M189.29,242.25a.54.54,0,0,1-.32-.11,57.89,57.89,0,0,1-6.8-6.5c-4.24-4.84-5.86-12.35-4.44-20.6,1.27-7.44,4.81-13.77,9-16.12,1.26-.71,2.72-1.46,4.33-2.22a.49.49,0,0,1,.63.18c7.31,11.48,7.3,32.24,0,42.72h0a23.76,23.76,0,0,1-2,2.49A.5.5,0,0,1,189.29,242.25Zm1.79-44.45c-1.43.68-2.73,1.35-3.86,2-3.94,2.21-7.28,8.27-8.51,15.42-1.36,7.95.17,15.16,4.21,19.78a56.18,56.18,0,0,0,6.32,6.07,21.46,21.46,0,0,0,1.62-2h0C197.9,228.94,198,209.05,191.08,197.8Zm.19,41.51h0Z" style="fill:#263238"></path><path d="M222.88,163.77s-5.89,2.14-7.14,3.75-13.93,25.53-13.93,25.53,24.29,17.32,37,18.57,22.67-5,29.64-11.25A57.57,57.57,0,0,0,279.31,187s-14.11-22.86-15.53-23.93a10.79,10.79,0,0,0-4.11-1.43Z" style="fill:#263238"></path><path d="M242,212.28a32.54,32.54,0,0,1-3.27-.16c-12.67-1.25-36.21-18-37.21-18.66a.5.5,0,0,1-.15-.64c.52-1,12.71-24,14-25.61s6.75-3.69,7.36-3.91l.14,0,36.79-2.15a11,11,0,0,1,4.44,1.53c1.46,1.1,14.21,21.72,15.66,24.07a.5.5,0,0,1,0,.5,58.51,58.51,0,0,1-11,13.52C260.21,208.41,251.23,212.28,242,212.28ZM202.46,192.9c3,2.13,24.79,17.08,36.36,18.22,10.09,1,19.93-2.74,29.26-11.12a58.44,58.44,0,0,0,10.65-13c-5.45-8.82-14.27-22.8-15.25-23.54a10.21,10.21,0,0,0-3.88-1.33L223,164.26c-1.66.61-5.92,2.36-6.85,3.56S206.9,184.53,202.46,192.9Z" style="fill:#263238"></path><path d="M246.63,187c-3.67-2.26-9.69,16.05-12,23.79a25.22,25.22,0,0,0,4.2.85,33.83,33.83,0,0,0,19.3-4C255.42,201.26,250,189.07,246.63,187Z" style="fill:#C7D2CB"></path><path d="M242,212.28a32.49,32.49,0,0,1-3.26-.16,24.8,24.8,0,0,1-4.28-.87.45.45,0,0,1-.3-.24.47.47,0,0,1,0-.38c2.56-8.43,7.42-22.79,11.18-24.21a1.79,1.79,0,0,1,1.61.13h0c3.46,2.14,8.78,14,11.64,20.93a.5.5,0,0,1-.23.64A35.08,35.08,0,0,1,242,212.28Zm-6.78-1.85a23.27,23.27,0,0,0,3.61.69,33.36,33.36,0,0,0,18.62-3.68c-4.71-11.31-8.74-18.6-11.07-20a.75.75,0,0,0-.73,0C243.25,188.26,239.36,196.87,235.21,210.43Z" style="fill:#263238"></path><path d="M277.17,190.35c-2.72-4-8.73-12-12.5-11-5,1.25,3.75,21.07,3.75,21.07A57.73,57.73,0,0,0,277.17,190.35Z" style="fill:#C7D2CB"></path><path d="M268.42,200.87h-.11a.51.51,0,0,1-.35-.29c-.29-.65-7.06-16.09-4.9-20.51a2.21,2.21,0,0,1,1.49-1.24c4-1,9.87,6.62,13,11.24a.51.51,0,0,1,0,.57,57.9,57.9,0,0,1-8.83,10.11A.46.46,0,0,1,268.42,200.87Zm-3.12-21.14a2.1,2.1,0,0,0-.51.06,1.24,1.24,0,0,0-.83.71c-1.55,3.17,2.59,14.25,4.64,19a57.73,57.73,0,0,0,8-9.19C271.92,183.61,267.79,179.73,265.3,179.73Z" style="fill:#263238"></path><path d="M207.69,197c3.65,2.37,8.61,5.44,13.76,8.16,1.16-6.95,2.74-19-.17-20.15C217.89,183.69,210.27,193.51,207.69,197Z" style="fill:#C7D2CB"></path><path d="M221.45,205.67a.46.46,0,0,1-.23-.06c-5.33-2.81-10.44-6-13.8-8.18a.45.45,0,0,1-.22-.33.48.48,0,0,1,.09-.38c3.78-5.14,10.65-13.54,14.17-12.17,2.46,1,2.63,7.93.48,20.7a.46.46,0,0,1-.27.36A.43.43,0,0,1,221.45,205.67Zm-13-8.79c3.2,2.07,7.82,4.93,12.66,7.52,2.14-13.1,1.43-18.37,0-18.92C219.08,184.69,214.24,189.05,208.41,196.88Z" style="fill:#263238"></path><path d="M234.49,179.48s8.39,16.43,13,12.68,10.35-25.54,10.35-25.54l-23,11.07Z" style="fill:#fff"></path><path d="M246,193.21a3.39,3.39,0,0,1-.7-.07c-4.87-1-11-12.93-11.25-13.43a.48.48,0,0,1-.05-.33l.36-1.78a.5.5,0,0,1,.27-.36l23-11.07a.51.51,0,0,1,.7.58c-.24.9-5.81,22-10.53,25.8A2.89,2.89,0,0,1,246,193.21ZM235,179.4c.73,1.4,6.35,11.88,10.49,12.76a1.92,1.92,0,0,0,1.7-.39c3.89-3.14,8.7-19.84,9.9-24.22L235.29,178Z" style="fill:#263238"></path><path d="M224.64,107.79s-9.91,6.83-12.34,19.17-2.42,31.74,4.63,44.52,9.48,15.87,15.65,16.09,19.62-8.37,28-12.78,7.93-15.87,7.93-15.87,4.41-18.07,1.55-33.94-19.84-22.7-28.21-22.7S224.64,107.79,224.64,107.79Z" style="fill:#fff"></path><path d="M232.82,188.08h-.26c-6.48-.23-9-3.51-16.07-16.34-6.87-12.46-7.3-31.51-4.68-44.86,2.44-12.4,12.45-19.42,12.55-19.49l0,0c.36-.22,9-5.58,17.46-5.58s25.75,6.78,28.7,23.11c2.76,15.3-1.24,32.85-1.53,34.08,0,1.07.1,11.89-8.21,16.26-1.84,1-3.93,2.15-6.14,3.39C246.76,183.06,237.82,188.08,232.82,188.08Zm-7.9-79.87c-.34.24-9.8,7-12.13,18.85-2.58,13.17-2.17,31.94,4.58,44.18,6.86,12.44,9.25,15.62,15.23,15.83,4.68.18,14-5.09,21.57-9.32,2.22-1.25,4.31-2.43,6.17-3.4,8-4.21,7.67-15.3,7.67-15.41a.33.33,0,0,1,0-.14c0-.18,4.35-18.15,1.54-33.73s-19.72-22.29-27.72-22.29S225.26,108,224.92,108.21Z" style="fill:#263238"></path><ellipse cx="264.43" cy="145.59" rx="10.03" ry="15.76" style="fill:#fff"></ellipse><path d="M264.43,161.85c-5.81,0-10.53-7.3-10.53-16.26s4.72-16.26,10.53-16.26S275,136.62,275,145.59,270.23,161.85,264.43,161.85Zm0-31.52c-5.26,0-9.53,6.84-9.53,15.26s4.27,15.26,9.53,15.26S274,154,274,145.59,269.68,130.33,264.43,130.33Z" style="fill:#263238"></path><path d="M270.71,146.36c0,4.75-1.73,8.59-3.86,8.59s-3.86-3.84-3.86-8.59,1.73-8.6,3.86-8.6S270.71,141.61,270.71,146.36Z" style="fill:#fff"></path><path d="M266.85,155.45c-2.44,0-4.36-4-4.36-9.09s1.92-9.1,4.36-9.1,4.36,4,4.36,9.1S269.3,155.45,266.85,155.45Zm0-17.19c-1.62,0-3.36,3.26-3.36,8.1s1.74,8.09,3.36,8.09,3.36-3.25,3.36-8.09S268.47,138.26,266.85,138.26Z" style="fill:#263238"></path><ellipse cx="265.86" cy="146.36" rx="2.87" ry="8.3" style="fill:#C7D2CB"></ellipse><path d="M265.86,155.16a.52.52,0,0,1-.25-.07c-1.87-1.1-3.12-4.61-3.12-8.73s1.25-7.63,3.12-8.73a.5.5,0,0,1,.5,0c1.87,1.1,3.12,4.61,3.12,8.73s-1.25,7.62-3.12,8.73A.52.52,0,0,1,265.86,155.16Zm0-16.49c-1.21,1-2.37,3.81-2.37,7.69s1.16,6.7,2.37,7.69c1.21-1,2.37-3.82,2.37-7.69S267.07,139.65,265.86,138.67Z" style="fill:#263238"></path><path d="M225,126.64a2.29,2.29,0,0,1,2.65.24c4.17,3.64,17.94,16.1,18.2,22.56.23,5.75-10,17.15-14.75,22.19a3.81,3.81,0,0,1-5.3.23A48.6,48.6,0,0,1,211,148.12S213.62,133.29,225,126.64Z" style="fill:#C7D2CB"></path><path d="M228.28,173.32a4.31,4.31,0,0,1-2.86-1.08,49.16,49.16,0,0,1-14.92-24,.54.54,0,0,1,0-.22c0-.15,2.81-15.13,14.21-21.82a2.77,2.77,0,0,1,3.22.29c5.44,4.74,18.12,16.45,18.38,22.92.23,5.78-9.23,16.61-14.89,22.56A4.3,4.3,0,0,1,228.28,173.32ZM211.49,148.1a48.15,48.15,0,0,0,14.59,23.39,3.32,3.32,0,0,0,4.61-.2c4.47-4.7,14.84-16.22,14.61-21.83-.25-6.25-13.86-18.58-18-22.2a1.78,1.78,0,0,0-2.07-.18h0C214.7,133.24,211.76,146.77,211.49,148.1ZM225,126.65h0Z" style="fill:#263238"></path><path d="M226,124.6h-.07a.5.5,0,0,1-.43-.56c0-.15,2.15-14.43,13.7-20.87a.5.5,0,0,1,.49.88c-11.11,6.19-13.18,20-13.2,20.13A.5.5,0,0,1,226,124.6Z" style="fill:#263238"></path><path d="M231.26,186.31a.49.49,0,0,1-.41-.21c-2.92-4-3.17-10.36-3.18-10.63a.5.5,0,1,1,1,0c0,.07.25,6.29,3,10.09a.51.51,0,0,1-.11.7A.52.52,0,0,1,231.26,186.31Z" style="fill:#263238"></path><path d="M248.72,148.42c-.54,0-.91,0-1,0a.5.5,0,0,1,.05-1c.05,0,4.29.2,6.13-.82a.5.5,0,1,1,.48.88C252.91,148.3,250.17,148.42,248.72,148.42Z" style="fill:#263238"></path><path d="M82.31,256.55s-2.45,6.23,4.23,12l10.23,12,24.48-7.34-11.12-11.35a10.66,10.66,0,0,0,9.79-5.79,17.82,17.82,0,0,0,1.56-11.79Z" style="fill:#263238"></path><path d="M96.77,281.08a.49.49,0,0,1-.38-.18l-10.23-12c-6.81-5.9-4.34-12.46-4.32-12.53a.51.51,0,0,1,.32-.29l39.17-12.24a.46.46,0,0,1,.38,0,.5.5,0,0,1,.25.3,18.19,18.19,0,0,1-1.59,12.15,11,11,0,0,1-9.09,6l10.33,10.54a.49.49,0,0,1-.21.82l-24.48,7.35ZM82.7,257c-.35,1.13-1.53,6.29,4.17,11.23L96.94,280l23.38-7-10.55-10.75a.51.51,0,0,1-.1-.56.48.48,0,0,1,.49-.29,10.07,10.07,0,0,0,9.31-5.51A17.72,17.72,0,0,0,121.1,245Z" style="fill:#263238"></path><path d="M111.17,211.29a160.93,160.93,0,0,1-19.69,15.18c-10.07,6.82-25.26,19-16.78,32.67,7.1,11.46,24.83,3.27,34.93-2.19s29.19-9.54,39.28-9.27,32.47-5.73,40.66-17.46,7-36.45-3.11-46c-7.57-7.15-22.21-8.57-31.47-6.45a45.46,45.46,0,0,0-15.6,6.43c-7.85,5.38-13.86,13.3-20.68,19.9C116.23,206.49,113.73,208.91,111.17,211.29Z" style="fill:#C7D2CB"></path><path d="M86.05,265.44c-4.71,0-9-1.57-11.77-6C64.74,244,84.66,230.49,91.2,226.06a161.8,161.8,0,0,0,19.63-15.14h0c2.47-2.29,4.91-4.66,7.28-6.94l.25-.24c2.22-2.15,4.41-4.49,6.52-6.76,4.38-4.69,8.9-9.54,14.22-13.19a45.9,45.9,0,0,1,15.78-6.51c9.88-2.26,24.52-.42,31.92,6.58,10.06,9.51,11.75,34.36,3.18,46.64-8.45,12.11-31.24,18-41.08,17.68-9.67-.28-28.84,3.7-39,9.21C105.4,259.81,95,265.44,86.05,265.44Zm25.46-53.78a163.27,163.27,0,0,1-19.75,15.23c-17.27,11.7-22.71,22.16-16.63,32,5,8.14,16.25,7.37,34.26-2.36,10.32-5.59,29.74-9.61,39.54-9.34s32-5.43,40.23-17.25,6.72-36.11-3-45.35c-7.15-6.76-21.38-8.53-31-6.32a45,45,0,0,0-15.43,6.35c-5.23,3.59-9.72,8.4-14.06,13.06-2.12,2.27-4.31,4.62-6.56,6.78l-.25.25c-2.37,2.29-4.82,4.65-7.29,7Z" style="fill:#263238"></path><path d="M82,263h-.82a.51.51,0,0,1-.48-.52.48.48,0,0,1,.52-.48c6,.25,13.9-2.34,24.17-7.89s29.73-9.59,39.54-9.34c9.65.27,32-5.43,40.23-17.25,7.11-10.18,7-30.93-.19-41.89a.51.51,0,0,1,.14-.7.5.5,0,0,1,.69.15c7.53,11.45,7.62,32.36.18,43-8.44,12.1-31.22,17.95-41.07,17.67-9.67-.26-28.85,3.71-39,9.22C95.88,260.34,88.06,263,82,263Z" style="fill:#263238"></path><path d="M155.3,246.59a.52.52,0,0,1-.36-.16c-27.65-29.12-16-60.08-15.88-60.39a.5.5,0,0,1,.93.37c-.12.3-11.52,30.68,15.67,59.33a.5.5,0,0,1,0,.71A.54.54,0,0,1,155.3,246.59Z" style="fill:#263238"></path><path d="M93.21,239.69a.5.5,0,0,1-.4-.21c-3.45-4.82-1.49-11.09-1.41-11.35a.5.5,0,0,1,1,.31c0,.05-1.8,5.76,1,10.13,3.34-1.38,28.53-12.08,48.45-28.92,21.38-18.07,47-14.44,51.2-10a.49.49,0,0,1,0,.7.5.5,0,0,1-.71,0c-3.21-3.4-27.83-8.53-49.83,10.06-21.4,18.09-48.82,29.12-49.09,29.23A.41.41,0,0,1,93.21,239.69Z" style="fill:#263238"></path><ellipse cx="140.39" cy="213.71" rx="17.14" ry="14.13" transform="translate(-93.48 110.34) rotate(-32.85)" style="fill:#263238"></ellipse><path d="M152.63,207.14c3.3,5.1,1,12.48-5.24,16.48s-13.87,3.09-17.17-2-.95-12.48,5.24-16.47S149.34,202,152.63,207.14Z" style="fill:#fff"></path><path d="M139.24,226.61a11,11,0,0,1-9.44-4.73,10.58,10.58,0,0,1-1-9.07,15.26,15.26,0,0,1,6.38-8.09c6.41-4.14,14.42-3.18,17.86,2.15h0a10.57,10.57,0,0,1,1,9.08,15.35,15.35,0,0,1-6.38,8.09A15.65,15.65,0,0,1,139.24,226.61Zm4.39-23.46a14.62,14.62,0,0,0-7.9,2.41,14.35,14.35,0,0,0-6,7.55,9.58,9.58,0,0,0,.88,8.23c3.15,4.86,10.54,5.7,16.48,1.86a14.28,14.28,0,0,0,6-7.56,9.55,9.55,0,0,0-.88-8.23A9.94,9.94,0,0,0,143.63,203.15Z" style="fill:#263238"></path><path d="M149.91,211c2.37,3.66.68,8.95-3.76,11.82s-10,2.22-12.32-1.44-.68-8.95,3.76-11.82S147.55,207.3,149.91,211Z" style="fill:#C7D2CB"></path><path d="M140.3,225.07a8,8,0,0,1-6.89-3.45c-2.51-3.89-.75-9.5,3.91-12.51a11.17,11.17,0,0,1,7.27-1.81,7.47,7.47,0,0,1,6.47,10,11.12,11.12,0,0,1-4.63,5.88A11.43,11.43,0,0,1,140.3,225.07Zm3.14-16.83a10.36,10.36,0,0,0-5.58,1.71c-4.2,2.71-5.82,7.7-3.61,11.13s7.43,4,11.63,1.29a10.16,10.16,0,0,0,4.23-5.35,6.73,6.73,0,0,0-.62-5.78h0a6.69,6.69,0,0,0-5-2.94A8.77,8.77,0,0,0,143.44,208.24Z" style="fill:#263238"></path><path d="M162,313.51S143.51,299.05,136.39,287s-8-14.91-11.8-17.36-34-5.78-44.51-1.11-13.35,8-6,21.14c9.44,16.89,62.31,52.08,70.32,54.52l8,2.45Z" style="fill:#C7D2CB"></path><path d="M152.41,347.17a.39.39,0,0,1-.15,0l-8-2.45c-8.17-2.49-61.15-37.85-70.61-54.75-3.7-6.61-4.83-10.79-3.77-14,1.11-3.34,4.51-5.42,10-7.87,10.61-4.74,41-1.41,45,1.14,3,1.92,4.17,4,7.74,10.26,1.12,2,2.49,4.35,4.22,7.27,7,11.79,25.28,26.2,25.47,26.34a.51.51,0,0,1,.17.53l-9.57,33.16a.52.52,0,0,1-.24.3A.53.53,0,0,1,152.41,347.17Zm-55.1-80.43c-6.85,0-13.31.62-17,2.28-5.25,2.34-8.48,4.28-9.47,7.27s.15,6.83,3.69,13.17c9.38,16.76,61.93,51.81,70,54.29l7.53,2.29,9.33-32.34c-2.29-1.84-18.82-15.24-25.44-26.41-1.74-2.93-3.1-5.31-4.23-7.28-3.48-6.08-4.65-8.13-7.41-9.92C121.94,268.55,109,266.74,97.31,266.74Z" style="fill:#263238"></path><path d="M111.82,298.79a3,3,0,0,0,1.42.36,3,3,0,0,0,2.64-1.57c.3-.55,7-12.48,21.14-9.51-.22-.35-.43-.7-.63-1-1.23-2.07-2.27-3.86-3.17-5.44-12-.27-19.79,7.84-22.62,13.15A3,3,0,0,0,111.82,298.79Z" style="fill:#263238"></path><path d="M139.67,291.8a25.88,25.88,0,0,0-18.84,13,3,3,0,0,0,5.29,2.83c.28-.51,6.18-11,18.6-9.9C142.93,295.77,141.2,293.78,139.67,291.8Z" style="fill:#263238"></path><path d="M202.06,306.7s-3.67-4.94-8.11-5.83-16.34,3.42-19.89,3.8-20.9,3.67-20.52,5.07,2.15,5.07,1.52,5.83-6.46,2.66-7.6,4.3-3.68,13.55-2.6,15.14,1.58,2.73,1.2,3.61-3.42,4.69-3,6.85S147.33,357,147.33,357l9.88-1.77s5.45-1.65,8.49-12.42,2.28-13,10-18.49S187.36,316.83,191,313,202.06,306.7,202.06,306.7Z" style="fill:#263238"></path><path d="M147.33,357.49a.49.49,0,0,1-.46-.3c-.16-.39-4-9.45-4.34-11.64-.32-1.81,1.34-4.37,2.43-6.07a10.19,10.19,0,0,0,.64-1.05c.27-.62-.08-1.56-1.16-3.14-1.28-1.89,1.53-14.15,2.6-15.7.78-1.12,3.16-2.19,5.26-3.14a15.2,15.2,0,0,0,2.37-1.2c.23-.43-.61-2.63-1-3.69-.26-.68-.48-1.27-.6-1.69a.73.73,0,0,1,.12-.6c1.25-1.84,18.51-4.85,20.84-5.1a51.52,51.52,0,0,0,5.92-1.4c4.95-1.33,11.1-3,14.12-2.39,4.57.91,8.26,5.81,8.41,6a.49.49,0,0,1-.24.77c-.07,0-7.28,2.54-10.82,6.21-2.57,2.66-5.21,4.43-9.21,7.11-1.78,1.19-3.8,2.54-6.19,4.23-6.23,4.38-6.8,6.62-8.5,13.27-.37,1.43-.79,3.06-1.32,4.95-3.08,10.91-8.59,12.69-8.82,12.76l-9.94,1.79Zm6.74-47.73c.11.38.31.9.52,1.45.9,2.36,1.45,4,.85,4.68a9.64,9.64,0,0,1-2.73,1.47c-1.78.81-4.23,1.91-4.84,2.8-1.11,1.6-3.46,13.29-2.6,14.57,1.11,1.63,1.74,2.95,1.25,4.09a10.18,10.18,0,0,1-.72,1.2c-.89,1.38-2.54,3.93-2.29,5.36.33,1.83,3.4,9.3,4.13,11.05l9.48-1.7s5.18-1.74,8.1-12.06c.53-1.88.94-3.5,1.31-4.93,1.72-6.72,2.36-9.24,8.89-13.84,2.4-1.69,4.43-3,6.21-4.25,4-2.64,6.55-4.38,9.05-7,3.1-3.21,8.64-5.49,10.55-6.21-1.07-1.27-4-4.44-7.38-5.11-2.78-.55-8.81,1.07-13.66,2.37a52.08,52.08,0,0,1-6.08,1.44C170.15,305.59,155.52,308.53,154.07,309.76Z" style="fill:#263238"></path><path d="M166.46,298.59s2.28-2.91-.13-5.43c-1.51-1.57-4.3-2.17-7.47.87-1.69,1.61-11.26,11-11.26,14.32s4.05,4.56,6.83,2.79S166.46,298.59,166.46,298.59Z" style="fill:#fff"></path><path d="M151.65,312.44a5.12,5.12,0,0,1-2.48-.61,3.86,3.86,0,0,1-2.07-3.48c0-3.55,9.51-12.85,11.41-14.68a7.15,7.15,0,0,1,4.69-2.3,4.58,4.58,0,0,1,3.65,7.53v0c-.38.44-9.33,10.85-12.14,12.64A5.72,5.72,0,0,1,151.65,312.44Zm11.67-20.07h-.09a6.31,6.31,0,0,0-4,2c-3.84,3.69-11.1,11.35-11.1,14a2.86,2.86,0,0,0,1.55,2.6,4.56,4.56,0,0,0,4.51-.23c2.66-1.69,11.58-12.06,11.91-12.45.14-.18,1.94-2.64-.1-4.76A3.64,3.64,0,0,0,163.32,292.37Zm3.14,6.22h0Z" style="fill:#263238"></path><path d="M162,295.19s-11.65,11.14-10.38,13.42,11.89,9.87,14.68,10.63,9.87-4.81,9.62-10.38S164.3,293.67,162,295.19Z" style="fill:#999"></path><path d="M166.88,319.81a2.43,2.43,0,0,1-.68-.09c-2.78-.76-13.59-8.35-15-10.87s7.67-11.35,10.47-14l.07-.06c.65-.43,1.72-.28,3.17.46,4.39,2.22,11.32,9.07,11.53,13.61.16,3.53-2.39,6.87-4.82,8.82A8.51,8.51,0,0,1,166.88,319.81Zm-4.55-24.22c-5.45,5.22-10.91,11.58-10.25,12.77,1.15,2.07,11.63,9.65,14.38,10.4,1,.27,2.8-.49,4.54-1.88,2.25-1.8,4.59-4.84,4.45-8-.18-4-6.87-10.68-11-12.76C163.29,295.52,162.6,295.45,162.33,295.59Z" style="fill:#263238"></path><path d="M201.81,313.92s3.69.21,4.38-3.2c.43-2.14-.67-4.78-5-5.65-2.29-.46-15.49-2.94-18.19-1.06s-1.43,5.92,1.62,7.2S201.81,313.92,201.81,313.92Z" style="fill:#fff"></path><path d="M202,314.42h-.25c-.58-.06-14.24-1.46-17.32-2.75a5.57,5.57,0,0,1-3.37-4.39,3.86,3.86,0,0,1,1.67-3.68c2.91-2,16,.46,18.57,1a7.21,7.21,0,0,1,4.57,2.54,4.65,4.65,0,0,1,.8,3.69A4.57,4.57,0,0,1,202,314.42Zm-.17-1c.25,0,3.28.08,3.86-2.8a3.7,3.7,0,0,0-.63-2.91,6.3,6.3,0,0,0-4-2.15c-5.22-1.05-15.66-2.63-17.8-1.14a2.84,2.84,0,0,0-1.25,2.75,4.57,4.57,0,0,0,2.77,3.58C187.73,312,201.34,313.37,201.84,313.42Z" style="fill:#263238"></path><path d="M202.07,308.34s-15.8-3.2-16.94-.86-1.32,15.4-.35,18.12,9.58,5.36,14,2S204.61,309.34,202.07,308.34Z" style="fill:#999"></path><path d="M193.35,329.67a15.4,15.4,0,0,1-4.25-.62c-2.5-.75-4.34-2-4.79-3.28-1-2.72-.9-15.93.37-18.52s13.69-.17,17.49.6l.08,0c.73.29,1.21,1.26,1.44,2.87.68,4.88-1,14.47-4.6,17.23A9.34,9.34,0,0,1,193.35,329.67Zm-4.92-22.56c-1.59,0-2.65.18-2.86.59-1,2.12-1.27,15.05-.32,17.73.34,1,2,2,4.13,2.66,2.76.81,6.6,1,9.11-.91,3.18-2.43,4.85-11.74,4.21-16.3-.18-1.32-.52-1.92-.79-2.06A78.81,78.81,0,0,0,188.43,307.11Z" style="fill:#263238"></path><path d="M151.36,318.89s1-3.55-2.13-5c-2-.9-4.81-.42-6.62,3.58-1,2.12-6.36,14.43-5.13,17.48s5.45,2.73,7.38.05S151.36,318.89,151.36,318.89Z" style="fill:#fff"></path><path d="M140.79,337.64a5.46,5.46,0,0,1-.57,0,3.87,3.87,0,0,1-3.21-2.45c-1.32-3.3,4.06-15.47,5.15-17.88a7.16,7.16,0,0,1,3.5-3.88,4.58,4.58,0,0,1,6.18,5.64v0c-.19.55-4.63,13.54-6.58,16.25A5.67,5.67,0,0,1,140.79,337.64ZM147.48,314a3.55,3.55,0,0,0-1.43.29,6.34,6.34,0,0,0-3,3.37c-2.2,4.86-6.1,14.67-5.13,17.1a2.87,2.87,0,0,0,2.41,1.83,4.59,4.59,0,0,0,4.1-1.89c1.84-2.56,6.27-15.5,6.43-16,.07-.23.82-3.17-1.86-4.39A3.81,3.81,0,0,0,147.48,314Zm3.88,4.87h0Z" style="fill:#263238"></path><path d="M146,317.38s-6.67,14.67-4.65,16.31,14.71,4.75,17.58,4.42,8.69-9,5.08-13.21C161,321.39,147.53,315.12,146,317.38Z" style="fill:#999"></path><path d="M158.46,338.63c-3.62,0-15.32-2.83-17.44-4.55s2.91-13.38,4.51-16.91l0-.07a1.87,1.87,0,0,1,1.56-.69c4.09-.2,14.64,5.1,17.24,8.17,1.51,1.77,1.67,4.42.47,7.47-1.32,3.34-4,6.34-5.87,6.56Zm-12-21c-3.13,6.87-5.83,14.8-4.77,15.66,1.83,1.5,14.37,4.66,17.21,4.31,1.31-.15,3.8-2.77,5-5.93.62-1.56,1.39-4.46-.3-6.46-2.57-3-13-8-16.43-7.81A1.08,1.08,0,0,0,146.42,317.64Z" style="fill:#263238"></path><path d="M147,351.28a2.87,2.87,0,0,0-3.37-1.54c-1.41.46-2.61,2-1.69,4.84.48,1.52,3.4,10.2,5.42,11.18s4-1.13,3.74-3.36S147,351.28,147,351.28Z" style="fill:#fff"></path><path d="M148.4,366.5a2.82,2.82,0,0,1-1.25-.29c-2.23-1.09-5.12-9.75-5.68-11.47-1-3.22.44-5,2-5.47a3.3,3.3,0,0,1,4,1.79v0c.16.37,3.88,9,4.14,11.26a3.93,3.93,0,0,1-1.55,3.62A2.86,2.86,0,0,1,148.4,366.5Zm-3.89-16.4a2.35,2.35,0,0,0-.71.12c-1.2.39-2.19,1.7-1.38,4.21,1.29,4,3.73,10.18,5.17,10.88a1.78,1.78,0,0,0,1.89-.17,2.93,2.93,0,0,0,1.14-2.69c-.24-2.1-3.9-10.57-4.07-11A2.49,2.49,0,0,0,144.51,350.1Z" style="fill:#263238"></path><path d="M143.6,353s3.36,10.46,5.13,10.36,9.6-4.35,10.9-5.84.27-8.5-3.5-9C153,348.12,143.35,351.14,143.6,353Z" style="fill:#999"></path><path d="M148.72,363.85c-1.95,0-4.56-7.48-5.59-10.71a.29.29,0,0,1,0-.09,1.43,1.43,0,0,1,.51-1.19c2-2,9.83-4.19,12.58-3.83,1.63.21,3,1.5,3.79,3.65.9,2.38.9,5.14,0,6.16-1.3,1.49-9.26,5.9-11.24,6Zm-4.62-11c1.71,5.31,3.82,9.86,4.61,10,1.59-.09,9.27-4.22,10.54-5.67.57-.64.6-3-.2-5.15-.39-1-1.3-2.79-3-3-2.66-.36-10.11,1.91-11.74,3.54A.83.83,0,0,0,144.1,352.9Z" style="fill:#263238"></path><path d="M143.15,339s-.08-3-2.91-3.37c-1.77-.2-3.86.87-4.28,4.45-.22,1.9-1.38,12.85.34,14.93s4.94.78,5.78-1.8S143.15,339,143.15,339Z" style="fill:#fff"></path><path d="M138.45,356.54a3.24,3.24,0,0,1-2.54-1.22c-1.87-2.27-.7-13.15-.45-15.31.47-4,2.9-5.11,4.84-4.88a3.87,3.87,0,0,1,3.35,3.84v0c0,.48-.24,11.74-1.1,14.36a4.66,4.66,0,0,1-3.43,3.11A3.91,3.91,0,0,1,138.45,356.54Zm1.37-20.44c-1.46,0-3,1-3.36,4-.51,4.33-1.12,12.94.22,14.57a2.26,2.26,0,0,0,2.25.8,3.65,3.65,0,0,0,2.67-2.44c.8-2.44,1-13.6,1.05-14.06a2.93,2.93,0,0,0-2.47-2.87Z" style="fill:#263238"></path><path d="M138.57,339.15s-1.56,13.12.42,13.9,12.68,0,14.84-.93,4.56-9.16.68-11.58C151.31,338.54,139.22,337,138.57,339.15Z" style="fill:#999"></path><path d="M142.58,353.88a13.17,13.17,0,0,1-3.77-.36c-2.12-.83-1.22-10.37-.74-14.43,0,0,0-.06,0-.09a1.64,1.64,0,0,1,1.1-1c3.15-1.18,12.78.34,15.59,2.09,1.64,1,2.45,3.09,2.27,5.8-.2,3-1.58,6-3,6.67S146.67,353.88,142.58,353.88Zm-3.52-14.61c-.82,6.88-.76,13,.12,13.32,1.79.7,12.33,0,14.45-.92,1-.44,2.23-3.08,2.42-5.83.09-1.34,0-3.77-1.8-4.88-2.75-1.71-12.09-3-14.7-2C139.25,339.07,139.1,339.18,139.06,339.27Z" style="fill:#263238"></path><path d="M273.75,267.11l-25-11.21-12,5.21s-16.68,13.56-17.46,17.47c-.48,2.37,9.73,24.86,17.81,42.14l8.76,19.47a42.59,42.59,0,0,0,15.61,18.21l5.94,3.86L247,314.58l9-11.77,19.55,2.35,4.16,10.29a30.75,30.75,0,0,1,6,.46C282.65,306,273.75,276.58,273.75,267.11Z" style="fill:#C7D2CB"></path><path d="M267.41,362.76a.57.57,0,0,1-.28-.08l-5.93-3.86a42.88,42.88,0,0,1-15.79-18.43l-8.77-19.47c-12.24-26.17-18.24-40.45-17.84-42.44.79-4,15.91-16.35,17.63-17.75a.37.37,0,0,1,.12-.07l12-5.22a.51.51,0,0,1,.4,0l25,11.2a.51.51,0,0,1,.3.46c0,9.48,9.15,39.64,12,48.65a.52.52,0,0,1-.1.48.5.5,0,0,1-.46.16,30.9,30.9,0,0,0-5.91-.45.52.52,0,0,1-.48-.31l-4-10-19-2.28-8.66,11.31,20.27,47.41a.51.51,0,0,1-.14.58A.49.49,0,0,1,267.41,362.76ZM237,261.55c-4.64,3.77-16.62,14.07-17.23,17.12-.16.81,1.25,6.5,17.77,41.83L246.32,340a41.94,41.94,0,0,0,15.43,18l4.55,3-19.74-46.17a.51.51,0,0,1,.07-.5l9-11.76a.46.46,0,0,1,.45-.19l19.55,2.34a.49.49,0,0,1,.4.31l4,10a30,30,0,0,1,4.95.34c-3.68-11.88-11.58-38.39-11.76-47.86l-24.53-11Z" style="fill:#263238"></path><path d="M256,303.31a.5.5,0,0,1-.47-.34c-.1-.28-9.66-28.68-8.89-44.75a.52.52,0,0,1,.53-.47.49.49,0,0,1,.47.52c-.77,15.88,8.74,44.1,8.84,44.38a.5.5,0,0,1-.32.64Z" style="fill:#263238"></path><path d="M224.76,293.93a.48.48,0,0,1-.39-.19.5.5,0,0,1,.08-.7l24-19a.51.51,0,0,1,.48-.07l27.62,9.9a.5.5,0,0,1-.34.94L248.83,275l-23.76,18.85A.45.45,0,0,1,224.76,293.93Z" style="fill:#263238"></path><path d="M232.32,310.61a.46.46,0,0,1-.36-.16.49.49,0,0,1,0-.7l20.33-19.29a.51.51,0,0,1,.47-.12l28.15,7.3a.5.5,0,1,1-.25,1l-27.88-7.23-20.13,19.09A.49.49,0,0,1,232.32,310.61Z" style="fill:#263238"></path><circle cx="246.65" cy="242.87" r="25.54" style="fill:#263238"></circle><path d="M246.65,268.91a26,26,0,1,1,26-26A26.07,26.07,0,0,1,246.65,268.91Zm0-51.08a25,25,0,1,0,25,25A25.08,25.08,0,0,0,246.65,217.83Z" style="fill:#263238"></path><circle cx="246.65" cy="242.87" r="13.42" transform="translate(-32.46 447.62) rotate(-80.82)" style="fill:#C7D2CB"></circle><path d="M246.65,256.8a13.93,13.93,0,1,1,13.93-13.93A13.94,13.94,0,0,1,246.65,256.8Zm0-26.85a12.93,12.93,0,1,0,12.93,12.92A12.94,12.94,0,0,0,246.65,230Z" style="fill:#263238"></path><path d="M267,247.82h4.73a25.76,25.76,0,0,0,0-9.9H267Z" style="fill:#fff"></path><path d="M271.71,248.32H267a.5.5,0,0,1-.5-.5v-9.9a.5.5,0,0,1,.5-.5h4.73a.5.5,0,0,1,.49.4,26.27,26.27,0,0,1,0,10.1A.49.49,0,0,1,271.71,248.32Zm-4.23-1h3.81a25,25,0,0,0,0-8.9h-3.81Z" style="fill:#263238"></path><path d="M221.6,247.82h4.46v-9.9H221.6a25.25,25.25,0,0,0,0,9.9Z" style="fill:#fff"></path><path d="M226.06,248.32H221.6a.49.49,0,0,1-.49-.4,25.75,25.75,0,0,1,0-10.1.49.49,0,0,1,.49-.4h4.46a.5.5,0,0,1,.5.5v9.9A.5.5,0,0,1,226.06,248.32Zm-4.05-1h3.55v-8.9H222a25,25,0,0,0,0,8.9Z" style="fill:#263238"></path><path d="M379.47,215.51a2,2,0,0,1-.71-3.87c.08,0,9-3.6,11-12.12,2.16-9.13-1-23.47-1-23.61a2,2,0,1,1,3.91-.87c.14.62,3.39,15.37,1,25.4-2.51,10.6-13,14.76-13.48,14.93A2,2,0,0,1,379.47,215.51Z" style="fill:#263238"></path><path d="M380.75,207.85A2,2,0,0,1,379,205c1.66-3.31,5-4.11,8.17-4.88,3.63-.87,7.06-1.69,9.2-5.86,3.39-6.59-1.62-19.53-3.84-24a2,2,0,0,1,3.58-1.79c.36.73,8.82,17.87,3.81,27.59-3,5.8-7.88,7-11.82,7.92-3,.72-4.73,1.21-5.52,2.78A2,2,0,0,1,380.75,207.85Z" style="fill:#263238"></path><ellipse cx="371.05" cy="243.63" rx="13.78" ry="16.08" transform="matrix(0.82, -0.57, 0.57, 0.82, -72.72, 253.74)" style="fill:#263238"></ellipse><path d="M371.31,255.68H371a9.5,9.5,0,0,1-9.22-9.77l2.3-79.38a9.5,9.5,0,0,1,19,.55l-2.3,79.38A9.5,9.5,0,0,1,371.31,255.68Z" style="fill:#263238"></path><path d="M354.19,114l.33,52.92c-.21,7.55,9.29,13.94,21.21,14.27s21.75-5.53,22-13.08l5.6-52.76Z" style="fill:#C7D2CB"></path><path d="M376.67,181.71h-1c-12.17-.34-21.91-7-21.69-14.78L353.69,114a.48.48,0,0,1,.15-.36.5.5,0,0,1,.36-.14l49.1,1.35a.53.53,0,0,1,.37.17.53.53,0,0,1,.12.38l-5.6,52.76C398,175.74,388.42,181.71,376.67,181.71Zm-22-67.19.33,52.41c-.2,7.28,9.09,13.45,20.72,13.77s21.25-5.33,21.45-12.59l5.54-52.27Z" style="fill:#263238"></path><path d="M346.38,75.58l.69,72.59c-.25,10.35,12.8,19.07,29.15,19.47s29.81-7.68,30.06-18l7.44-72.38Z" style="fill:#C7D2CB"></path><path d="M377.36,168.15h-1.15c-16.61-.4-29.9-9.37-29.64-20l-.69-72.56a.51.51,0,0,1,.15-.37.51.51,0,0,1,.36-.14l67.34,1.64a.48.48,0,0,1,.37.17.51.51,0,0,1,.12.38l-7.45,72.38C406.53,160,393.44,168.15,377.36,168.15ZM346.88,76.09l.69,72.07c-.25,10.08,12.61,18.59,28.66,19s29.3-7.48,29.55-17.55l7.39-71.89Z" style="fill:#263238"></path><ellipse cx="380.05" cy="76.4" rx="21.34" ry="33.68" transform="translate(294.45 454.48) rotate(-88.61)" style="fill:#fff"></ellipse><path d="M380.83,98.25l-1.31,0c-9.09-.22-17.59-2.67-23.93-6.91s-9.86-9.88-9.71-15.75,3.86-11.3,10.47-15.26,15.16-6,24.23-5.74,17.58,2.67,23.92,6.91,9.87,9.87,9.72,15.75C413.94,89,399.08,98.25,380.83,98.25Zm-1.59-42.7c-8.41,0-16.31,2-22.38,5.62-6.3,3.78-9.85,8.9-10,14.42s3.16,10.81,9.27,14.9,14.49,6.52,23.39,6.74c18.31.45,33.4-8.54,33.68-20l.5,0-.5,0c.14-5.52-3.16-10.81-9.27-14.89s-14.49-6.53-23.39-6.74Z" style="fill:#263238"></path><path d="M407.38,77.06A12.49,12.49,0,0,1,404.1,85a22.3,22.3,0,0,1-7.34,5.36,33.5,33.5,0,0,1-7.89,2.57,39.94,39.94,0,0,1-7.64.8c-.53,0-1.06,0-1.6,0a40.89,40.89,0,0,1-11.26-1.83,29,29,0,0,1-10.07-5.33c-3.58-3-5.67-6.79-5.57-10.82a11,11,0,0,1,.38-2.63c1.32-5,6-9.13,12.47-11.61a39,39,0,0,1,13.48-2.41c.46,0,.94,0,1.41,0a42.25,42.25,0,0,1,8.29,1,31.76,31.76,0,0,1,12.05,5.34c3.64,2.73,6,6.18,6.47,9.92A10.58,10.58,0,0,1,407.38,77.06Z" style="fill:#fff"></path><path d="M380.55,94.22h-.93a41.27,41.27,0,0,1-11.4-1.85A29.68,29.68,0,0,1,358,86.93c-3.8-3.21-5.84-7.19-5.74-11.21a11.62,11.62,0,0,1,.39-2.75c1.33-5,6-9.35,12.78-11.95a39.64,39.64,0,0,1,13.65-2.44c.46,0,.95,0,1.43,0a43.46,43.46,0,0,1,8.39,1,32.32,32.32,0,0,1,12.24,5.43c3.88,2.91,6.19,6.46,6.66,10.26a11.09,11.09,0,0,1,.11,1.76h0a13.07,13.07,0,0,1-3.41,8.24,22.61,22.61,0,0,1-7.5,5.48,33.59,33.59,0,0,1-8,2.61,40.08,40.08,0,0,1-7.73.81Zm-1.09-34.64h-.39A38.73,38.73,0,0,0,365.75,62c-6.48,2.48-10.91,6.59-12.16,11.27a10.71,10.71,0,0,0-.36,2.51c-.1,3.77,1.77,7.37,5.39,10.43a28.42,28.42,0,0,0,9.9,5.23,40.06,40.06,0,0,0,11.12,1.81c.53,0,1.05,0,1.57,0a39,39,0,0,0,7.55-.79,32.56,32.56,0,0,0,7.78-2.53,21.65,21.65,0,0,0,7.18-5.24,11.94,11.94,0,0,0,3.16-7.6,9.41,9.41,0,0,0-.1-1.61c-.44-3.53-2.61-6.84-6.27-9.59a31.3,31.3,0,0,0-11.86-5.25,42.27,42.27,0,0,0-8.19-1Zm27.92,17.48h0Z" style="fill:#263238"></path><path d="M403.7,108.46a3.49,3.49,0,0,0-3.81,3.16L395,163.89a24.14,24.14,0,0,0,7.54-5.49l4.33-46.13A3.49,3.49,0,0,0,403.7,108.46Z" style="fill:#263238"></path><path d="M359.68,164l.81-52.76a3.5,3.5,0,0,0-3.44-3.55H357a3.5,3.5,0,0,0-3.5,3.45l-.74,48.45A28.26,28.26,0,0,0,359.68,164Z" style="fill:#263238"></path><path d="M380.85,167.52l2.26-51.65a3.5,3.5,0,0,0-7-.31l-2.28,52c.78,0,1.57.1,2.38.12A44.3,44.3,0,0,0,380.85,167.52Z" style="fill:#263238"></path><path d="M379.93,81.21a.48.48,0,0,1-.4-.2L365.18,61.79a.47.47,0,0,1-.08-.44.49.49,0,0,1,.3-.33,39.64,39.64,0,0,1,13.65-2.44.5.5,0,0,1,.51.48l.87,21.63a.5.5,0,0,1-.34.49A.45.45,0,0,1,379.93,81.21ZM366.38,61.73l13,17.39-.78-19.53A38.77,38.77,0,0,0,366.38,61.73Z" style="fill:#263238"></path><path d="M379.93,81.21h-.09a.5.5,0,0,1-.41-.47l-.87-21.63a.5.5,0,0,1,.49-.52c.46,0,.95,0,1.43,0a43.46,43.46,0,0,1,8.39,1,.51.51,0,0,1,.35.69l-8.83,20.6A.52.52,0,0,1,379.93,81.21Zm-.35-21.63.76,18.9,7.72-18a41.84,41.84,0,0,0-7.6-.88Z" style="fill:#263238"></path><path d="M379.93,81.21a.51.51,0,0,1-.31-.11.5.5,0,0,1-.15-.59l8.83-20.6a.5.5,0,0,1,.57-.29,32.32,32.32,0,0,1,12.24,5.43.54.54,0,0,1,.2.41.48.48,0,0,1-.21.39L380.22,81.11A.46.46,0,0,1,379.93,81.21Zm9.12-20.52-7.94,18.54L400,65.45A31.6,31.6,0,0,0,389.05,60.69Z" style="fill:#263238"></path><path d="M379.93,81.21a.49.49,0,0,1-.46-.3.5.5,0,0,1,.16-.6l20.88-15.26a.51.51,0,0,1,.6,0c3.88,2.91,6.19,6.46,6.66,10.26a.49.49,0,0,1-.4.55L380,81.2ZM400.8,66.07,382,79.79,406.71,75C406.16,71.72,404.13,68.65,400.8,66.07Z" style="fill:#263238"></path><path d="M404.1,85.48H404L379.84,81.2a.5.5,0,0,1,0-1l27.35-5.34a.49.49,0,0,1,.59.42,11.29,11.29,0,0,1,.11,1.77h0a13.07,13.07,0,0,1-3.41,8.24A.48.48,0,0,1,404.1,85.48Zm-21.44-4.79,21.24,3.75a11.87,11.87,0,0,0,3-7.39c0-.38,0-.73,0-1.09Zm24.72-3.63h0Z" style="fill:#263238"></path><path d="M396.76,90.84a.45.45,0,0,1-.25-.07l-16.83-9.63a.49.49,0,0,1-.22-.6.48.48,0,0,1,.55-.32l24.17,4.27a.49.49,0,0,1,.39.32.51.51,0,0,1-.1.5,22.61,22.61,0,0,1-7.5,5.48A.54.54,0,0,1,396.76,90.84ZM382.67,81.7l14.11,8.08a22.18,22.18,0,0,0,6.33-4.47Z" style="fill:#263238"></path><path d="M388.87,93.41a.51.51,0,0,1-.41-.2L379.52,81a.51.51,0,0,1,0-.63.49.49,0,0,1,.62-.1L397,89.91a.5.5,0,0,1,.25.45.5.5,0,0,1-.29.43,33.59,33.59,0,0,1-8,2.61Zm-7.15-11.1,7.36,10a33.71,33.71,0,0,0,6.58-2.07Z" style="fill:#263238"></path><path d="M381.23,94.21a.5.5,0,0,1-.5-.45l-1.3-13a.51.51,0,0,1,.32-.52.49.49,0,0,1,.58.18l8.94,12.2a.5.5,0,0,1-.3.78,40.27,40.27,0,0,1-7.74.81Zm-.62-11.73,1.07,10.72a39.12,39.12,0,0,0,6.32-.63Z" style="fill:#263238"></path><path d="M380.55,94.22h-.93a41.27,41.27,0,0,1-11.4-1.85.51.51,0,0,1-.34-.36.5.5,0,0,1,.14-.48l11.56-11.17a.5.5,0,0,1,.52-.11.49.49,0,0,1,.32.42l1.3,13a.47.47,0,0,1-.12.38.49.49,0,0,1-.35.17Zm-11.22-2.57a40.38,40.38,0,0,0,10.31,1.56c.35,0,.69,0,1,0l-1.14-11.43Z" style="fill:#263238"></path><path d="M368.37,92.38l-.15,0A29.68,29.68,0,0,1,358,86.93a.5.5,0,0,1,.2-.86l21.63-5.84a.5.5,0,0,1,.47.84L368.71,92.24A.49.49,0,0,1,368.37,92.38Zm-9-5.6a29.34,29.34,0,0,0,8.86,4.53l9.95-9.61Z" style="fill:#263238"></path><path d="M358.3,87.05a.52.52,0,0,1-.33-.12c-3.8-3.21-5.84-7.19-5.74-11.21a11.62,11.62,0,0,1,.39-2.75.48.48,0,0,1,.24-.3.46.46,0,0,1,.38,0l26.82,7.61a.5.5,0,0,1,0,1L358.43,87Zm-4.83-13.33a9.86,9.86,0,0,0-.24,2c-.1,3.7,1.7,7.24,5.19,10.26l19.63-5.3Z" style="fill:#263238"></path><path d="M379.93,81.21l-.14,0L353,73.58a.5.5,0,0,1-.35-.61c1.33-5,6-9.35,12.78-11.95a.5.5,0,0,1,.58.17l14.35,19.22a.5.5,0,0,1,0,.58A.5.5,0,0,1,379.93,81.21Zm-26.2-8.45,24.91,7.07L365.4,62.09C359.33,64.5,355.11,68.36,353.73,72.76Z" style="fill:#263238"></path><ellipse cx="379.93" cy="80.71" rx="12.19" ry="19.24" transform="translate(290.02 458.56) rotate(-88.61)" style="fill:#C7D2CB"></ellipse><path d="M380.38,93.4h-.76c-10.88-.26-19.6-6.17-19.43-13.16S369.35,67.77,380.24,68s19.59,6.17,19.42,13.17h0C399.5,88,390.91,93.4,380.38,93.4ZM379.47,69c-10,0-18.12,4.95-18.28,11.24-.15,6.45,8.12,11.89,18.45,12.14s18.87-4.78,19-11.23h0c.16-6.44-8.12-11.89-18.45-12.14Zm19.69,12.16h0Z" style="fill:#263238"></path></g></svg>