<svg xmlns="http://www.w3.org/2000/svg" viewBox="0 0 500 500"><g id="freepik--background-simple--inject-15"><path d="M468.32,247.39c-4.74,40.2-23.1,86.94-59.76,108.41-55.38,32.45-50.75,82.36-158.86,104.05a222.06,222.06,0,0,1-47.94,4.53,184,184,0,0,1-23.52-1.92c-68.71-10-115-57.8-131.92-115.45C24,271.19,68.57,221.55,98.12,191.64s51.19-123.1,157.3-145.27a215.74,215.74,0,0,1,49.27-4.68c37.75.93,78.93,13.33,107.43,39.2q3.21,2.92,6.25,6C458,127.58,474.8,192.58,468.32,247.39Z" style="fill:#C8D2CC"></path><path d="M468.32,247.39c-4.74,40.2-23.1,86.94-59.76,108.41-55.38,32.45-50.75,82.36-158.86,104.05a222.06,222.06,0,0,1-47.94,4.53,184,184,0,0,1-23.52-1.92c-68.71-10-115-57.8-131.92-115.45C24,271.19,68.57,221.55,98.12,191.64s51.19-123.1,157.3-145.27a215.74,215.74,0,0,1,49.27-4.68c37.75.93,78.93,13.33,107.43,39.2q3.21,2.92,6.25,6C458,127.58,474.8,192.58,468.32,247.39Z" style="fill:#fff;opacity:0.7000000000000001"></path></g><g id="freepik--Floor--inject-15"><rect x="29.89" y="428.75" width="20.47" height="1" style="fill:#263238"></rect><rect x="61.45" y="428.75" width="428.92" height="1" style="fill:#263238"></rect></g><g id="freepik--Graphics--inject-15"><g style="opacity:0.30000000000000004"><path d="M167.54,250.14l-.14,0a92.94,92.94,0,0,1-11-175,.5.5,0,1,1,.39.92,91.94,91.94,0,0,0,10.85,173.17.5.5,0,0,1,.35.61A.49.49,0,0,1,167.54,250.14Z"></path><path d="M192.6,253.58a93.44,93.44,0,0,1-19.34-2,.49.49,0,0,1-.38-.59.51.51,0,0,1,.59-.39,92.78,92.78,0,0,0,27.58,1.61.5.5,0,0,1,.54.46.49.49,0,0,1-.45.54C198.32,253.45,195.44,253.58,192.6,253.58Z"></path><path d="M190,273a.5.5,0,0,1-.5-.5V160.82l-28.92-43.31a.49.49,0,0,1,.14-.69.5.5,0,0,1,.69.14l29,43.43a.57.57,0,0,1,.08.28V272.53A.5.5,0,0,1,190,273Z"></path><path d="M158.61,114.19a.5.5,0,0,1-.42-.22L118.11,54a.5.5,0,1,1,.83-.55l40.08,60a.49.49,0,0,1-.14.69A.45.45,0,0,1,158.61,114.19Z"></path></g><g style="opacity:0.30000000000000004"><path d="M363,226.09a65.3,65.3,0,1,1,37.7-118.61,65.72,65.72,0,0,1,11.94,10.91h0A65.29,65.29,0,0,1,363,226.09ZM363,96.5A64.31,64.31,0,1,0,411.88,119h0a64.41,64.41,0,0,0-11.76-10.74,63.47,63.47,0,0,0-25.83-10.81A65.1,65.1,0,0,0,363,96.5Zm0,124.17a59.88,59.88,0,0,1,0-119.76,60.42,60.42,0,0,1,10.52.92,59.9,59.9,0,0,1,35,20.08,59.88,59.88,0,0,1-16.46,91.24.5.5,0,0,1-.68-.19.51.51,0,0,1,.2-.68,58.88,58.88,0,0,0,16.18-89.72,58.9,58.9,0,0,0-34.43-19.75,59,59,0,0,0-69.22,58A58.92,58.92,0,0,0,383.51,216a.5.5,0,1,1,.34.94A59.56,59.56,0,0,1,363,220.67Z"></path><path d="M363,226.09a65.3,65.3,0,1,1,37.7-118.61,65.72,65.72,0,0,1,11.94,10.91h0A65.29,65.29,0,0,1,363,226.09ZM363,96.5A64.31,64.31,0,1,0,411.88,119h0a64.41,64.41,0,0,0-11.76-10.74,63.47,63.47,0,0,0-25.83-10.81A65.1,65.1,0,0,0,363,96.5Z"></path><path d="M411.05,99.91c-1.07-.84-2.16-1.65-3.27-2.44a77,77,0,0,0-31.16-13,77.64,77.64,0,0,0-91.18,76.36A77.56,77.56,0,1,0,422,110.42c-1-1.18-2.07-2.34-3.15-3.46M363,225.59a64.79,64.79,0,1,1,64.79-64.8A64.55,64.55,0,0,1,363,225.59Z" style="fill:none;stroke:#000;stroke-linecap:round;stroke-linejoin:round"></path><path d="M327.92,92.1a.5.5,0,0,1-.44-.27.49.49,0,0,1,.22-.67,77,77,0,0,1,34.8-8.42V75.85A84.82,84.82,0,0,0,319.25,88a.5.5,0,0,1-.69-.17.51.51,0,0,1,.17-.69A85.85,85.85,0,0,1,363,74.85a.5.5,0,0,1,.5.5v7.89a.5.5,0,0,1-.5.5,76.18,76.18,0,0,0-34.85,8.31A.59.59,0,0,1,327.92,92.1Z"></path><path d="M292.68,209.83a.5.5,0,0,1-.41-.22,85.95,85.95,0,0,1,20-118.22.5.5,0,0,1,.7.1.51.51,0,0,1-.11.7,85,85,0,0,0-20.09,116.44l5.66-3.91A78.08,78.08,0,0,1,319.48,96a.5.5,0,0,1,.69.14.49.49,0,0,1-.13.69,77.07,77.07,0,0,0-20.46,107.76.49.49,0,0,1,.08.37.47.47,0,0,1-.21.32L293,209.74A.52.52,0,0,1,292.68,209.83Z"></path><path d="M309.67,198.1a.51.51,0,0,1-.41-.21A65.3,65.3,0,0,1,363,95.5a.5.5,0,0,1,.5.5v5.41a.5.5,0,0,1-.5.5,58.87,58.87,0,0,0-48.45,92.33.54.54,0,0,1,.08.37.56.56,0,0,1-.21.33L310,198A.6.6,0,0,1,309.67,198.1ZM362.5,96.51a64.29,64.29,0,0,0-52.7,100.4l3.64-2.51a59.88,59.88,0,0,1,49.06-93.49Z"></path><path d="M397.29,112.81a.48.48,0,0,1-.29-.09,58.21,58.21,0,0,0-23.66-9.91.48.48,0,0,1-.32-.2.47.47,0,0,1-.08-.38l.95-5.32a.49.49,0,0,1,.58-.4,64.65,64.65,0,0,1,26.23,11,.5.5,0,0,1,.12.7l-3.13,4.42a.46.46,0,0,1-.32.2ZM374,101.92a59.13,59.13,0,0,1,23.16,9.7l2.54-3.61a63.5,63.5,0,0,0-24.93-10.43Z"></path><path d="M407.78,98a.52.52,0,0,1-.29-.09,76.12,76.12,0,0,0-30.95-13,.49.49,0,0,1-.33-.21.52.52,0,0,1-.08-.37l1.38-7.75a.5.5,0,0,1,.58-.41,85,85,0,0,1,34.53,14.45.5.5,0,0,1,.12.7l-4.55,6.43a.48.48,0,0,1-.32.2ZM377.2,84a77.14,77.14,0,0,1,30.46,12.75l4-5.61a83.91,83.91,0,0,0-33.23-13.91Z"></path><path d="M367.16,246.63a.5.5,0,0,1-.5-.47.5.5,0,0,1,.48-.52A84.94,84.94,0,0,0,427.9,106l-5.23,4.47A78.06,78.06,0,0,1,318.59,225l-4,5.63a84.77,84.77,0,0,0,43.13,15,.49.49,0,0,1,.47.52.51.51,0,0,1-.53.47,85.56,85.56,0,0,1-44.05-15.42.49.49,0,0,1-.12-.69l4.52-6.45a.52.52,0,0,1,.33-.21.54.54,0,0,1,.37.08A77.06,77.06,0,0,0,421.59,110.75a.49.49,0,0,1-.12-.37.51.51,0,0,1,.17-.34l6-5.11a.51.51,0,0,1,.71,0,85.94,85.94,0,0,1-61.15,141.65Z"></path></g><g style="opacity:0.30000000000000004"><path d="M138.48,390.77a48.06,48.06,0,0,1-31.22-84.64h0a48.08,48.08,0,1,1,31.22,84.64Zm0-95.16a47,47,0,0,0-30.57,11.28h0A47.6,47.6,0,0,0,100,315.5a46.49,46.49,0,0,0-7.91,18.92,47.09,47.09,0,1,0,46.35-38.81Zm-30.9,10.9h0Zm30.9,80.28a44.18,44.18,0,0,1-43.43-51.85,44.13,44.13,0,0,1,14.79-25.79,44.1,44.1,0,1,1,28.64,77.64Zm0-87.21a43.16,43.16,0,0,0-35.19,18.21A42.46,42.46,0,0,0,96,335.11a43.16,43.16,0,0,0,42.44,50.68,43.11,43.11,0,1,0,0-86.21Z"></path><path d="M138.48,390.77a48.06,48.06,0,0,1-31.22-84.64h0a48.08,48.08,0,1,1,31.22,84.64Zm0-95.16a47,47,0,0,0-30.57,11.28h0A47.6,47.6,0,0,0,100,315.5a46.49,46.49,0,0,0-7.91,18.92,47.09,47.09,0,1,0,46.35-38.81Zm-30.9,10.9h0Zm30.9,80.28a44.18,44.18,0,0,1-43.43-51.85,44.13,44.13,0,0,1,14.79-25.79,44.1,44.1,0,1,1,28.64,77.64Zm0-87.21a43.16,43.16,0,0,0-35.19,18.21A42.46,42.46,0,0,0,96,335.11a43.16,43.16,0,0,0,42.44,50.68,43.11,43.11,0,1,0,0-86.21Z"></path><path d="M101.49,299.38A57.39,57.39,0,0,0,92,309.8a56.6,56.6,0,0,0-9.58,22.88,57.84,57.84,0,0,0-.87,10,57,57,0,0,0,89.31,46.88,57.56,57.56,0,0,0,14.28-14.17,57,57,0,0,0-83.63-76Zm84.58,43.3a47.59,47.59,0,1,1-86.44-27.47,47.94,47.94,0,0,1,8-8.7,47.59,47.59,0,0,1,78.49,36.17Z" style="fill:none;stroke:#000;stroke-linecap:round;stroke-linejoin:round"></path><path d="M138.48,405.93a63.31,63.31,0,0,1-63.24-63.25.5.5,0,0,1,.5-.5h5.79a.51.51,0,0,1,.5.5,56.45,56.45,0,0,0,88.52,46.47.51.51,0,0,1,.38-.08.49.49,0,0,1,.32.21l3.29,4.76a.5.5,0,0,1-.13.69A62.85,62.85,0,0,1,138.48,405.93ZM76.24,343.18a62.24,62.24,0,0,0,97.19,51l-2.72-3.94A57.45,57.45,0,0,1,81,343.18Z"></path><path d="M138.48,386.79a44.18,44.18,0,0,1-43.43-51.85,44.13,44.13,0,0,1,14.79-25.79,44.1,44.1,0,1,1,28.64,77.64Zm0-87.21a43.16,43.16,0,0,0-35.19,18.21A42.46,42.46,0,0,0,96,335.11a43.16,43.16,0,0,0,42.44,50.68,43.11,43.11,0,1,0,0-86.21Z"></path><path d="M138.48,390.77A48.14,48.14,0,0,1,90.4,342.68a.51.51,0,0,1,.5-.5h4a.51.51,0,0,1,.5.5A43.1,43.1,0,0,0,163,378.16a.49.49,0,0,1,.37-.08.52.52,0,0,1,.33.21l2.26,3.27a.51.51,0,0,1-.13.7A47.77,47.77,0,0,1,138.48,390.77ZM91.41,343.18a47.08,47.08,0,0,0,73.41,38.54l-1.69-2.46a44.1,44.1,0,0,1-68.75-36.08Z"></path><path d="M95.54,335.53h-.08l-3.91-.7a.51.51,0,0,1-.41-.58,47.83,47.83,0,0,1,8.08-19.32.51.51,0,0,1,.7-.12l3.25,2.3a.46.46,0,0,1,.2.32.56.56,0,0,1-.08.38A42.36,42.36,0,0,0,96,335.11a.56.56,0,0,1-.21.33A.55.55,0,0,1,95.54,335.53Zm-3.32-1.61,2.92.53a43.57,43.57,0,0,1,7-16.82l-2.43-1.72A46.58,46.58,0,0,0,92.22,333.92Z"></path><path d="M82.4,333.18h-.08l-5.7-1a.5.5,0,0,1-.4-.58,62.34,62.34,0,0,1,10.63-25.41.5.5,0,0,1,.7-.12l4.72,3.34a.48.48,0,0,1,.2.32.55.55,0,0,1-.08.38,55.54,55.54,0,0,0-9.49,22.68.54.54,0,0,1-.21.32A.48.48,0,0,1,82.4,333.18Zm-5.11-1.92,4.71.84a56.73,56.73,0,0,1,9.28-22.18l-3.9-2.77A61.44,61.44,0,0,0,77.29,331.26Z"></path><path d="M177.44,370.51a.52.52,0,0,1-.29-.09l-3.26-2.29a.46.46,0,0,1-.2-.32.54.54,0,0,1,.08-.37,43.1,43.1,0,0,0-63.28-57.53.48.48,0,0,1-.36.12.46.46,0,0,1-.34-.18l-2.59-3a.49.49,0,0,1,.06-.7,48.08,48.08,0,0,1,70.59,64.17A.49.49,0,0,1,177.44,370.51Zm-2.56-2.91,2.44,1.72a47.08,47.08,0,0,0-69-62.75l1.93,2.26a44.1,44.1,0,0,1,64.66,58.77Z"></path><path d="M189.85,379.21a.45.45,0,0,1-.29-.09l-4.73-3.32a.54.54,0,0,1-.21-.32.52.52,0,0,1,.09-.38,56.46,56.46,0,0,0-82.89-75.34.49.49,0,0,1-.37.12.51.51,0,0,1-.34-.17l-3.75-4.4a.51.51,0,0,1,0-.71A63.24,63.24,0,0,1,190.26,379,.49.49,0,0,1,189.85,379.21Zm-4-3.94,3.92,2.75a62.24,62.24,0,0,0-91.29-83l3.11,3.64a57.46,57.46,0,0,1,84.26,76.59Z"></path></g><g style="opacity:0.30000000000000004"><path d="M373.86,289.92a.5.5,0,0,1-.5-.5V255.51a.5.5,0,0,1,.5-.5H399a.5.5,0,0,1,0,1H374.36v33.41A.5.5,0,0,1,373.86,289.92Z"></path><path d="M373.86,296.54a.5.5,0,0,1-.5-.5v-2.29a.5.5,0,0,1,.5-.5.51.51,0,0,1,.5.5V296A.5.5,0,0,1,373.86,296.54Z"></path><path d="M430.6,256H411.15a.5.5,0,0,1,0-1H430.6a.5.5,0,0,1,0,1Z"></path><path d="M430.6,261.68H411.15a.5.5,0,0,1-.5-.5.5.5,0,0,1,.5-.5H430.6a.5.5,0,0,1,.5.5A.5.5,0,0,1,430.6,261.68Z"></path><path d="M430.6,267.36H411.15a.5.5,0,0,1-.5-.5.5.5,0,0,1,.5-.5H430.6a.5.5,0,0,1,.5.5A.5.5,0,0,1,430.6,267.36Z"></path></g><path d="M138.79,341.93a.49.49,0,0,1-.46-.3.5.5,0,0,1,.26-.66l7.43-3.16a.51.51,0,0,1,.66.27.49.49,0,0,1-.27.65L139,341.89A.43.43,0,0,1,138.79,341.93Z" style="opacity:0.30000000000000004"></path><path d="M150.88,336.79a.5.5,0,0,1-.2-1l85.18-36.2a.5.5,0,0,1,.66.27.49.49,0,0,1-.27.65l-85.17,36.2A.48.48,0,0,1,150.88,336.79Z" style="opacity:0.30000000000000004"></path></g><g id="freepik--robot-arm--inject-15"><path d="M310.53,238.12l-.2-4,.1,2-.11-2c.15,0,14.61-1,26.81-15.32C349.56,204.19,355,162.28,355,161.86l4,.51c-.23,1.76-5.63,43.5-18.84,59C326.8,237.13,311.19,238.09,310.53,238.12Z" style="fill:#263238"></path><path d="M307.46,256.51c-.84,0-1.68,0-2.51-.08l.28-4c20.34,1.45,45.56-17.89,52.88-40.58s-.72-54.24-.8-54.56l3.87-1c.35,1.33,8.45,32.88.73,56.8C354.25,236.86,329.28,256.51,307.46,256.51Z" style="fill:#263238"></path><path d="M310.32,249.46,309,245.68c37.55-13,24.77-73.35,24.64-74l3.9-.86a123.35,123.35,0,0,1,1.95,33.59C337.43,228,327.34,243.56,310.32,249.46Z" style="fill:#263238"></path><path d="M115.23,173.68,96,192.74,92.42,206a2.2,2.2,0,0,0,.67,2.2h0a2.18,2.18,0,0,0,3.19-.35l7.85-10.72.83,9.39a3,3,0,0,0,2.78,2.71h0a3,3,0,0,0,3.13-2.47l2.1-12.25,32.79-9.74Z" style="fill:#263238"></path><path d="M107.93,209.74h-.22a3.49,3.49,0,0,1-3.25-3.17l-.71-8.06-7.06,9.64a2.67,2.67,0,0,1-1.87,1.08,2.68,2.68,0,0,1-2.88-3.35l3.59-13.4,19.57-19.37,32.25,11.72-33.94,10.08-2,11.94A3.47,3.47,0,0,1,107.93,209.74Zm-3.42-14,.95,10.7a2.48,2.48,0,0,0,4.91.2l2.16-12.55.3-.09,31.33-9.31-28.81-10.47L96.43,193l-3.52,13.13a1.68,1.68,0,0,0,1.8,2.11,1.64,1.64,0,0,0,1.17-.68Z" style="fill:#263238"></path><rect x="190.9" y="142.25" width="35.16" height="25.31" transform="translate(-37.13 70.43) rotate(-17.63)" style="fill:#263238"></rect><path d="M195.24,172.92l-8-25.08,34.46-11,8,25.08Zm-6.72-24.43,7.37,23.17,32.55-10.34-7.37-23.18Z" style="fill:#263238"></path><polygon points="178.85 149.8 135.57 165.42 153.86 199.33 188.22 176.13 178.85 149.8" style="fill:#C8D2CC"></polygon><path d="M153.69,200.05l-18.84-34.9,44.3-16,9.67,27.16Zm-17.4-34.36L154,198.6l33.57-22.67-9.07-25.49Z" style="fill:#263238"></path><rect x="182.31" y="141.02" width="14.28" height="38.81" rx="4.09" transform="translate(-39.7 64.93) rotate(-17.63)" style="fill:#263238"></rect><path d="M191.18,180.54a4.62,4.62,0,0,1-4.37-3.21l-9.28-29.19a4.6,4.6,0,0,1,3-5.77l5.8-1.84a4.6,4.6,0,0,1,5.77,3l9.28,29.19a4.59,4.59,0,0,1-3,5.77l-5.8,1.85A4.81,4.81,0,0,1,191.18,180.54Zm-3.47-39.23a3.69,3.69,0,0,0-1.08.17l-5.81,1.85a3.58,3.58,0,0,0-2.33,4.51L187.76,177a3.59,3.59,0,0,0,1.78,2.1,3.53,3.53,0,0,0,2.74.23l5.8-1.84a3.6,3.6,0,0,0,2.34-4.51l-9.28-29.19A3.6,3.6,0,0,0,187.71,141.31Z" style="fill:#263238"></path><path d="M153.86,199.33s-4-8.72,4.64-13.6S172,187.09,172,187.09l-3.88,2.58Z" style="fill:#263238"></path><path d="M153.65,200.07l-.24-.54c0-.09-4-9.19,4.84-14.24s14.05,1.43,14.1,1.5l.33.42-4.32,2.88Zm11.2-15.71a12.34,12.34,0,0,0-6.11,1.8c-7,4-5.33,10.45-4.64,12.4L171.2,187A8.9,8.9,0,0,0,164.85,184.36Z" style="fill:#263238"></path><path d="M153.86,199.33s.39-9.21,14.22-9.66l5,26.61-13.83,1.34Z" style="fill:#C8D2CC"></path><path d="M158.85,218.16l-5.49-18.77v-.08c0-.1.58-9.68,14.71-10.14h.43l5.14,27.57Zm-4.48-18.89,5.21,17.81,12.88-1.25-4.79-25.64C155.43,190.76,154.44,198.36,154.37,199.27Z" style="fill:#263238"></path><path d="M159.22,217.62l-7.39,12.92a3.88,3.88,0,0,0,.75,4.79h0a3.87,3.87,0,0,0,5.66-.45l14.81-18.6Z" style="fill:#C8D2CC"></path><path d="M155.21,236.85a4.38,4.38,0,0,1-3.81-6.56l7.51-13.14,15.26-1.48L158.63,235.2a4.44,4.44,0,0,1-3.09,1.64Zm4.31-18.76-7.25,12.7a3.38,3.38,0,0,0,5.58,3.78l14.07-17.68Z" style="fill:#263238"></path><rect x="157.56" y="215.13" width="17.22" height="4.21" rx="1.93" transform="translate(-26.59 23.2) rotate(-7.4)" style="fill:#263238"></rect><path d="M159.57,220.7a2.44,2.44,0,0,1-2.41-2.12l0-.35a2.43,2.43,0,0,1,2.1-2.72l13.25-1.72a2.42,2.42,0,0,1,2.72,2.1l0,.34a2.45,2.45,0,0,1-2.1,2.73l-13.25,1.72Zm13.2-5.93h-.18l-13.25,1.72a1.44,1.44,0,0,0-1.24,1.6l.05.35a1.42,1.42,0,0,0,1.6,1.23L173,218a1.42,1.42,0,0,0,.95-.54,1.41,1.41,0,0,0,.29-1.06l-.05-.34A1.43,1.43,0,0,0,172.77,214.77Z" style="fill:#263238"></path><polygon points="135.57 165.42 104.64 165.11 105.39 177.52 146.77 186.55 135.57 165.42" style="fill:#C8D2CC"></polygon><path d="M147.72,187.27l-42.8-9.34-.81-13.33,31.76.32Zm-41.85-10.16,39.95,8.72-10.55-19.91-30.1-.31Z" style="fill:#263238"></path><polygon points="104.64 165.11 82.45 165.86 83.58 177.52 105.39 177.52 104.64 165.11" style="fill:#C8D2CC"></polygon><path d="M105.92,178H83.12L81.9,165.38l23.21-.79ZM84,177h20.83l-.69-11.4L83,166.34Z" style="fill:#263238"></path><path d="M82.45,165.86l-17.63,13.9a3.29,3.29,0,0,0-1,3.81h0a3.29,3.29,0,0,0,4.56,1.71l15.22-7.76Z" style="fill:#C8D2CC"></path><path d="M66.86,186.14a3.81,3.81,0,0,1-1.33-.24,3.76,3.76,0,0,1-2.19-2.14,3.82,3.82,0,0,1,1.17-4.39L82.86,164.9l1.25,12.91-15.52,7.92A3.73,3.73,0,0,1,66.86,186.14ZM82,166.82,65.13,180.15a2.81,2.81,0,0,0-.86,3.24A2.73,2.73,0,0,0,65.88,185a2.76,2.76,0,0,0,2.25-.13l14.92-7.61Z" style="fill:#263238"></path><path d="M82.18,177.23l-1.45-10.61a1.78,1.78,0,0,1,1.52-2h0a1.77,1.77,0,0,1,2,1.52l1.45,10.61a1.78,1.78,0,0,1-1.52,2h0A1.77,1.77,0,0,1,82.18,177.23Z" style="fill:#263238"></path><path d="M83.93,179.27a2.29,2.29,0,0,1-2.25-2l-1.45-10.61a2.28,2.28,0,0,1,3.64-2.12,2.25,2.25,0,0,1,.88,1.5l1.45,10.61a2.29,2.29,0,0,1-2,2.57ZM82.49,165.1h-.17a1.28,1.28,0,0,0-1.09,1.44l1.44,10.61a1.28,1.28,0,0,0,.5.85,1.31,1.31,0,0,0,.94.25,1.29,1.29,0,0,0,1.1-1.44l-1.45-10.61a1.28,1.28,0,0,0-.5-.85A1.26,1.26,0,0,0,82.49,165.1Z" style="fill:#263238"></path><path d="M104,176.11l-.1-10.7a1.78,1.78,0,0,1,1.76-1.8h0a1.78,1.78,0,0,1,1.8,1.76l.1,10.71a1.78,1.78,0,0,1-1.76,1.79h0A1.77,1.77,0,0,1,104,176.11Z" style="fill:#263238"></path><path d="M105.77,178.37a2.29,2.29,0,0,1-2.28-2.25l-.1-10.71a2.28,2.28,0,0,1,2.25-2.3,2.37,2.37,0,0,1,1.62.65,2.28,2.28,0,0,1,.69,1.61l.1,10.7a2.28,2.28,0,0,1-2.25,2.3Zm-1.28-2.26a1.28,1.28,0,0,0,2.56,0l-.1-10.7a1.28,1.28,0,0,0-.39-.9,1.26,1.26,0,0,0-.89-.37h0a1.28,1.28,0,0,0-1.26,1.29Z" style="fill:#263238"></path><polygon points="146.77 186.55 144.03 162.65 135.57 165.42 146.77 186.55" style="fill:#263238"></polygon><path d="M147.57,189.12l-12.72-24,9.61-3.15Zm-11.28-23.41L146,184l-2.36-20.66Z" style="fill:#263238"></path><polygon points="135.57 165.42 99.48 173.17 104.2 186.38 146.77 186.55 135.57 165.42" style="fill:#C8D2CC"></polygon><path d="M147.6,187.05l-43.76-.17-5-14.08,37-8Zm-43-1.17,41.39.17L135.31,166l-35.17,7.55Z" style="fill:#263238"></path><polygon points="99.48 173.17 84.15 190.86 90.23 197.13 104.2 186.38 99.48 173.17" style="fill:#C8D2CC"></polygon><path d="M90.18,197.79l-6.71-6.91,16.19-18.69,5.13,14.36Zm-5.35-6.95,5.45,5.62L103.6,186.2l-4.3-12.06Z" style="fill:#263238"></path><path d="M84.15,190.86,76.4,205.73a2.44,2.44,0,0,0,.72,3.12h0a2.46,2.46,0,0,0,3.32-.37l9.79-11.35Z" style="fill:#C8D2CC"></path><path d="M78.57,209.83A3,3,0,0,1,76,205.5L84,190l6.89,7.1L80.82,208.8A3,3,0,0,1,78.57,209.83Zm5.7-18.13L76.84,206a2,2,0,0,0,.58,2.49,2,2,0,0,0,2.65-.3l9.48-11Z" style="fill:#263238"></path><path d="M90,199.39l-8.31-6.76a1.78,1.78,0,0,1-.25-2.5h0a1.78,1.78,0,0,1,2.5-.26l8.3,6.76a1.78,1.78,0,0,1,.26,2.5h0A1.77,1.77,0,0,1,90,199.39Z" style="fill:#263238"></path><path d="M91.12,200.29a2.27,2.27,0,0,1-1.43-.51L81.39,193a2.28,2.28,0,0,1-.33-3.21,2.29,2.29,0,0,1,3.21-.32l8.3,6.76a2.28,2.28,0,0,1-1.21,4Zm-.8-1.29a1.29,1.29,0,0,0,1.8-.18,1.28,1.28,0,0,0-.18-1.8l-8.31-6.76a1.22,1.22,0,0,0-.93-.28,1.31,1.31,0,0,0-.87.47,1.27,1.27,0,0,0,.19,1.79Z" style="fill:#263238"></path><path d="M102.52,186.63l-4.19-13.06a1.77,1.77,0,0,1,1.1-2.26h0a1.79,1.79,0,0,1,2.27,1.1l4.19,13.05a1.77,1.77,0,0,1-1.1,2.26h0A1.78,1.78,0,0,1,102.52,186.63Z" style="fill:#263238"></path><path d="M104.2,188.32a2.18,2.18,0,0,1-1-.23,2.22,2.22,0,0,1-1.16-1.3h0l-4.19-13.06a2.27,2.27,0,0,1,1.41-2.88,2.28,2.28,0,0,1,2.9,1.4l4.19,13.07A2.28,2.28,0,0,1,105,188.2,2.4,2.4,0,0,1,104.2,188.32Zm-1.2-1.85a1.22,1.22,0,0,0,.65.72,1.26,1.26,0,0,0,1,.06,1.27,1.27,0,0,0,.79-1.62l-4.19-13.07a1.27,1.27,0,0,0-.65-.72,1.26,1.26,0,0,0-1-.06,1.28,1.28,0,0,0-.79,1.63Z" style="fill:#263238"></path><path d="M319.35,139.48h0a22,22,0,0,0-25.9,17.12L239.62,279.67l61.87,9.51,35-123.79A22,22,0,0,0,319.35,139.48Z" style="fill:#C8D2CC"></path><path d="M301.85,289.74l-63-9.68L293,156.45a22.45,22.45,0,0,1,44,9Zm-61.51-10.47,60.78,9.34L336,165.25A21.46,21.46,0,0,0,319.26,140h0a21.45,21.45,0,0,0-25.32,16.73l0,.1Z" style="fill:#263238"></path><path d="M288.39,244.32a5.44,5.44,0,0,1-5.14-7.26l19.63-55.72A5.44,5.44,0,1,1,313.15,185l-19.62,55.72A5.46,5.46,0,0,1,288.39,244.32Z" style="fill:#263238"></path><path d="M387.84,417.81l10-71.49c3.57-16.56-7.7-32.72-25.16-36.11h0c-17.46-3.38-34.51,7.31-38.07,23.86l-51.52,83.74Z" style="fill:#C8D2CC"></path><path d="M388.27,418.31H282.19l51.94-84.43c3.66-16.74,21-27.57,38.64-24.16a32.54,32.54,0,0,1,21.21,14,29.67,29.67,0,0,1,4.34,22.74Zm-104.29-1H387.41l9.93-71.06a28.72,28.72,0,0,0-4.19-22,31.54,31.54,0,0,0-20.57-13.52c-17.17-3.33-34,7.2-37.49,23.47l-.06.16Z" style="fill:#263238"></path><path d="M247.69,276.73h0a27.65,27.65,0,0,0,10.22,37.75l86.93,62.42,35.86-70.23L285.44,266.5A27.65,27.65,0,0,0,247.69,276.73Z" style="fill:#C8D2CC"></path><path d="M345,377.65l-.47-.34-86.93-62.42a28.17,28.17,0,0,1-10.37-38.41h0a28.16,28.16,0,0,1,38.44-10.41l95.69,40.35-.24.48ZM271.71,263.32A27.27,27.27,0,0,0,248.12,277h0a27.15,27.15,0,0,0,10,37.07l86.5,62.11L380,306.92l-94.76-40A27.18,27.18,0,0,0,271.71,263.32Z" style="fill:#263238"></path><path d="M312.35,325.32a5.42,5.42,0,0,1-3-.89L284.15,308a5.45,5.45,0,0,1,5.94-9.14l25.24,16.41a5.45,5.45,0,0,1-3,10Z" style="fill:#263238"></path><circle cx="360.97" cy="341.05" r="39.63" transform="translate(-131.73 278.92) rotate(-36.19)" style="fill:#fff"></circle><path d="M360.9,381.17A40.12,40.12,0,1,1,395.78,361,39.8,39.8,0,0,1,360.9,381.17ZM361,301.9a39.16,39.16,0,1,0,19.42,5.21A39,39,0,0,0,361,301.9Z" style="fill:#263238"></path><circle cx="361.17" cy="341.16" r="27.12" transform="translate(-125.07 239.17) rotate(-31.52)" style="fill:#fff"></circle><path d="M361.12,368.79a27.66,27.66,0,1,1,7.27-1A27.84,27.84,0,0,1,361.12,368.79Zm.09-54.24a26.58,26.58,0,1,0,13.21,3.52A26.65,26.65,0,0,0,361.21,314.55Z" style="fill:#263238"></path><rect x="348.92" y="320.88" width="1" height="27.08" transform="translate(-114.54 471.06) rotate(-60.15)" style="fill:#263238"></rect><rect x="347.42" y="324.84" width="1" height="27.08" transform="translate(-54.68 609.42) rotate(-78.15)" style="fill:#263238"></rect><rect x="334.17" y="342.11" width="27.08" height="1" transform="translate(-34.79 39.34) rotate(-6.17)" style="fill:#263238"></rect><rect x="335.27" y="346.2" width="27.08" height="1" transform="translate(-111.19 172.73) rotate(-24.11)" style="fill:#263238"></rect><rect x="337.59" y="349.74" width="27.08" height="1" transform="translate(-144.24 326.24) rotate(-42.15)" style="fill:#263238"></rect><rect x="340.89" y="352.4" width="27.08" height="1" transform="translate(-128.11 484.49) rotate(-60.13)" style="fill:#263238"></rect><rect x="344.85" y="353.91" width="27.08" height="1" transform="translate(-62 632.48) rotate(-78.16)" style="fill:#263238"></rect><rect x="362.12" y="341.08" width="1" height="27.08" transform="matrix(0.99, -0.11, 0.11, 0.99, -35.91, 40.9)" style="fill:#263238"></rect><rect x="366.21" y="339.97" width="1" height="27.08" transform="translate(-112.54 180.99) rotate(-24.15)" style="fill:#263238"></rect><rect x="369.75" y="337.66" width="1" height="27.08" transform="translate(-139.93 339.31) rotate(-42.15)" style="fill:#263238"></rect><rect x="372.41" y="334.36" width="1" height="27.08" transform="translate(-114.44 498.19) rotate(-60.15)" style="fill:#263238"></rect><rect x="373.92" y="330.4" width="1" height="27.08" transform="translate(-39.07 639.76) rotate(-78.15)" style="fill:#263238"></rect><rect x="361.09" y="339.21" width="27.08" height="1" transform="translate(-34.33 42.21) rotate(-6.17)" style="fill:#263238"></rect><rect x="359.98" y="335.12" width="27.08" height="1" transform="translate(-104.51 181.86) rotate(-24.11)" style="fill:#263238"></rect><rect x="357.67" y="331.57" width="27.08" height="1" transform="translate(-126.85 335.01) rotate(-42.15)" style="fill:#263238"></rect><rect x="354.37" y="328.92" width="27.08" height="1" transform="translate(-100.98 484.39) rotate(-60.13)" style="fill:#263238"></rect><rect x="350.41" y="327.41" width="27.08" height="1" transform="translate(-31.64 616.86) rotate(-78.16)" style="fill:#263238"></rect><rect x="359.22" y="314.16" width="1" height="27.08" transform="translate(-33.05 40.44) rotate(-6.15)" style="fill:#263238"></rect><polygon points="360.71 341.36 349.63 316.66 350.54 316.25 361.62 340.95 360.71 341.36" style="fill:#263238"></polygon><rect x="351.58" y="317.58" width="1" height="27.08" transform="translate(-131.16 321.93) rotate(-42.15)" style="fill:#263238"></rect><circle cx="360.97" cy="341.05" r="14.89" transform="translate(-63.54 598.73) rotate(-74.63)" style="fill:#263238"></circle><path d="M361,356.44a15.43,15.43,0,1,1,4-.54A15.53,15.53,0,0,1,361,356.44Zm0-29.78a14.4,14.4,0,1,0,7.14,1.91h0A14.33,14.33,0,0,0,361,326.66Z" style="fill:#263238"></path><circle cx="268.38" cy="289.04" r="30.79" transform="matrix(0.14, -0.99, 0.99, 0.14, -54.72, 515.27)" style="fill:#fff"></circle><path d="M268.33,320.34a31.35,31.35,0,1,1,8.23-1.1A31.13,31.13,0,0,1,268.33,320.34Zm.1-61.59a30.63,30.63,0,0,0-8,1.06,30.3,30.3,0,1,0,23,3h0A30.08,30.08,0,0,0,268.43,258.75Z" style="fill:#263238"></path><circle cx="268.38" cy="289.04" r="19.67" transform="translate(-46.96 525.97) rotate(-84.04)" style="fill:#fff"></circle><path d="M268.35,309.23a20.18,20.18,0,1,1,10.07-37.69h0a20.18,20.18,0,0,1-4.77,37A20.43,20.43,0,0,1,268.35,309.23Zm.06-39.36a19.17,19.17,0,1,0,9.51,2.54h0A19.08,19.08,0,0,0,268.41,269.87Z" style="fill:#263238"></path><rect x="259.36" y="274.33" width="1" height="19.65" transform="translate(-115.93 368.12) rotate(-60.15)" style="fill:#263238"></rect><rect x="258.26" y="277.2" width="1" height="19.65" transform="translate(-75.27 481.35) rotate(-78.15)" style="fill:#263238"></rect><rect x="248.79" y="289.6" width="19.64" height="1" transform="translate(-29.67 29.46) rotate(-6.17)" style="fill:#263238"></rect><rect x="249.59" y="292.56" width="19.65" height="1" transform="translate(-97.23 131.85) rotate(-24.16)" style="fill:#263238"></rect><rect x="251.27" y="295.13" width="19.64" height="1" transform="translate(-130.84 251.41) rotate(-42.11)" style="fill:#263238"></rect><rect x="253.67" y="297.06" width="19.65" height="1" transform="translate(-125.77 377.85) rotate(-60.13)" style="fill:#263238"></rect><rect x="256.54" y="298.16" width="19.65" height="1" transform="translate(-80.58 498.09) rotate(-78.16)" style="fill:#263238"></rect><rect x="268.93" y="288.99" width="1" height="19.65" transform="translate(-30.47 30.6) rotate(-6.15)" style="fill:#263238"></rect><rect x="271.9" y="288.18" width="1" height="19.65" transform="translate(-98.09 137.54) rotate(-24.15)" style="fill:#263238"></rect><rect x="274.47" y="286.5" width="1" height="19.65" transform="translate(-127.75 261.17) rotate(-42.15)" style="fill:#263238"></rect><rect x="276.4" y="284.11" width="1" height="19.65" transform="translate(-115.86 387.81) rotate(-60.15)" style="fill:#263238"></rect><rect x="277.49" y="281.24" width="1" height="19.65" transform="translate(-63.94 503.37) rotate(-78.15)" style="fill:#263238"></rect><rect x="268.32" y="287.49" width="19.64" height="1" transform="translate(-29.33 31.55) rotate(-6.17)" style="fill:#263238"></rect><rect x="267.52" y="284.52" width="19.65" height="1" transform="translate(-92.37 138.49) rotate(-24.16)" style="fill:#263238"></rect><rect x="265.84" y="281.95" width="19.64" height="1" transform="translate(-118.24 257.77) rotate(-42.11)" style="fill:#263238"></rect><rect x="263.44" y="280.02" width="19.64" height="1" transform="translate(-106.09 377.78) rotate(-60.13)" style="fill:#263238"></rect><rect x="260.57" y="278.93" width="19.65" height="1" transform="translate(-58.56 486.76) rotate(-78.16)" style="fill:#263238"></rect><rect x="266.83" y="269.46" width="1" height="19.64" transform="translate(-28.39 30.26) rotate(-6.15)" style="fill:#263238"></rect><rect x="263.86" y="270.26" width="1" height="19.64" transform="translate(-91.46 132.69) rotate(-24.15)" style="fill:#263238"></rect><rect x="261.29" y="271.94" width="1" height="19.64" transform="translate(-121.38 248.56) rotate(-42.15)" style="fill:#263238"></rect><circle cx="268.38" cy="289.04" r="11.56" transform="translate(-112.04 184.86) rotate(-31.81)" style="fill:#263238"></circle><path d="M268.36,301.1a12.06,12.06,0,1,1,6-22.52h0a12.06,12.06,0,0,1-6,22.52Zm0-23.12a11.07,11.07,0,1,0,5.48,1.47A10.92,10.92,0,0,0,268.4,278Z" style="fill:#263238"></path><path d="M284.06,132.59l-.73,7.38-15-.87.43-6.66-41-.39A20.18,20.18,0,0,0,206,150.52h0a20.18,20.18,0,0,0,18.46,21.75l40.37,5.62.91-5.89,14.77,1.57-.57,6.42,77.61,10.8,1.88-57.49Z" style="fill:#C8D2CC"></path><path d="M358,191.36l-78.63-10.94.57-6.41-13.81-1.46-.91,5.9-40.85-5.69a20.67,20.67,0,0,1,3.4-41.2l41.52.39-.44,6.68,14.05.82.73-7.37,76.28.73Zm-77.55-11.8L357,190.22l1.84-56.42-74.35-.71-.73,7.41-16-.93.43-6.63-40.5-.39a19.68,19.68,0,1,0-3.24,39.22l39.9,5.55.9-5.87L281,173.12Z" style="fill:#263238"></path><polygon points="283.33 139.97 276.37 139.57 273.48 172.83 280.45 173.57 283.33 139.97" style="fill:#263238"></polygon><path d="M280.9,174.12l-8-.85,3-34.23,8,.47ZM274,172.38l6,.64,2.79-32.58-6-.34Z" style="fill:#263238"></path><polygon points="271.34 172.49 274.22 139.5 268.3 139.1 265.69 172 271.34 172.49" style="fill:#263238"></polygon><path d="M271.79,173l-6.64-.57,2.69-33.89,6.92.47Zm-5.57-1.48,4.66.39,2.8-32-4.92-.33Z" style="fill:#263238"></path><circle cx="357.02" cy="162.11" r="28.91" transform="matrix(0.07, -1, 1, 0.07, 171.88, 507.75)" style="fill:#fff"></circle><path d="M357,191.52c-.8,0-1.61,0-2.42-.09a29.51,29.51,0,1,1,2.42.09Zm0-57.82a28.47,28.47,0,1,0,2.34.1C358.55,133.74,357.77,133.7,357,133.7Z" style="fill:#263238"></path><circle cx="357.19" cy="162.13" r="19.78" transform="translate(152.93 497.01) rotate(-83.03)" style="fill:#fff"></circle><path d="M357.2,182.41c-.55,0-1.11,0-1.67-.07a20.28,20.28,0,0,1,3.31-40.43h0a20.28,20.28,0,0,1-1.64,40.5Zm-.05-39.56A19.28,19.28,0,0,0,338,160.56a19.28,19.28,0,1,0,20.79-17.65C358.22,142.87,357.69,142.85,357.15,142.85Z" style="fill:#263238"></path><rect x="346.84" y="151.45" width="1" height="19.75" transform="translate(158.23 494.35) rotate(-85.32)" style="fill:#263238"></rect><rect x="337.7" y="163.9" width="19.75" height="1" transform="translate(-28.54 84.57) rotate(-13.33)" style="fill:#263238"></rect><rect x="338.87" y="166.76" width="19.75" height="1" transform="translate(-36.14 205.52) rotate(-31.3)" style="fill:#263238"></rect><rect x="340.87" y="169.12" width="19.75" height="1" transform="translate(-6.51 325.05) rotate(-49.32)" style="fill:#263238"></rect><rect x="343.5" y="170.74" width="19.75" height="1" transform="translate(59 431.13) rotate(-67.29)" style="fill:#263238"></rect><rect x="346.5" y="171.47" width="19.75" height="1" transform="translate(156.07 513.23) rotate(-85.35)" style="fill:#263238"></rect><rect x="358.96" y="161.86" width="1" height="19.75" transform="translate(-29.9 87.46) rotate(-13.32)" style="fill:#263238"></rect><rect x="361.82" y="160.69" width="1" height="19.75" transform="translate(-35.86 213.21) rotate(-31.32)" style="fill:#263238"></rect><rect x="364.18" y="158.69" width="1" height="19.75" transform="translate(-0.85 335.27) rotate(-49.32)" style="fill:#263238"></rect><rect x="365.8" y="156.06" width="1" height="19.75" transform="matrix(0.39, -0.92, 0.92, 0.39, 71.97, 439.94)" style="fill:#263238"></rect><rect x="366.53" y="153.06" width="1" height="19.75" transform="translate(174.71 515.46) rotate(-85.32)" style="fill:#263238"></rect><rect x="356.92" y="159.35" width="19.75" height="1" transform="translate(-26.97 88.88) rotate(-13.33)" style="fill:#263238"></rect><rect x="355.75" y="156.49" width="19.75" height="1" transform="translate(-28.35 212.79) rotate(-31.3)" style="fill:#263238"></rect><rect x="353.75" y="154.14" width="19.75" height="1" transform="translate(9.33 329.6) rotate(-49.32)" style="fill:#263238"></rect><rect x="351.12" y="152.52" width="19.75" height="1" transform="translate(80.49 426.97) rotate(-67.29)" style="fill:#263238"></rect><rect x="348.11" y="151.79" width="19.75" height="1" transform="translate(177.17 496.75) rotate(-85.35)" style="fill:#263238"></rect><rect x="354.41" y="142.64" width="1" height="19.75" transform="translate(-25.59 85.89) rotate(-13.32)" style="fill:#263238"></rect><rect x="351.55" y="143.82" width="1" height="19.75" transform="translate(-28.59 205.42) rotate(-31.32)" style="fill:#263238"></rect><rect x="349.2" y="145.82" width="1" height="19.75" transform="translate(3.69 319.42) rotate(-49.32)" style="fill:#263238"></rect><rect x="347.57" y="148.44" width="1" height="19.75" transform="translate(67.79 418.44) rotate(-67.32)" style="fill:#263238"></rect><circle cx="357.02" cy="162.11" r="10.86" transform="translate(-20.88 266.69) rotate(-39.89)" style="fill:#263238"></circle><path d="M357,173.47c-.31,0-.62,0-.94,0a11.33,11.33,0,1,1,.94,0Zm0-21.71a10.35,10.35,0,0,0-10.3,9.51,10.35,10.35,0,1,0,11.16-9.48h0C357.58,151.77,357.29,151.76,357,151.76Z" style="fill:#263238"></path><circle cx="309.73" cy="158.3" r="17.52" transform="translate(134.58 458.82) rotate(-86.84)" style="fill:#fff"></circle><path d="M309.74,176.32c-.49,0-1,0-1.48-.06a18,18,0,1,1,1.48.06Zm0-35a16.83,16.83,0,1,0,1.42.05C310.64,141.3,310.17,141.28,309.7,141.28Z" style="fill:#263238"></path><circle cx="309.83" cy="158.31" r="11.99" transform="translate(-36.19 121.87) rotate(-21.05)" style="fill:#fff"></circle><path d="M309.84,170.8c-.34,0-.69,0-1,0a12.49,12.49,0,0,1,2-24.9h0a12.49,12.49,0,0,1-1,24.94Zm0-24a11.51,11.51,0,1,0,.95,0C310.45,146.83,310.13,146.82,309.82,146.82Z" style="fill:#263238"></path><rect x="303.36" y="151.83" width="1" height="11.97" transform="translate(121.79 447.8) rotate(-85.32)" style="fill:#263238"></rect><rect x="298.02" y="159.19" width="11.97" height="1" transform="translate(-28.63 74.39) rotate(-13.33)" style="fill:#263238"></rect><rect x="298.73" y="160.92" width="11.97" height="1" transform="translate(-39.51 181.8) rotate(-31.3)" style="fill:#263238"></rect><rect x="299.94" y="162.35" width="11.97" height="1" transform="translate(-16.9 288.91) rotate(-49.36)" style="fill:#263238"></rect><rect x="301.54" y="163.33" width="11.97" height="1" transform="translate(37.77 384.38) rotate(-67.32)" style="fill:#263238"></rect><rect x="303.36" y="163.77" width="11.97" height="1" transform="translate(120.24 459.1) rotate(-85.29)" style="fill:#263238"></rect><rect x="310.71" y="158.15" width="1" height="11.97" transform="translate(-29.44 76.11) rotate(-13.32)" style="fill:#263238"></rect><rect x="312.44" y="157.44" width="1" height="11.97" transform="translate(-39.35 186.51) rotate(-31.32)" style="fill:#263238"></rect><rect x="313.87" y="156.22" width="1" height="11.97" transform="translate(-13.56 294.89) rotate(-49.32)" style="fill:#263238"></rect><rect x="314.85" y="154.63" width="1" height="11.97" transform="translate(45.58 389.67) rotate(-67.32)" style="fill:#263238"></rect><rect x="315.29" y="152.81" width="1" height="11.97" transform="translate(131.78 460.59) rotate(-85.32)" style="fill:#263238"></rect><rect x="309.67" y="156.43" width="11.97" height="1" transform="translate(-27.68 77.01) rotate(-13.33)" style="fill:#263238"></rect><rect x="308.96" y="154.7" width="11.97" height="1" transform="translate(-34.79 186.2) rotate(-31.3)" style="fill:#263238"></rect><rect x="307.74" y="153.27" width="11.97" height="1" transform="translate(-7.38 291.46) rotate(-49.32)" style="fill:#263238"></rect><rect x="306.15" y="152.29" width="11.97" height="1" transform="translate(50.71 381.76) rotate(-67.29)" style="fill:#263238"></rect><rect x="304.33" y="151.84" width="11.97" height="1" transform="translate(133.31 449.28) rotate(-85.35)" style="fill:#263238"></rect><rect x="307.95" y="146.5" width="1" height="11.97" transform="translate(-26.84 75.2) rotate(-13.33)" style="fill:#263238"></rect><rect x="306.22" y="147.21" width="1" height="11.97" transform="translate(-34.93 181.8) rotate(-31.33)" style="fill:#263238"></rect><rect x="304.79" y="148.42" width="1" height="11.97" transform="translate(-10.8 285.29) rotate(-49.32)" style="fill:#263238"></rect><rect x="303.81" y="150.01" width="1" height="11.97" transform="translate(43.05 376.64) rotate(-67.32)" style="fill:#263238"></rect><path d="M310.27,151.74a6.58,6.58,0,1,0,6,7.1A6.58,6.58,0,0,0,310.27,151.74Z" style="fill:#263238"></path><path d="M309.73,165.38l-.58,0a7.08,7.08,0,1,1,1.16-14.12h0a7.08,7.08,0,0,1-.58,14.14Zm0-13.16a6.08,6.08,0,1,0,.5,0Z" style="fill:#263238"></path><circle cx="226.83" cy="152.23" r="22.46" transform="translate(-34.75 73.47) rotate(-17.11)" style="fill:#fff"></circle><path d="M226.84,175.19c-.62,0-1.25,0-1.89-.08a22.92,22.92,0,1,1,1.89.08Zm-.05-44.92a22,22,0,1,0,1.83.08C228,130.3,227.4,130.27,226.79,130.27Z" style="fill:#263238"></path><circle cx="223.43" cy="152.23" r="22.46" transform="translate(-44.54 188.13) rotate(-41.9)" style="fill:#fff"></circle><path d="M223.45,175.19c-.63,0-1.26,0-1.89-.08a22.91,22.91,0,1,1,1.89.08Zm0-44.92a22,22,0,1,0,1.8.08C224.62,130.3,224,130.27,223.42,130.27Z" style="fill:#263238"></path><circle cx="223.43" cy="152.23" r="14.35" transform="translate(-34.87 72.38) rotate(-17.09)" style="fill:#fff"></circle><path d="M223.46,167.08c-.41,0-.83,0-1.24-.05a14.83,14.83,0,1,1,1.24.05Zm-.05-28.7a13.85,13.85,0,0,0-13.78,12.72,13.84,13.84,0,1,0,14.93-12.68h0C224.18,138.39,223.79,138.38,223.41,138.38Z" style="fill:#263238"></path><rect x="215.79" y="144.48" width="1" height="14.33" transform="translate(47.52 354.85) rotate(-85.32)" style="fill:#263238"></rect><rect x="209.3" y="153.38" width="14.33" height="1" transform="translate(-29.65 54.05) rotate(-13.33)" style="fill:#263238"></rect><rect x="210.15" y="155.45" width="14.33" height="1" transform="translate(-49.39 135.59) rotate(-31.3)" style="fill:#263238"></rect><rect x="211.6" y="157.16" width="14.33" height="1" transform="translate(-43.36 220.96) rotate(-49.36)" style="fill:#263238"></rect><rect x="213.51" y="158.34" width="14.33" height="1" transform="translate(-10.98 301.18) rotate(-67.32)" style="fill:#263238"></rect><rect x="215.68" y="158.87" width="14.33" height="1" transform="translate(45.95 368.57) rotate(-85.35)" style="fill:#263238"></rect><rect x="224.58" y="152.04" width="1" height="14.33" transform="translate(-30.63 56.16) rotate(-13.32)" style="fill:#263238"></rect><rect x="226.66" y="151.18" width="1" height="14.33" transform="translate(-49.21 141.17) rotate(-31.32)" style="fill:#263238"></rect><rect x="228.37" y="149.73" width="1" height="14.33" transform="translate(-39.3 228.21) rotate(-49.32)" style="fill:#263238"></rect><rect x="229.54" y="147.83" width="1" height="14.33" transform="translate(-1.65 307.5) rotate(-67.32)" style="fill:#263238"></rect><rect x="230.07" y="145.65" width="1" height="14.33" transform="translate(59.47 370.16) rotate(-85.32)" style="fill:#263238"></rect><rect x="223.24" y="150.08" width="14.33" height="1" transform="translate(-28.51 57.18) rotate(-13.33)" style="fill:#263238"></rect><rect x="222.39" y="148" width="14.33" height="1" transform="translate(-43.74 140.87) rotate(-31.3)" style="fill:#263238"></rect><rect x="220.94" y="146.29" width="14.33" height="1" transform="translate(-31.86 224.26) rotate(-49.36)" style="fill:#263238"></rect><rect x="219.03" y="145.12" width="14.33" height="1" transform="translate(4.61 298.16) rotate(-67.32)" style="fill:#263238"></rect><rect x="216.85" y="144.59" width="14.33" height="1" transform="translate(61.15 356.53) rotate(-85.32)" style="fill:#263238"></rect><rect x="221.28" y="138.09" width="1" height="14.33" transform="translate(-27.5 55.01) rotate(-13.32)" style="fill:#263238"></rect><rect x="219.21" y="138.94" width="1" height="14.33" transform="translate(-43.93 135.51) rotate(-31.32)" style="fill:#263238"></rect><rect x="217.5" y="140.39" width="1" height="14.33" transform="translate(-36 216.7) rotate(-49.32)" style="fill:#263238"></rect><rect x="216.32" y="142.3" width="1" height="14.33" transform="translate(-4.69 291.9) rotate(-67.32)" style="fill:#263238"></rect><path d="M224.12,143.82a8.43,8.43,0,1,0,7.72,9.1A8.44,8.44,0,0,0,224.12,143.82Z" style="fill:#263238"></path><path d="M223.44,161.16l-.74,0a8.93,8.93,0,0,1,1.46-17.81h0a8.93,8.93,0,0,1-.72,17.84Zm0-16.87a8,8,0,1,0,.65,0h0Z" style="fill:#263238"></path><path d="M287.86,412.7a4.79,4.79,0,1,1-4.79-4.51A4.65,4.65,0,0,1,287.86,412.7Z" style="fill:#263238"></path><path d="M283.07,417.71a5,5,0,1,1,5.29-5A5.16,5.16,0,0,1,283.07,417.71Zm0-9a4,4,0,1,0,4.29,4A4.16,4.16,0,0,0,283.07,408.69Z" style="fill:#263238"></path><path d="M299,412.7a4.79,4.79,0,1,1-4.79-4.51A4.65,4.65,0,0,1,299,412.7Z" style="fill:#263238"></path><path d="M294.24,417.71a5,5,0,1,1,5.29-5A5.16,5.16,0,0,1,294.24,417.71Zm0-9a4,4,0,1,0,4.29,4A4.16,4.16,0,0,0,294.24,408.69Z" style="fill:#263238"></path><path d="M310.2,412.7a4.8,4.8,0,1,1-4.79-4.51A4.66,4.66,0,0,1,310.2,412.7Z" style="fill:#263238"></path><path d="M305.41,417.71a5,5,0,1,1,5.29-5A5.17,5.17,0,0,1,305.41,417.71Zm0-9a4,4,0,1,0,4.29,4A4.17,4.17,0,0,0,305.41,408.69Z" style="fill:#263238"></path><path d="M321.36,412.7a4.79,4.79,0,1,1-4.78-4.51A4.65,4.65,0,0,1,321.36,412.7Z" style="fill:#263238"></path><path d="M316.58,417.71a5,5,0,1,1,5.29-5A5.16,5.16,0,0,1,316.58,417.71Zm0-9a4,4,0,1,0,4.29,4A4.16,4.16,0,0,0,316.58,408.69Z" style="fill:#263238"></path><path d="M332.53,412.7a4.79,4.79,0,1,1-4.78-4.51A4.65,4.65,0,0,1,332.53,412.7Z" style="fill:#263238"></path><path d="M327.75,417.71a5,5,0,1,1,5.28-5A5.16,5.16,0,0,1,327.75,417.71Zm0-9a4,4,0,1,0,4.28,4A4.16,4.16,0,0,0,327.75,408.69Z" style="fill:#263238"></path><path d="M343.7,412.7a4.79,4.79,0,1,1-4.78-4.51A4.65,4.65,0,0,1,343.7,412.7Z" style="fill:#263238"></path><path d="M338.92,417.71a5,5,0,1,1,5.28-5A5.16,5.16,0,0,1,338.92,417.71Zm0-9a4,4,0,1,0,4.28,4A4.16,4.16,0,0,0,338.92,408.69Z" style="fill:#263238"></path><path d="M354.87,412.7a4.79,4.79,0,1,1-4.79-4.51A4.65,4.65,0,0,1,354.87,412.7Z" style="fill:#263238"></path><path d="M350.08,417.71a5,5,0,1,1,5.29-5A5.16,5.16,0,0,1,350.08,417.71Zm0-9a4,4,0,1,0,4.29,4A4.16,4.16,0,0,0,350.08,408.69Z" style="fill:#263238"></path><path d="M366,412.7a4.79,4.79,0,1,1-4.79-4.51A4.65,4.65,0,0,1,366,412.7Z" style="fill:#263238"></path><path d="M361.25,417.71a5,5,0,1,1,5.29-5A5.16,5.16,0,0,1,361.25,417.71Zm0-9a4,4,0,1,0,4.29,4A4.16,4.16,0,0,0,361.25,408.69Z" style="fill:#263238"></path><path d="M377.21,412.7a4.8,4.8,0,1,1-4.79-4.51A4.66,4.66,0,0,1,377.21,412.7Z" style="fill:#263238"></path><path d="M372.42,417.71a5,5,0,1,1,5.29-5A5.17,5.17,0,0,1,372.42,417.71Zm0-9a4,4,0,1,0,4.29,4A4.17,4.17,0,0,0,372.42,408.69Z" style="fill:#263238"></path><path d="M388.38,412.7a4.8,4.8,0,1,1-4.79-4.51A4.66,4.66,0,0,1,388.38,412.7Z" style="fill:#263238"></path><path d="M383.59,417.71a5,5,0,1,1,5.29-5A5.16,5.16,0,0,1,383.59,417.71Zm0-9a4,4,0,1,0,4.29,4A4.16,4.16,0,0,0,383.59,408.69Z" style="fill:#263238"></path><path d="M399.54,412.7a4.79,4.79,0,1,1-4.78-4.51A4.65,4.65,0,0,1,399.54,412.7Z" style="fill:#263238"></path><path d="M394.76,417.71a5,5,0,1,1,5.28-5A5.16,5.16,0,0,1,394.76,417.71Zm0-9a4,4,0,1,0,4.28,4A4.16,4.16,0,0,0,394.76,408.69Z" style="fill:#263238"></path><rect x="274.92" y="412.61" width="127.99" height="16.64" style="fill:#263238"></rect><path d="M403.41,429.75h-129V412.11h129Zm-128-1h127V413.11h-127Z" style="fill:#263238"></path></g></svg>