<?xml version="1.0" encoding="UTF-8"?>
<svg xmlns="http://www.w3.org/2000/svg" xmlns:xlink="http://www.w3.org/1999/xlink" width="400px" height="300px" viewBox="0 0 400 300" version="1.1">
<defs>
<linearGradient id="linear0" gradientUnits="userSpaceOnUse" x1="89.27" y1="129.75" x2="71.5" y2="151.95" >
<stop offset="0" style="stop-color:rgb(83.137255%,63.921569%,59.215686%);stop-opacity:1;"/>
<stop offset="0.99" style="stop-color:rgb(100%,83.921569%,66.27451%);stop-opacity:1;"/>
</linearGradient>
<linearGradient id="linear1" gradientUnits="userSpaceOnUse" x1="139.73" y1="193.73" x2="134.45" y2="202.69" >
<stop offset="0" style="stop-color:rgb(83.137255%,63.921569%,59.215686%);stop-opacity:1;"/>
<stop offset="0.99" style="stop-color:rgb(100%,83.921569%,66.27451%);stop-opacity:1;"/>
</linearGradient>
<linearGradient id="linear2" gradientUnits="userSpaceOnUse" x1="240.98" y1="236.99" x2="216.04" y2="257.29" >
<stop offset="0" style="stop-color:rgb(83.137255%,63.921569%,59.215686%);stop-opacity:1;"/>
<stop offset="0.99" style="stop-color:rgb(100%,83.921569%,66.27451%);stop-opacity:1;"/>
</linearGradient>
<linearGradient id="linear3" gradientUnits="userSpaceOnUse" x1="337.94" y1="210.14" x2="319.96" y2="229.86" >
<stop offset="0" style="stop-color:rgb(83.137255%,63.921569%,59.215686%);stop-opacity:1;"/>
<stop offset="0.99" style="stop-color:rgb(100%,83.921569%,66.27451%);stop-opacity:1;"/>
</linearGradient>
</defs>
<g id="surface1">
<path style=" stroke:none;fill-rule:nonzero;fill:rgb(100%,83.921569%,66.27451%);fill-opacity:1;" d="M 181.421875 68.429688 L 20.171875 162.230469 C 16.980469 164.085938 15.035156 167.503906 15.066406 171.195312 C 15.09375 174.882812 17.101562 178.269531 20.320312 180.070312 L 217.710938 290.53125 C 222.558594 293.242188 228.457031 293.292969 233.351562 290.660156 L 385 209.101562 C 388.9375 206.984375 391.425781 202.902344 391.503906 198.429688 C 391.585938 193.960938 389.242188 189.796875 385.378906 187.539062 Z M 181.421875 68.429688 "/>
<path style=" stroke:none;fill-rule:nonzero;fill:url(#linear0);" d="M 70 133.660156 L 50.070312 145.238281 C 50.070312 145.238281 51.179688 162.148438 71.578125 159.53125 L 108.351562 139.390625 "/>
<path style=" stroke:none;fill-rule:nonzero;fill:rgb(95.294118%,65.490196%,10.980392%);fill-opacity:1;" d="M 114.320312 131.921875 C 114.320312 125.867188 104.394531 120.960938 92.148438 120.960938 C 79.90625 120.960938 69.980469 125.867188 69.980469 131.921875 C 69.980469 137.972656 79.90625 142.878906 92.148438 142.878906 C 104.394531 142.878906 114.320312 137.972656 114.320312 131.921875 Z M 114.320312 131.921875 "/>
<path style=" stroke:none;fill-rule:nonzero;fill:rgb(95.294118%,65.490196%,10.980392%);fill-opacity:1;" d="M 114.308594 102.730469 L 114.308594 132.53125 C 114.308594 132.53125 97.808594 147.800781 69.980469 132.78125 L 69.980469 102.78125 "/>
<path style=" stroke:none;fill-rule:nonzero;fill:rgb(95.294118%,65.490196%,10.980392%);fill-opacity:1;" d="M 73.300781 113.378906 C 73.300781 113.378906 69.628906 107.761719 66.171875 111 C 62.710938 114.238281 65.738281 125.480469 75.890625 126.558594 L 75.890625 131.101562 C 75.890625 131.101562 63.140625 129.371094 61.410156 117.921875 C 59.679688 106.46875 67.898438 104.699219 72 107.851562 "/>
<path style=" stroke:none;fill-rule:nonzero;fill:rgb(33.72549%,25.098039%,23.921569%);fill-opacity:1;" d="M 198.789062 142.390625 L 179.660156 151.601562 C 178.191406 152.304688 177.230469 153.761719 177.167969 155.390625 C 177.101562 157.019531 177.941406 158.550781 179.351562 159.371094 L 224.699219 185.820312 C 226.734375 187.007812 229.34375 186.382812 230.621094 184.398438 L 241.621094 167.261719 "/>
<path style=" stroke:none;fill-rule:nonzero;fill:url(#linear1);" d="M 155.320312 200.101562 L 80.039062 160.460938 L 68.539062 167.960938 L 191.300781 235.160156 L 208.199219 224.109375 "/>
<path style=" stroke:none;fill-rule:nonzero;fill:url(#linear2);" d="M 220.210938 237.671875 L 202.289062 248.289062 C 202.289062 248.289062 214.039062 259.550781 227.71875 265.289062 L 244.351562 254.429688 "/>
<path style=" stroke:none;fill-rule:nonzero;fill:rgb(42.745098%,88.235294%,98.823529%);fill-opacity:1;" d="M 218.488281 230.058594 L 218.488281 238.441406 L 244.351562 254.441406 L 275.378906 235.480469 L 275.378906 228.339844 "/>
<path style=" stroke:none;fill-rule:nonzero;fill:rgb(89.803922%,29.803922%,23.529412%);fill-opacity:1;" d="M 218.488281 230.058594 L 218.488281 238.441406 L 244.351562 254.441406 L 275.378906 235.480469 L 275.378906 228.339844 "/>
<path style=" stroke:none;fill-rule:nonzero;fill:rgb(96.078431%,37.647059%,29.411765%);fill-opacity:1;" d="M 275.378906 228.339844 L 249.03125 212.578125 L 218.488281 230.058594 L 244.839844 246.070312 Z M 275.378906 228.339844 "/>
<path style=" stroke:none;fill-rule:nonzero;fill:rgb(77.647059%,45.490196%,27.058824%);fill-opacity:1;" d="M 250.371094 234 C 249.6875 233.175781 249.105469 232.273438 248.640625 231.308594 C 248.53125 230.671875 250.089844 227.621094 250.378906 227.710938 C 251.425781 228.234375 252.40625 228.882812 253.300781 229.640625 "/>
<path style=" stroke:none;fill-rule:nonzero;fill:rgb(33.72549%,25.098039%,23.921569%);fill-opacity:1;" d="M 250.648438 229 C 250.710938 229.238281 249.789062 233.828125 250.371094 234 C 251.597656 234.113281 252.832031 234.113281 254.058594 234 C 254.292969 232.34375 254.433594 230.671875 254.480469 229 "/>
<path style=" stroke:none;fill-rule:nonzero;fill:rgb(77.647059%,45.490196%,27.058824%);fill-opacity:1;" d="M 255 223.140625 L 250.378906 224.429688 C 250.378906 224.539062 249.621094 228.699219 250.199219 229.320312 C 250.9375 229.84375 251.707031 230.324219 252.5 230.761719 C 252.496094 232.214844 252.578125 233.667969 252.75 235.109375 C 253.023438 235.160156 253.304688 235.160156 253.578125 235.109375 C 253.769531 233.601562 254.03125 230.53125 254.03125 230.53125 C 254.03125 230.53125 255.378906 230.058594 255.460938 229.640625 C 255.539062 229.21875 255 223.140625 255 223.140625 Z M 255 223.140625 "/>
<path style=" stroke:none;fill-rule:nonzero;fill:rgb(77.647059%,45.490196%,27.058824%);fill-opacity:1;" d="M 264.410156 255.671875 C 264.410156 255.671875 262.410156 253.121094 262.25 252.308594 C 262.089844 251.5 264.058594 247.699219 264.429688 247.808594 C 265.734375 248.464844 266.957031 249.273438 268.070312 250.21875 "/>
<path style=" stroke:none;fill-rule:nonzero;fill:rgb(33.72549%,25.098039%,23.921569%);fill-opacity:1;" d="M 264.761719 249.410156 C 264.828125 249.710938 263.679688 255.410156 264.410156 255.671875 C 265.941406 255.8125 267.488281 255.8125 269.019531 255.671875 C 269.261719 255.671875 269.539062 249.410156 269.539062 249.410156 "/>
<path style=" stroke:none;fill-rule:nonzero;fill:rgb(77.647059%,45.490196%,27.058824%);fill-opacity:1;" d="M 270.199219 242.148438 L 264.429688 243.761719 C 264.429688 243.898438 263.480469 249.089844 264.199219 249.859375 C 264.921875 250.628906 267.121094 251.519531 267.070312 251.660156 C 267.0625 253.472656 267.167969 255.28125 267.378906 257.078125 C 267.710938 257.140625 268.050781 257.140625 268.378906 257.078125 C 268.609375 255.191406 268.941406 251.359375 268.941406 251.359375 C 268.941406 251.359375 270.628906 250.769531 270.71875 250.25 C 270.808594 249.730469 270.199219 242.148438 270.199219 242.148438 Z M 270.199219 242.148438 "/>
<path style=" stroke:none;fill-rule:nonzero;fill:rgb(3.529412%,25.882353%,30.980392%);fill-opacity:1;" d="M 302.878906 98.070312 L 150.28125 10.160156 C 148.144531 8.925781 145.511719 8.929688 143.382812 10.171875 C 141.25 11.410156 139.945312 13.695312 139.960938 16.160156 L 139.960938 107.609375 C 139.941406 109.671875 141.035156 111.578125 142.820312 112.609375 L 305.480469 206.5 C 306.621094 207.164062 308.03125 207.164062 309.175781 206.503906 C 310.320312 205.84375 311.023438 204.621094 311.019531 203.300781 L 311.019531 112.148438 C 311.019531 106.339844 307.914062 100.96875 302.878906 98.070312 Z M 302.878906 98.070312 "/>
<path style=" stroke:none;fill-rule:nonzero;fill:rgb(100%,100%,100%);fill-opacity:1;" d="M 150.300781 17.070312 L 298.300781 102.199219 C 301.519531 104.050781 303.503906 107.484375 303.5 111.199219 L 303.5 179.761719 C 303.496094 181.09375 302.785156 182.328125 301.628906 183 C 300.472656 183.667969 299.050781 183.671875 297.890625 183.011719 L 147 96.410156 C 145.851562 95.753906 145.140625 94.53125 145.140625 93.210938 L 145.140625 20.078125 C 145.152344 18.855469 145.808594 17.726562 146.867188 17.113281 C 147.925781 16.496094 149.226562 16.480469 150.300781 17.070312 Z M 150.300781 17.070312 "/>
<path style=" stroke:none;fill-rule:nonzero;fill:rgb(42.745098%,88.235294%,98.823529%);fill-opacity:1;" d="M 141.300781 118.5 C 144.019531 118.050781 175.53125 137.769531 175.53125 137.769531 L 175.53125 145.480469 L 162.609375 152.730469 L 127.480469 133.460938 L 127.480469 124.398438 Z M 141.300781 118.5 "/>
<path style=" stroke:none;fill-rule:nonzero;fill:rgb(94.509804%,63.921569%,9.019608%);fill-opacity:1;" d="M 141.300781 118.5 C 144.019531 118.050781 175.53125 137.769531 175.53125 137.769531 L 175.53125 145.480469 L 162.609375 152.730469 L 127.480469 133.460938 L 127.480469 124.398438 Z M 141.300781 118.5 "/>
<path style=" stroke:none;fill-rule:nonzero;fill:rgb(59.215686%,29.803922%,14.901961%);fill-opacity:1;" d="M 120 137.640625 L 80 160.460938 C 79.148438 160.949219 78.625 161.855469 78.625 162.835938 C 78.625 163.816406 79.148438 164.722656 80 165.210938 L 190.910156 229 C 193.648438 230.578125 197.019531 230.578125 199.761719 229 L 237.109375 207.429688 C 238.019531 206.925781 238.582031 205.96875 238.582031 204.929688 C 238.582031 203.890625 238.019531 202.933594 237.109375 202.429688 L 124.910156 137.621094 C 123.382812 136.765625 121.519531 136.773438 120 137.640625 Z M 120 137.640625 "/>
<path style=" stroke:none;fill-rule:nonzero;fill:rgb(42.745098%,88.235294%,98.823529%);fill-opacity:1;" d="M 145.621094 212.308594 C 145.445312 211.242188 144.75 210.328125 143.769531 209.871094 L 137.851562 206.449219 L 128.699219 201.148438 L 117.769531 194.820312 L 106.140625 188.078125 L 94.890625 181.570312 L 85.109375 175.910156 L 77.878906 171.71875 L 74.078125 169.519531 C 74.078125 169.601562 73.949219 169.601562 73.871094 169.578125 C 72.941406 169.335938 71.949219 169.605469 71.269531 170.28125 C 70.589844 170.960938 70.320312 171.949219 70.558594 172.878906 C 71.167969 174.617188 72.3125 176.113281 73.828125 177.148438 C 78.253906 180.328125 82.875 183.226562 87.660156 185.828125 L 87.660156 184.121094 C 84.441406 182.359375 77.5 178.378906 74.578125 175.378906 L 75.96875 176.191406 L 79.800781 178.429688 L 85.558594 181.800781 L 92.75 186 L 100.871094 190.738281 L 109.410156 195.738281 L 117.871094 200.691406 L 125.75 205.289062 L 132.539062 209.289062 L 137.738281 212.289062 C 139.328125 213.21875 141.050781 214.480469 142.898438 214.839844 C 143.601562 214.890625 144.292969 214.644531 144.808594 214.167969 C 145.324219 213.6875 145.617188 213.015625 145.621094 212.308594 Z M 145.621094 212.308594 "/>
<path style=" stroke:none;fill-rule:nonzero;fill:rgb(60%,60.392157%,10.980392%);fill-opacity:1;" d="M 145.621094 212.308594 C 145.445312 211.242188 144.75 210.328125 143.769531 209.871094 L 137.851562 206.449219 L 128.699219 201.148438 L 117.769531 194.820312 L 106.140625 188.078125 L 94.890625 181.570312 L 85.109375 175.910156 L 77.878906 171.71875 L 74.078125 169.519531 C 74.078125 169.601562 73.949219 169.601562 73.871094 169.578125 C 72.941406 169.335938 71.949219 169.605469 71.269531 170.28125 C 70.589844 170.960938 70.320312 171.949219 70.558594 172.878906 C 71.167969 174.617188 72.3125 176.113281 73.828125 177.148438 C 78.253906 180.328125 82.875 183.226562 87.660156 185.828125 L 87.660156 184.121094 C 84.441406 182.359375 77.5 178.378906 74.578125 175.378906 L 75.96875 176.191406 L 79.800781 178.429688 L 85.558594 181.800781 L 92.75 186 L 100.871094 190.738281 L 109.410156 195.738281 L 117.871094 200.691406 L 125.75 205.289062 L 132.539062 209.289062 L 137.738281 212.289062 C 139.328125 213.21875 141.050781 214.480469 142.898438 214.839844 C 143.601562 214.890625 144.292969 214.644531 144.808594 214.167969 C 145.324219 213.6875 145.617188 213.015625 145.621094 212.308594 Z M 145.621094 212.308594 "/>
<path style=" stroke:none;fill-rule:nonzero;fill:rgb(67.058824%,39.215686%,23.529412%);fill-opacity:1;" d="M 215.015625 142.164062 C 214.628906 140.167969 212.902344 138.824219 211.15625 139.160156 C 209.410156 139.496094 208.308594 141.386719 208.691406 143.382812 C 209.074219 145.378906 210.800781 146.722656 212.550781 146.386719 C 214.296875 146.050781 215.398438 144.160156 215.015625 142.164062 Z M 215.015625 142.164062 "/>
<path style=" stroke:none;fill-rule:nonzero;fill:rgb(65.882353%,66.27451%,23.921569%);fill-opacity:1;" d="M 212.429688 65.378906 L 255.558594 90.378906 C 256.460938 90.902344 257 91.878906 256.960938 92.921875 L 255.46875 131.628906 C 255.433594 132.613281 254.882812 133.507812 254.023438 133.984375 C 253.160156 134.460938 252.113281 134.453125 251.261719 133.960938 L 209.621094 110.03125 C 208.746094 109.527344 208.207031 108.597656 208.210938 107.589844 L 208.210938 67.820312 C 208.207031 66.8125 208.742188 65.882812 209.613281 65.378906 C 210.484375 64.875 211.558594 64.875 212.429688 65.378906 Z M 212.429688 65.378906 "/>
<path style=" stroke:none;fill-rule:nonzero;fill:rgb(98.431373%,70.980392%,67.843137%);fill-opacity:1;" d="M 227.878906 72.171875 C 227.882812 72.140625 227.882812 72.109375 227.878906 72.078125 L 227.71875 70.730469 C 226.050781 70.648438 225.101562 71.050781 223.429688 71.058594 C 222.605469 71.90625 222.058594 72.984375 221.859375 74.148438 C 221.859375 74.980469 221.960938 76.148438 222.980469 76.03125 C 223.140625 76.800781 223.589844 77.808594 224.5 77.601562 L 224.621094 77.550781 C 224.679688 78.058594 224.839844 78.550781 225.328125 78.699219 C 225.820312 78.851562 226.128906 78.578125 226.328125 78.128906 C 226.511719 78.808594 226.828125 79.851562 227.519531 79.839844 C 228.460938 79.839844 228.519531 78.449219 228.28125 77.070312 C 228.257812 75.429688 228.125 73.792969 227.878906 72.171875 Z M 227.878906 72.171875 "/>
<path style=" stroke:none;fill-rule:nonzero;fill:rgb(33.72549%,25.098039%,23.921569%);fill-opacity:1;" d="M 223.21875 73.699219 C 222.957031 74.445312 222.839844 75.238281 222.878906 76.03125 C 222.878906 76.28125 223.269531 76.28125 223.261719 76.03125 C 223.222656 75.273438 223.335938 74.515625 223.589844 73.800781 C 223.671875 73.570312 223.300781 73.46875 223.21875 73.699219 Z M 223.21875 73.699219 "/>
<path style=" stroke:none;fill-rule:nonzero;fill:rgb(33.72549%,25.098039%,23.921569%);fill-opacity:1;" d="M 224.621094 74.460938 L 224.460938 77.671875 C 224.460938 77.921875 224.828125 77.921875 224.839844 77.671875 L 225 74.460938 C 225 74.21875 224.640625 74.21875 224.621094 74.460938 Z M 224.621094 74.460938 "/>
<path style=" stroke:none;fill-rule:nonzero;fill:rgb(33.72549%,25.098039%,23.921569%);fill-opacity:1;" d="M 226 74 L 226 78.25 C 226 78.355469 226.085938 78.441406 226.191406 78.441406 C 226.296875 78.441406 226.378906 78.355469 226.378906 78.25 L 226.378906 74 C 226.378906 73.894531 226.296875 73.808594 226.191406 73.808594 C 226.085938 73.808594 226 73.894531 226 74 Z M 226 74 "/>
<path style=" stroke:none;fill-rule:nonzero;fill:rgb(98.431373%,70.980392%,67.843137%);fill-opacity:1;" d="M 227.699219 70.730469 C 228.941406 72.035156 229.6875 73.734375 229.808594 75.53125 L 228 74.390625 Z M 227.699219 70.730469 "/>
<path style=" stroke:none;fill-rule:nonzero;fill:rgb(98.431373%,70.980392%,67.843137%);fill-opacity:1;" d="M 244.519531 79.789062 C 244.519531 79.789062 243.179688 80.03125 243.148438 80.011719 C 241.988281 80.738281 239.039062 82.25 237.808594 82.839844 C 237.078125 83.191406 235.269531 83.949219 235.671875 85.050781 C 235.878906 85.640625 236.46875 85.738281 237.230469 85.570312 C 237.117188 85.894531 237.253906 86.25 237.550781 86.421875 C 238.03125 86.644531 238.597656 86.582031 239.019531 86.261719 C 239.058594 86.445312 239.160156 86.613281 239.308594 86.730469 C 239.941406 87.269531 241.140625 86.671875 241.828125 86.351562 C 241.816406 86.476562 241.816406 86.605469 241.828125 86.730469 C 241.828125 87.128906 242.230469 87.519531 242.601562 87.320312 C 244.371094 86.378906 247.148438 82.949219 247.960938 81.320312 C 246.28125 80.679688 246.171875 80.488281 244.519531 79.789062 Z M 244.519531 79.789062 "/>
<path style=" stroke:none;fill-rule:nonzero;fill:rgb(33.72549%,25.098039%,23.921569%);fill-opacity:1;" d="M 243.320312 84.621094 C 242.855469 85.265625 242.304688 85.847656 241.679688 86.339844 C 241.5 86.480469 241.75 86.71875 241.929688 86.589844 C 242.578125 86.078125 243.148438 85.472656 243.628906 84.800781 C 243.75 84.621094 243.449219 84.441406 243.320312 84.621094 Z M 243.320312 84.621094 "/>
<path style=" stroke:none;fill-rule:nonzero;fill:rgb(33.72549%,25.098039%,23.921569%);fill-opacity:1;" d="M 242.269531 83.730469 C 241.25 84.542969 240.210938 85.328125 239.148438 86.089844 C 238.96875 86.21875 239.148438 86.519531 239.328125 86.390625 C 240.441406 85.609375 241.507812 84.8125 242.519531 84 C 242.691406 83.839844 242.441406 83.589844 242.269531 83.730469 Z M 242.269531 83.730469 "/>
<path style=" stroke:none;fill-rule:nonzero;fill:rgb(33.72549%,25.098039%,23.921569%);fill-opacity:1;" d="M 240.621094 83.289062 C 239.527344 84.058594 238.371094 84.730469 237.160156 85.289062 C 236.960938 85.390625 237.160156 85.691406 237.339844 85.589844 C 238.550781 85.027344 239.710938 84.359375 240.800781 83.589844 C 241 83.460938 240.800781 83.160156 240.621094 83.289062 Z M 240.621094 83.289062 "/>
<path style=" stroke:none;fill-rule:nonzero;fill:rgb(98.431373%,70.980392%,67.843137%);fill-opacity:1;" d="M 243.148438 80 C 243.148438 80 241.460938 78.761719 238.609375 80.660156 L 241 82.148438 "/>
<path style=" stroke:none;fill-rule:nonzero;fill:rgb(98.431373%,70.980392%,67.843137%);fill-opacity:1;" d="M 280.441406 146.089844 C 280.398438 145.949219 280.296875 145.832031 280.164062 145.765625 C 280.03125 145.703125 279.878906 145.695312 279.738281 145.75 C 279.769531 145.417969 279.769531 145.082031 279.738281 144.75 C 279.738281 144.28125 279.648438 143.609375 279.140625 143.410156 C 278.835938 143.296875 278.492188 143.398438 278.300781 143.660156 C 278.242188 143.351562 278.160156 143.050781 278.050781 142.761719 C 277.980469 142.535156 277.773438 142.382812 277.539062 142.378906 C 276.96875 142.378906 276.679688 142.839844 276.539062 143.378906 C 276.539062 143.328125 276.328125 143.140625 276.28125 143.109375 C 276.1875 143.042969 276.074219 143.003906 275.960938 143 C 275.746094 142.988281 275.53125 143.050781 275.359375 143.179688 C 275.195312 143.34375 275.09375 143.558594 275.078125 143.789062 C 275.035156 144.171875 275.035156 144.558594 275.078125 144.941406 C 275.078125 145.410156 275.179688 145.871094 275.210938 146.339844 C 275.238281 146.808594 275.210938 147 275.210938 147.339844 C 274.769531 146.488281 274.148438 145.429688 273.429688 145.929688 C 272.710938 146.429688 273.339844 147.109375 273.539062 147.578125 C 273.953125 148.511719 274.441406 149.410156 275 150.261719 C 274.925781 150.679688 274.820312 151.09375 274.691406 151.5 C 276.027344 152.046875 277.320312 152.695312 278.558594 153.441406 C 278.957031 152.113281 279.433594 150.808594 279.988281 149.539062 C 280.589844 148.496094 280.753906 147.253906 280.441406 146.089844 Z M 280.441406 146.089844 "/>
<path style=" stroke:none;fill-rule:nonzero;fill:rgb(33.72549%,25.098039%,23.921569%);fill-opacity:1;" d="M 276.441406 143.371094 C 276.398438 144.664062 276.328125 145.953125 276.230469 147.238281 C 276.230469 147.351562 276.398438 147.351562 276.398438 147.238281 C 276.5 145.953125 276.570312 144.664062 276.609375 143.371094 C 276.621094 143.25 276.441406 143.25 276.441406 143.371094 Z M 276.441406 143.371094 "/>
<path style=" stroke:none;fill-rule:nonzero;fill:rgb(33.72549%,25.098039%,23.921569%);fill-opacity:1;" d="M 278.179688 143.699219 C 278.066406 144.867188 277.925781 146.027344 277.761719 147.179688 C 277.761719 147.289062 277.910156 147.339844 277.929688 147.179688 C 278.101562 146.007812 278.246094 144.828125 278.359375 143.648438 C 278.359375 143.589844 278.191406 143.589844 278.179688 143.699219 Z M 278.179688 143.699219 "/>
<path style=" stroke:none;fill-rule:nonzero;fill:rgb(33.72549%,25.098039%,23.921569%);fill-opacity:1;" d="M 279.699219 145.859375 C 279.613281 146.671875 279.488281 147.480469 279.320312 148.28125 C 279.320312 148.390625 279.46875 148.441406 279.488281 148.28125 C 279.65625 147.464844 279.785156 146.648438 279.871094 145.820312 C 279.878906 145.75 279.710938 145.75 279.699219 145.859375 Z M 279.699219 145.859375 "/>
<path style=" stroke:none;fill-rule:nonzero;fill:rgb(98.431373%,70.980392%,67.843137%);fill-opacity:1;" d="M 240.171875 145.890625 C 240.050781 145.621094 239.929688 145.351562 239.820312 145.070312 C 239.757812 144.925781 239.734375 144.765625 239.75 144.609375 C 239.835938 144.1875 239.898438 143.761719 239.929688 143.328125 C 239.902344 141.957031 239.628906 140.601562 239.121094 139.328125 C 238.992188 138.917969 238.679688 138.589844 238.273438 138.445312 C 237.871094 138.300781 237.417969 138.355469 237.058594 138.589844 L 236.691406 137.921875 C 236 136.699219 235.261719 134.601562 233.691406 134.441406 C 233.445312 134.4375 233.210938 134.550781 233.070312 134.75 C 232.925781 134.949219 232.886719 135.207031 232.96875 135.441406 C 233.269531 136.230469 233.578125 137.011719 233.898438 137.78125 C 233.765625 137.636719 233.574219 137.550781 233.375 137.550781 C 233.175781 137.550781 232.984375 137.636719 232.851562 137.78125 C 232.472656 138.164062 232.371094 138.742188 232.601562 139.230469 L 232.410156 139.230469 C 232.242188 139.144531 232.058594 139.097656 231.871094 139.089844 C 231.566406 139.109375 231.285156 139.257812 231.101562 139.5 C 230.890625 139.789062 230.828125 140.160156 230.941406 140.5 L 230.808594 140.5 C 230.503906 140.613281 230.273438 140.867188 230.191406 141.179688 C 230.136719 141.390625 230.136719 141.609375 230.191406 141.820312 C 230.109375 142.601562 234.191406 146.421875 234.191406 146.421875 L 236.609375 149.070312 L 240.671875 147.140625 C 240.730469 147 240.21875 146 240.171875 145.890625 Z M 240.171875 145.890625 "/>
<path style=" stroke:none;fill-rule:nonzero;fill:rgb(95.294118%,65.490196%,10.980392%);fill-opacity:1;" d="M 267.699219 182.710938 C 260.488281 170.390625 253.699219 182.429688 253.699219 182.429688 C 250.902344 186.253906 248.726562 190.496094 247.25 195 C 245.589844 200.660156 245.601562 219 246.421875 224.460938 C 249.421875 225.621094 256.128906 225.269531 259.261719 224.378906 L 259.261719 202.378906 C 259.285156 202.253906 259.394531 202.160156 259.523438 202.160156 C 259.652344 202.160156 259.765625 202.253906 259.789062 202.378906 L 259.941406 246.070312 C 265.203125 246.265625 270.457031 245.402344 275.378906 243.53125 C 275.378906 243.53125 274.480469 194.300781 267.699219 182.710938 Z M 267.699219 182.710938 "/>
<path style=" stroke:none;fill-rule:nonzero;fill:rgb(96.078431%,37.647059%,29.411765%);fill-opacity:1;" d="M 240.21875 144.660156 C 238.050781 145.191406 236.570312 146.328125 234.691406 147.53125 C 235.378906 149.949219 242.941406 168.851562 252.449219 172.851562 L 253.210938 159.398438 C 253.210938 159.398438 249 159 240.21875 144.660156 Z M 240.21875 144.660156 "/>
<path style=" stroke:none;fill-rule:nonzero;fill:rgb(96.078431%,37.647059%,29.411765%);fill-opacity:1;" d="M 273.488281 150.53125 C 272.890625 155.269531 270.179688 159.484375 266.121094 162 L 267.410156 174.351562 C 273.179688 170.640625 279.261719 156.851562 280.148438 153.25 C 278.378906 151.492188 275.984375 150.515625 273.488281 150.53125 Z M 273.488281 150.53125 "/>
<path style=" stroke:none;fill-rule:nonzero;fill:rgb(96.078431%,37.647059%,29.411765%);fill-opacity:1;" d="M 251.371094 173.609375 L 252.640625 184.679688 C 252.640625 184.679688 261.761719 188.128906 268.511719 184.679688 L 268.511719 173.460938 "/>
<path style=" stroke:none;fill-rule:nonzero;fill:rgb(33.72549%,25.098039%,23.921569%);fill-opacity:1;" d="M 272.800781 170.429688 C 272.617188 169.804688 272.308594 169.226562 271.898438 168.71875 C 271.261719 167.980469 270.566406 167.289062 269.820312 166.660156 C 269.636719 166.515625 269.492188 166.324219 269.398438 166.109375 C 269.089844 165.171875 270.191406 163.730469 270.039062 162.578125 C 269.808594 160.878906 268.730469 160.308594 267.671875 159.191406 C 267.09375 158.617188 266.71875 157.871094 266.601562 157.070312 C 265.992188 155.847656 265.523438 154.558594 265.199219 153.230469 C 264.429688 151.058594 263.199219 148.660156 260.871094 147.871094 C 258.238281 147.027344 255.359375 147.765625 253.460938 149.769531 C 251.859375 151.601562 252.171875 154.089844 251.988281 156.378906 C 252.09375 156.585938 252.164062 156.808594 252.199219 157.039062 C 252.511719 159.261719 249.589844 159.359375 249.320312 161.121094 C 249.285156 161.453125 249.300781 161.792969 249.371094 162.121094 C 249.597656 163.382812 250.140625 164.566406 250.949219 165.558594 C 252.949219 168.261719 248.300781 169.648438 248.320312 172.148438 C 248.433594 173.984375 249.523438 175.617188 251.171875 176.429688 C 255.117188 178.390625 259.625 178.902344 263.910156 177.878906 C 267.109375 177.148438 273.898438 174.488281 272.800781 170.429688 Z M 255 166.308594 C 255 166.261719 255 166.199219 255 166.148438 L 255.179688 166.148438 Z M 255 166.308594 "/>
<path style=" stroke:none;fill-rule:nonzero;fill:rgb(33.72549%,25.098039%,23.921569%);fill-opacity:1;" d="M 259.261719 202.359375 L 249.121094 200.101562 L 258.761719 207.621094 Z M 259.261719 202.359375 "/>
<path style=" stroke:none;fill-rule:nonzero;fill:rgb(33.72549%,25.098039%,23.921569%);fill-opacity:1;" d="M 235.320312 140.191406 C 234.523438 138.621094 233.855469 136.992188 233.320312 135.320312 C 233.238281 135.058594 232.820312 135.171875 232.910156 135.429688 C 233.441406 137.148438 234.109375 138.820312 234.910156 140.429688 C 235.070312 140.648438 235.441406 140.429688 235.320312 140.191406 Z M 235.320312 140.191406 "/>
<path style=" stroke:none;fill-rule:nonzero;fill:rgb(33.72549%,25.098039%,23.921569%);fill-opacity:1;" d="M 233.730469 141.191406 C 233.335938 140.515625 232.980469 139.816406 232.671875 139.101562 C 232.558594 138.851562 232.191406 139.101562 232.300781 139.320312 C 232.609375 140.039062 232.964844 140.734375 233.359375 141.410156 C 233.421875 141.511719 233.554688 141.546875 233.65625 141.484375 C 233.757812 141.425781 233.789062 141.292969 233.730469 141.191406 Z M 233.730469 141.191406 "/>
<path style=" stroke:none;fill-rule:nonzero;fill:rgb(33.72549%,25.098039%,23.921569%);fill-opacity:1;" d="M 232.191406 142.300781 C 231.75 141.730469 231.410156 141.085938 231.191406 140.398438 C 231.109375 140.140625 230.691406 140.25 230.78125 140.511719 C 230.996094 141.230469 231.335938 141.90625 231.78125 142.511719 C 232 142.738281 232.359375 142.519531 232.191406 142.300781 Z M 232.191406 142.300781 "/>
<path style=" stroke:none;fill-rule:nonzero;fill:rgb(33.72549%,25.098039%,23.921569%);fill-opacity:1;" d="M 238.550781 141.050781 C 238.136719 140.210938 237.757812 139.351562 237.410156 138.480469 C 237.308594 138.230469 236.890625 138.339844 237 138.589844 C 237.359375 139.496094 237.753906 140.386719 238.179688 141.261719 C 238.300781 141.519531 238.671875 141.300781 238.550781 141.050781 Z M 238.550781 141.050781 "/>
<path style=" stroke:none;fill-rule:nonzero;fill:rgb(98.431373%,70.980392%,67.843137%);fill-opacity:1;" d="M 143.398438 63.898438 C 143.460938 63.796875 143.492188 63.679688 143.488281 63.558594 C 143.5 62.363281 143.011719 61.21875 142.140625 60.398438 C 141.800781 60.089844 141.335938 59.957031 140.882812 60.039062 C 140.429688 60.121094 140.039062 60.410156 139.828125 60.820312 C 138.890625 62.75 141.039062 64.679688 142.761719 64.910156 C 143.238281 64.96875 143.429688 64.570312 143.351562 64.191406 C 143.386719 64.097656 143.40625 64 143.398438 63.898438 Z M 143.398438 63.898438 "/>
<path style=" stroke:none;fill-rule:nonzero;fill:rgb(21.960784%,14.901961%,14.117647%);fill-opacity:1;" d="M 141.691406 97.261719 L 138.230469 95.328125 L 141.109375 103.210938 Z M 141.691406 97.261719 "/>
<path style=" stroke:none;fill-rule:nonzero;fill:rgb(100%,100%,100%);fill-opacity:1;" d="M 180.289062 174 L 168.890625 180.75 L 177.351562 185.660156 C 179.738281 184.269531 186.578125 180.230469 188.78125 178.929688 Z M 180.289062 174 "/>
<path style=" stroke:none;fill-rule:nonzero;fill:rgb(100%,100%,100%);fill-opacity:1;" d="M 167.800781 166.761719 L 156.398438 173.511719 L 167.109375 179.730469 C 168.980469 178.648438 175.890625 174.570312 178.550781 173 Z M 167.800781 166.761719 "/>
<path style=" stroke:none;fill-rule:nonzero;fill:rgb(100%,100%,100%);fill-opacity:1;" d="M 122.441406 140.421875 L 110.859375 147.070312 L 121.160156 153.070312 C 122.789062 152.128906 129.78125 148 132.601562 146.339844 Z M 122.441406 140.421875 "/>
<path style=" stroke:none;fill-rule:nonzero;fill:rgb(100%,100%,100%);fill-opacity:1;" d="M 146.828125 154.578125 L 135.429688 161.328125 L 143.890625 166.238281 C 145.890625 165.078125 152.761719 161.019531 155.328125 159.511719 Z M 146.828125 154.578125 "/>
<path style=" stroke:none;fill-rule:nonzero;fill:rgb(100%,100%,100%);fill-opacity:1;" d="M 134.339844 147.328125 L 122.941406 154.078125 L 133.648438 160.300781 C 134.910156 159.578125 142.078125 155.300781 145.089844 153.570312 Z M 134.339844 147.328125 "/>
<path style=" stroke:none;fill-rule:nonzero;fill:rgb(100%,100%,100%);fill-opacity:1;" d="M 190.519531 180 L 179.121094 186.75 L 187.210938 191.449219 C 189.640625 190.03125 196.488281 185.988281 198.640625 184.71875 Z M 190.519531 180 "/>
<path style=" stroke:none;fill-rule:nonzero;fill:rgb(100%,100%,100%);fill-opacity:1;" d="M 157.058594 160.519531 L 145.660156 167.269531 L 154.660156 172.46875 C 156.769531 171.25 163.660156 167.199219 166.101562 165.738281 Z M 157.058594 160.519531 "/>
<path style=" stroke:none;fill-rule:nonzero;fill:rgb(100%,100%,100%);fill-opacity:1;" d="M 200.390625 185.679688 L 189 192.441406 L 199.710938 198.660156 C 201.949219 197.359375 208.789062 193.320312 211.140625 191.929688 Z M 200.390625 185.679688 "/>
<path style=" stroke:none;fill-rule:nonzero;fill:rgb(100%,100%,100%);fill-opacity:1;" d="M 212.878906 192.941406 L 201.488281 199.691406 L 220.710938 210.851562 L 232.28125 204.199219 Z M 212.878906 192.941406 "/>
<path style=" stroke:none;fill-rule:nonzero;fill:rgb(100%,100%,100%);fill-opacity:1;" d="M 109.390625 149 L 97.808594 155.648438 L 112.808594 164.339844 C 114.808594 163.199219 121.648438 159.140625 124.25 157.609375 Z M 109.390625 149 "/>
<path style=" stroke:none;fill-rule:nonzero;fill:rgb(100%,100%,100%);fill-opacity:1;" d="M 138.441406 165.910156 L 127 172.660156 L 135.460938 177.570312 C 137.71875 176.25 144.558594 172.21875 146.890625 170.839844 Z M 138.441406 165.910156 "/>
<path style=" stroke:none;fill-rule:nonzero;fill:rgb(100%,100%,100%);fill-opacity:1;" d="M 159.410156 178.089844 L 148 184.839844 L 158.710938 191.058594 C 160.859375 189.808594 167.710938 185.769531 170.148438 184.328125 Z M 159.410156 178.089844 "/>
<path style=" stroke:none;fill-rule:nonzero;fill:rgb(100%,100%,100%);fill-opacity:1;" d="M 148.679688 171.851562 L 137.28125 178.601562 L 146.28125 183.800781 C 148.628906 182.429688 155.46875 178.390625 157.710938 177.070312 Z M 148.679688 171.851562 "/>
<path style=" stroke:none;fill-rule:nonzero;fill:rgb(100%,100%,100%);fill-opacity:1;" d="M 171.898438 185.339844 L 160.5 192.089844 L 169 197 C 171.609375 195.46875 178.5 191.410156 180.429688 190.269531 Z M 171.898438 185.339844 "/>
<path style=" stroke:none;fill-rule:nonzero;fill:rgb(100%,100%,100%);fill-opacity:1;" d="M 182.140625 191.28125 L 170.738281 198 L 178.828125 202.699219 C 181.488281 201.148438 188.390625 197.078125 190.261719 195.96875 Z M 182.140625 191.28125 "/>
<path style=" stroke:none;fill-rule:nonzero;fill:rgb(100%,100%,100%);fill-opacity:1;" d="M 126 158.660156 L 114.601562 165.410156 L 125.308594 171.628906 C 127.011719 170.628906 133.96875 166.539062 136.75 164.898438 Z M 126 158.660156 "/>
<path style=" stroke:none;fill-rule:nonzero;fill:rgb(100%,100%,100%);fill-opacity:1;" d="M 192 197 L 180.601562 203.75 L 191.320312 210 C 193.800781 208.558594 200.640625 204.511719 202.75 203.269531 Z M 192 197 "/>
<path style=" stroke:none;fill-rule:nonzero;fill:rgb(100%,100%,100%);fill-opacity:1;" d="M 193.101562 211.019531 L 207.648438 219.46875 L 219.230469 212.820312 L 204.488281 204.269531 Z M 193.101562 211.019531 "/>
<path style=" stroke:none;fill-rule:nonzero;fill:rgb(100%,100%,100%);fill-opacity:1;" d="M 184.578125 209.859375 L 176.101562 214.898438 L 185.929688 220.589844 L 194.539062 215.648438 Z M 184.578125 209.859375 "/>
<path style=" stroke:none;fill-rule:nonzero;fill:rgb(100%,100%,100%);fill-opacity:1;" d="M 187.960938 221.769531 L 196.320312 226.609375 L 204.941406 221.691406 L 196.429688 216.738281 Z M 187.960938 221.769531 "/>
<path style=" stroke:none;fill-rule:nonzero;fill:rgb(100%,100%,100%);fill-opacity:1;" d="M 95.101562 157.898438 L 86.230469 162.828125 L 96.300781 168.660156 L 105.011719 163.660156 Z M 95.101562 157.898438 "/>
<path style=" stroke:none;fill-rule:nonzero;fill:rgb(100%,100%,100%);fill-opacity:1;" d="M 106.890625 164.75 L 98.328125 169.828125 L 109.078125 176.058594 L 117.78125 171.070312 Z M 106.890625 164.75 "/>
<path style=" stroke:none;fill-rule:nonzero;fill:rgb(100%,100%,100%);fill-opacity:1;" d="M 119.671875 172.171875 L 111.121094 177.238281 L 174.050781 213.710938 L 182.679688 208.761719 Z M 119.671875 172.171875 "/>
<path style=" stroke:none;fill-rule:nonzero;fill:rgb(88.627451%,88.627451%,88.627451%);fill-opacity:1;" d="M 172.433594 48.9375 C 172.160156 39.273438 167.160156 31.578125 161.261719 31.746094 C 155.367188 31.910156 150.808594 39.878906 151.082031 49.539062 C 151.355469 59.199219 156.355469 66.898438 162.253906 66.730469 C 168.148438 66.5625 172.707031 58.597656 172.433594 48.9375 Z M 172.433594 48.9375 "/>
<path style=" stroke:none;fill-rule:nonzero;fill:rgb(89.019608%,33.333333%,25.490196%);fill-opacity:1;" d="M 160.898438 30.230469 C 155 29.699219 149.574219 36.449219 148.777344 45.308594 C 147.976562 54.167969 152.113281 61.777344 158.011719 62.308594 C 163.910156 62.839844 169.339844 56.089844 170.136719 47.230469 C 170.933594 38.371094 166.796875 30.761719 160.898438 30.230469 Z M 160.898438 30.230469 "/>
<path style=" stroke:none;fill-rule:nonzero;fill:rgb(100%,100%,100%);fill-opacity:1;" d="M 159.707031 39.832031 C 157.386719 39.613281 155.3125 41.519531 155.070312 44.089844 C 154.832031 46.65625 156.519531 48.914062 158.839844 49.128906 C 161.160156 49.347656 163.234375 47.441406 163.476562 44.871094 C 163.714844 42.304688 162.027344 40.046875 159.707031 39.832031 Z M 159.707031 39.832031 "/>
<path style=" stroke:none;fill-rule:nonzero;fill:rgb(100%,100%,100%);fill-opacity:1;" d="M 150.109375 54.730469 C 150.109375 54.730469 152.609375 49.199219 157.050781 49.898438 C 161.488281 50.601562 164.308594 52.898438 166.140625 59.148438 C 163.945312 62.359375 159.90625 63.75 156.199219 62.570312 C 152.996094 61.128906 150.714844 58.191406 150.109375 54.730469 Z M 150.109375 54.730469 "/>
<path style=" stroke:none;fill-rule:nonzero;fill:rgb(98.431373%,70.980392%,67.843137%);fill-opacity:1;" d="M 173.210938 51.210938 C 173.1875 51.148438 173.15625 51.085938 173.121094 51.03125 C 173.394531 50.769531 173.539062 50.40625 173.519531 50.03125 C 173.492188 49.777344 173.363281 49.550781 173.160156 49.398438 C 173.351562 49.183594 173.382812 48.867188 173.238281 48.617188 C 173.09375 48.367188 172.804688 48.238281 172.519531 48.300781 C 171.519531 48.488281 170.898438 49.769531 170.378906 50.53125 C 169.988281 51.089844 169.628906 51.671875 169.289062 52.25 C 169.230469 51.410156 169.109375 50.558594 169.050781 49.769531 C 168.988281 48.980469 167.761719 48.929688 167.761719 49.769531 C 167.828125 51.035156 167.699219 52.304688 167.371094 53.53125 C 167.242188 53.59375 167.128906 53.675781 167.03125 53.78125 C 163.402344 57.585938 158.855469 60.394531 153.828125 61.941406 C 153.3125 62.113281 152.976562 62.609375 153.007812 63.15625 C 153.039062 63.699219 153.425781 64.15625 153.960938 64.269531 C 153.996094 64.769531 154.339844 65.191406 154.820312 65.328125 C 154.894531 65.707031 155.128906 66.035156 155.460938 66.230469 L 154.609375 66.601562 C 153.230469 67.179688 153.839844 69.460938 155.238281 68.878906 C 160.511719 66.675781 165.140625 63.175781 168.691406 58.699219 C 169.101562 58.308594 169.5 57.921875 169.898438 57.511719 C 170.519531 56.878906 173.519531 53.871094 172.78125 52.578125 C 173 52.128906 173.429688 51.789062 173.210938 51.210938 Z M 173.210938 51.210938 "/>
<path style=" stroke:none;fill-rule:nonzero;fill:rgb(98.431373%,70.980392%,67.843137%);fill-opacity:1;" d="M 152.410156 37.191406 C 151 37.75 149.910156 40.789062 150.03125 41.429688 L 151.140625 40.871094 L 151.339844 40.648438 C 151.539062 39.453125 151.898438 38.289062 152.410156 37.191406 Z M 152.410156 37.191406 "/>
<path style=" stroke:none;fill-rule:nonzero;fill:rgb(98.431373%,70.980392%,67.843137%);fill-opacity:1;" d="M 152.601562 39.660156 C 152.523438 39.605469 152.441406 39.566406 152.351562 39.539062 L 152.261719 39.460938 C 151.710938 39.03125 150.859375 39.589844 150.359375 39.859375 C 149.71875 40.195312 149.117188 40.597656 148.558594 41.058594 C 148.304688 41.40625 148.125 41.800781 148.03125 42.21875 C 147.820312 42.71875 147.609375 43.21875 147.371094 43.710938 C 146.882812 44.742188 146.332031 45.746094 145.71875 46.710938 C 144.527344 48.578125 143.117188 50.300781 141.519531 51.839844 C 140.78125 52.558594 141.910156 53.679688 142.648438 52.960938 L 143.179688 52.429688 C 143.40625 52.582031 143.703125 52.582031 143.929688 52.429688 C 144.0625 52.339844 144.183594 52.238281 144.300781 52.128906 L 144.46875 51.988281 C 144.566406 52.238281 144.78125 52.421875 145.039062 52.476562 C 145.300781 52.535156 145.570312 52.457031 145.761719 52.269531 L 146.300781 51.699219 C 146.472656 51.636719 146.613281 51.507812 146.691406 51.339844 C 146.691406 51.339844 146.769531 52.429688 146.789062 52.398438 C 147.660156 51.480469 148.691406 48.929688 149.558594 47.398438 C 149.554688 47.328125 149.570312 47.257812 149.609375 47.199219 C 150.132812 46.292969 150.367188 45.246094 150.28125 44.199219 C 150.277344 43.480469 150.339844 42.765625 150.46875 42.058594 L 151.890625 40.960938 C 152.230469 40.699219 152.601562 40.308594 152.53125 39.960938 C 152.570312 39.867188 152.597656 39.761719 152.601562 39.660156 Z M 152.601562 39.660156 "/>
<path style=" stroke:none;fill-rule:nonzero;fill:rgb(3.529412%,25.882353%,30.980392%);fill-opacity:1;" d="M 157.890625 59.699219 C 152.839844 61.179688 151.96875 60.621094 149.578125 60.539062 C 147.191406 60.460938 144.648438 57.109375 144.648438 57.109375 C 144.648438 57.109375 144.050781 49.621094 139.578125 55.480469 C 136.25 59.859375 134.96875 72.539062 134.578125 78.679688 C 136.34375 79.890625 138.390625 80.621094 140.519531 80.800781 C 141.890625 81.03125 143.28125 81.148438 144.671875 81.148438 C 145.523438 81.144531 146.371094 80.960938 147.148438 80.609375 L 149.519531 69.609375 C 153.332031 69.816406 157.097656 68.734375 160.21875 66.539062 Z M 157.890625 59.699219 "/>
<path style=" stroke:none;fill-rule:nonzero;fill:rgb(98.431373%,70.980392%,67.843137%);fill-opacity:1;" d="M 147 50.691406 C 147 50.691406 150.25 56.929688 147 58.691406 C 143.75 60.449219 141.269531 57.539062 141 56.789062 C 140.667969 55.109375 141.1875 53.375 142.390625 52.15625 C 143.589844 50.933594 145.316406 50.386719 147 50.691406 Z M 147 50.691406 "/>
<path style=" stroke:none;fill-rule:nonzero;fill:rgb(33.72549%,25.098039%,23.921569%);fill-opacity:1;" d="M 147.28125 49.761719 C 145.621094 48.703125 143.582031 48.425781 141.699219 49 C 140.0625 49.300781 138.554688 50.089844 137.378906 51.269531 C 136.964844 50.988281 136.480469 50.828125 135.980469 50.800781 C 134.734375 50.707031 133.574219 51.425781 133.101562 52.578125 C 132.710938 53.671875 133.125 54.882812 134.101562 55.511719 C 134.832031 55.894531 135.6875 55.972656 136.480469 55.730469 L 136.480469 55.878906 C 136.589844 57.058594 135.480469 57.648438 135.039062 58.648438 C 134.828125 59.105469 134.769531 59.617188 134.871094 60.109375 C 134.980469 60.601562 135.488281 61.109375 135.480469 61.628906 C 135.390625 62 135.210938 62.34375 134.960938 62.628906 C 134.730469 62.96875 134.542969 63.335938 134.398438 63.71875 C 136.839844 64.847656 139.59375 65.105469 142.199219 64.449219 C 144.992188 63.960938 147.546875 62.582031 149.488281 60.519531 C 149.375 60.265625 149.210938 60.035156 149 59.851562 C 148.566406 59.558594 148.097656 59.3125 147.609375 59.121094 C 146.921875 58.71875 147.609375 57.511719 147.609375 56.859375 C 147.609375 55.738281 146.75 55.269531 145.820312 54.859375 C 145.148438 54.578125 145.121094 54.171875 145.109375 53.488281 C 145.050781 52.949219 145.160156 52.402344 145.429688 51.929688 C 145.632812 51.960938 145.835938 51.917969 146.011719 51.808594 C 146.359375 51.601562 146.730469 51.4375 147.121094 51.320312 C 147.527344 51.175781 147.742188 50.726562 147.601562 50.320312 C 147.601562 50.089844 147.476562 49.875 147.28125 49.761719 Z M 147.28125 49.761719 "/>
<path style=" stroke:none;fill-rule:nonzero;fill:rgb(33.72549%,25.098039%,23.921569%);fill-opacity:1;" d="M 144.820312 52.25 C 145.859375 52.023438 146.871094 51.664062 147.820312 51.179688 C 147.820312 51.078125 148.128906 47.179688 141.238281 48.539062 C 134.351562 49.898438 137.621094 58.128906 137.621094 58.128906 "/>
<path style="fill:none;stroke-width:1;stroke-linecap:round;stroke-linejoin:miter;stroke:rgb(33.72549%,25.098039%,23.921569%);stroke-opacity:1;stroke-dasharray:3.04,3.04;stroke-miterlimit:10;" d="M 210.148438 61.078125 L 258.371094 89.460938 C 259.378906 90.0625 259.976562 91.167969 259.929688 92.339844 L 258.261719 136.25 C 258.230469 137.359375 257.621094 138.367188 256.65625 138.910156 C 255.691406 139.453125 254.507812 139.445312 253.550781 138.890625 L 207 111.75 C 206.019531 111.171875 205.417969 110.117188 205.421875 108.980469 L 205.421875 63.839844 C 205.40625 62.707031 206.003906 61.65625 206.980469 61.085938 C 207.960938 60.511719 209.171875 60.511719 210.148438 61.078125 Z M 210.148438 61.078125 "/>
<path style=" stroke:none;fill-rule:nonzero;fill:rgb(42.745098%,88.235294%,98.823529%);fill-opacity:1;" d="M 239.878906 48.710938 C 237.949219 47.820312 233.371094 44.800781 227.589844 47.578125 C 221.808594 50.359375 216.328125 55.5 222.300781 70.640625 C 224.226562 71.378906 226.359375 71.402344 228.300781 70.699219 C 228.300781 70.699219 227.070312 57.449219 228.929688 55.910156 L 248.351562 66.699219 C 248.789062 71.855469 246.128906 76.78125 241.578125 79.238281 L 246.929688 84.148438 C 251.308594 84.078125 260.929688 70.148438 257.929688 60.25 C 254.929688 50.351562 238.550781 48.199219 238.550781 48.199219 "/>
<path style=" stroke:none;fill-rule:nonzero;fill:rgb(74.509804%,41.960784%,23.921569%);fill-opacity:1;" d="M 239.878906 48.710938 C 237.949219 47.820312 233.371094 44.800781 227.589844 47.578125 C 221.808594 50.359375 216.328125 55.5 222.300781 70.640625 C 224.226562 71.378906 226.359375 71.402344 228.300781 70.699219 C 228.300781 70.699219 227.070312 57.449219 228.929688 55.910156 L 248.351562 66.699219 C 248.789062 71.855469 246.128906 76.78125 241.578125 79.238281 L 246.929688 84.148438 C 251.308594 84.078125 260.929688 70.148438 257.929688 60.25 C 254.929688 50.351562 238.550781 48.199219 238.550781 48.199219 "/>
<path style=" stroke:none;fill-rule:nonzero;fill:rgb(0%,57.254902%,27.058824%);fill-opacity:1;" d="M 246.070312 47.890625 C 244.75 49.351562 242.21875 48.691406 240.550781 48.308594 C 238.550781 47.851562 236.199219 46.621094 236.378906 44.210938 C 236.378906 43.851562 235.839844 43.851562 235.808594 44.210938 C 235.621094 46.71875 237.910156 48.210938 240.078125 48.78125 C 242.011719 49.261719 244.929688 49.988281 246.46875 48.289062 C 246.710938 48 246.308594 47.621094 246.070312 47.890625 Z M 246.070312 47.890625 "/>
<path style=" stroke:none;fill-rule:nonzero;fill:rgb(98.431373%,70.980392%,67.843137%);fill-opacity:1;" d="M 235.269531 42.691406 C 235.269531 42.691406 235.269531 54.980469 239.78125 55.78125 C 244.78125 56.660156 247.519531 51.03125 247.519531 51.03125 C 247.519531 51.03125 248.160156 40.171875 243.230469 39.21875 C 238.300781 38.269531 235.421875 41.121094 235.269531 42.691406 Z M 235.269531 42.691406 "/>
<path style=" stroke:none;fill-rule:nonzero;fill:rgb(33.72549%,25.098039%,23.921569%);fill-opacity:1;" d="M 239.058594 51 C 238.945312 51.007812 238.828125 50.988281 238.71875 50.949219 C 238.816406 49.804688 238.96875 48.660156 239.179688 47.53125 C 239.203125 47.359375 239.085938 47.203125 238.917969 47.171875 C 238.75 47.140625 238.585938 47.25 238.550781 47.421875 C 238.320312 48.628906 238.15625 49.851562 238.058594 51.078125 C 238.039062 51.222656 238.113281 51.363281 238.238281 51.429688 C 238.503906 51.585938 238.804688 51.660156 239.109375 51.648438 C 239.53125 51.601562 239.480469 51 239.058594 51 Z M 239.058594 51 "/>
<path style=" stroke:none;fill-rule:nonzero;fill:rgb(33.72549%,25.098039%,23.921569%);fill-opacity:1;" d="M 241.140625 51.230469 C 240.769531 52.128906 239.75 52.574219 238.839844 52.230469 C 238.578125 52.140625 238.46875 52.550781 238.730469 52.640625 C 239.816406 53.039062 241.027344 52.53125 241.511719 51.480469 C 241.628906 51.199219 241.261719 51 241.140625 51.230469 Z M 241.140625 51.230469 "/>
<path style=" stroke:none;fill-rule:nonzero;fill:rgb(33.72549%,25.098039%,23.921569%);fill-opacity:1;" d="M 240.578125 49.488281 C 240.402344 49.488281 240.261719 49.632812 240.261719 49.808594 C 240.261719 49.988281 240.402344 50.128906 240.578125 50.128906 C 240.757812 50.128906 240.898438 49.988281 240.898438 49.808594 C 240.898438 49.632812 240.757812 49.488281 240.578125 49.488281 Z M 240.578125 49.488281 "/>
<path style=" stroke:none;fill-rule:nonzero;fill:rgb(33.72549%,25.098039%,23.921569%);fill-opacity:1;" d="M 236.609375 48.628906 C 236.433594 48.628906 236.289062 48.773438 236.289062 48.949219 C 236.289062 49.125 236.433594 49.269531 236.609375 49.269531 C 236.785156 49.269531 236.929688 49.125 236.929688 48.949219 C 236.929688 48.773438 236.785156 48.628906 236.609375 48.628906 Z M 236.609375 48.628906 "/>
<path style=" stroke:none;fill-rule:nonzero;fill:rgb(98.431373%,70.980392%,67.843137%);fill-opacity:1;" d="M 244 49.808594 C 244 49.808594 245.191406 45.089844 246.511719 46.648438 C 247.828125 48.210938 244.371094 51.601562 244.371094 51.601562 "/>
<path style=" stroke:none;fill-rule:nonzero;fill:rgb(36.078431%,18.039216%,18.039216%);fill-opacity:1;" d="M 245.230469 37.691406 C 245.230469 37.691406 249.628906 38.160156 250.910156 41.691406 C 252.191406 45.21875 248.910156 52.160156 246.539062 53.25 L 249.398438 47.128906 L 249.261719 43 Z M 245.230469 37.691406 "/>
<path style=" stroke:none;fill-rule:nonzero;fill:rgb(36.078431%,18.039216%,18.039216%);fill-opacity:1;" d="M 250.839844 43.238281 C 250.480469 40.789062 248.839844 39.601562 246.730469 38.339844 L 246.199219 38.058594 C 246.625 37.726562 246.964844 37.304688 247.199219 36.820312 C 247.257812 36.71875 247.257812 36.597656 247.199219 36.5 C 247.140625 36.398438 247.035156 36.339844 246.921875 36.339844 C 246.359375 36.363281 245.832031 36.621094 245.46875 37.050781 C 245.21875 36.542969 244.878906 36.085938 244.46875 35.699219 C 244.386719 35.621094 244.269531 35.59375 244.160156 35.621094 C 244.050781 35.648438 243.964844 35.730469 243.929688 35.839844 C 243.734375 36.320312 243.765625 36.863281 244.011719 37.320312 C 241.796875 36.859375 239.492188 37.214844 237.519531 38.320312 C 236.789062 38.730469 236.167969 39.304688 235.699219 40 C 235.097656 39.9375 234.492188 40.042969 233.949219 40.308594 C 232.753906 40.867188 232.078125 42.148438 232.289062 43.449219 C 232.714844 44.808594 234.144531 45.578125 235.511719 45.179688 C 236.195312 45.054688 236.835938 44.753906 237.371094 44.308594 C 236.96875 44.980469 236.769531 45.839844 238.070312 46.140625 C 240.328125 46.660156 241.398438 45.308594 241.539062 46.441406 C 241.660156 47.359375 242.929688 47.871094 243.839844 47.890625 C 243.910156 48.03125 244.078125 48.398438 244.28125 48.890625 C 244.734375 48.738281 245.222656 48.710938 245.691406 48.808594 C 245.761719 48.726562 245.871094 48.6875 245.980469 48.699219 C 246.089844 48.710938 246.1875 48.773438 246.238281 48.871094 C 247.019531 50.210938 246.839844 51.671875 246.539062 53.21875 C 247.773438 52.175781 248.792969 50.902344 249.539062 49.46875 C 250.574219 47.566406 251.027344 45.398438 250.839844 43.238281 Z M 244.441406 36.648438 L 244.53125 36.789062 C 244.523438 36.824219 244.523438 36.855469 244.53125 36.890625 C 244.53125 36.988281 244.609375 37.101562 244.648438 37.199219 C 244.535156 37.039062 244.460938 36.847656 244.441406 36.648438 Z M 244.441406 36.648438 "/>
<path style=" stroke:none;fill-rule:nonzero;fill:rgb(99.215686%,76.862745%,60.392157%);fill-opacity:1;" d="M 268.769531 102 L 297.460938 118.730469 C 298 119.046875 298.332031 119.625 298.328125 120.25 C 298.332031 120.882812 297.992188 121.464844 297.445312 121.777344 C 296.898438 122.09375 296.222656 122.089844 295.679688 121.769531 L 267 105.140625 C 266.457031 104.828125 266.121094 104.246094 266.121094 103.621094 L 266.121094 103.519531 C 266.121094 102.890625 266.457031 102.304688 267.003906 101.992188 C 267.550781 101.675781 268.226562 101.679688 268.769531 102 Z M 268.769531 102 "/>
<path style=" stroke:none;fill-rule:nonzero;fill:rgb(99.215686%,76.862745%,60.392157%);fill-opacity:1;" d="M 268.769531 111 L 297.460938 127.730469 C 298 128.046875 298.332031 128.625 298.328125 129.25 C 298.332031 129.882812 297.992188 130.464844 297.445312 130.777344 C 296.898438 131.09375 296.222656 131.089844 295.679688 130.769531 L 267 114.191406 C 266.457031 113.875 266.121094 113.296875 266.121094 112.671875 L 266.121094 112.570312 C 266.101562 111.929688 266.429688 111.332031 266.980469 111.003906 C 267.53125 110.675781 268.21875 110.675781 268.769531 111 Z M 268.769531 111 "/>
<path style=" stroke:none;fill-rule:nonzero;fill:rgb(99.215686%,76.862745%,60.392157%);fill-opacity:1;" d="M 268.769531 120.089844 L 297.460938 136.820312 C 298 137.136719 298.332031 137.714844 298.328125 138.339844 C 298.332031 138.972656 297.992188 139.554688 297.445312 139.867188 C 296.898438 140.183594 296.222656 140.179688 295.679688 139.859375 L 267 123.230469 C 266.457031 122.917969 266.121094 122.335938 266.121094 121.710938 L 266.121094 121.609375 C 266.121094 120.980469 266.457031 120.394531 267.003906 120.082031 C 267.550781 119.769531 268.226562 119.769531 268.769531 120.089844 Z M 268.769531 120.089844 "/>
<path style=" stroke:none;fill-rule:nonzero;fill:rgb(98.039216%,92.941176%,83.137255%);fill-opacity:1;" d="M 268.769531 129.128906 L 297.460938 145.859375 C 298 146.175781 298.332031 146.753906 298.328125 147.378906 C 298.332031 148.011719 297.992188 148.59375 297.445312 148.910156 C 296.898438 149.222656 296.222656 149.21875 295.679688 148.898438 L 267 132.28125 C 266.457031 131.964844 266.121094 131.386719 266.121094 130.761719 L 266.121094 130.660156 C 266.117188 130.027344 266.453125 129.441406 267 129.125 C 267.546875 128.808594 268.222656 128.808594 268.769531 129.128906 Z M 268.769531 129.128906 "/>
<path style=" stroke:none;fill-rule:nonzero;fill:rgb(89.019608%,33.333333%,25.490196%);fill-opacity:1;" d="M 196.75 70.71875 L 196.75 99.679688 L 174.339844 86.839844 L 174.339844 58.128906 Z M 196.75 70.71875 "/>
<path style=" stroke:none;fill-rule:nonzero;fill:rgb(89.019608%,33.333333%,25.490196%);fill-opacity:1;" d="M 176.929688 86.839844 L 176.929688 93.921875 L 182.640625 88.949219 Z M 176.929688 86.839844 "/>
<path style=" stroke:none;fill-rule:nonzero;fill:rgb(100%,100%,100%);fill-opacity:1;" d="M 183.179688 73.648438 L 178.179688 76.730469 C 177.855469 76.921875 177.75 77.335938 177.941406 77.660156 L 181.839844 82.96875 C 182.351562 83.671875 183.53125 82.96875 183.011719 82.289062 L 179.058594 77 L 178.820312 77.929688 L 183.820312 74.851562 C 184.558594 74.398438 183.878906 73.21875 183.140625 73.679688 Z M 183.179688 73.648438 "/>
<path style=" stroke:none;fill-rule:nonzero;fill:rgb(100%,100%,100%);fill-opacity:1;" d="M 186.570312 76.390625 L 190.71875 82.261719 L 190.960938 81.328125 L 185.878906 83.871094 C 185.101562 84.261719 185.789062 85.429688 186.558594 85.039062 L 191.640625 82.5 C 191.960938 82.308594 192.070312 81.894531 191.878906 81.570312 L 187.730469 75.699219 C 187.230469 74.988281 186.050781 75.699219 186.558594 76.378906 Z M 186.570312 76.390625 "/>
<path style=" stroke:none;fill-rule:nonzero;fill:rgb(8.235294%,35.294118%,57.647059%);fill-opacity:1;" d="M 298.980469 106.929688 C 298.980469 105.964844 298.257812 105.179688 297.371094 105.179688 C 296.480469 105.179688 295.761719 105.964844 295.761719 106.929688 C 295.761719 107.898438 296.480469 108.679688 297.371094 108.679688 C 298.257812 108.679688 298.980469 107.898438 298.980469 106.929688 Z M 298.980469 106.929688 "/>
<path style=" stroke:none;fill-rule:nonzero;fill:rgb(39.607843%,62.352941%,89.411765%);fill-opacity:1;" d="M 293.839844 104.300781 C 293.839844 103.332031 293.121094 102.550781 292.230469 102.550781 C 291.339844 102.550781 290.621094 103.332031 290.621094 104.300781 C 290.621094 105.265625 291.339844 106.050781 292.230469 106.050781 C 293.121094 106.050781 293.839844 105.265625 293.839844 104.300781 Z M 293.839844 104.300781 "/>
<path style=" stroke:none;fill-rule:nonzero;fill:rgb(77.254902%,91.372549%,100%);fill-opacity:1;" d="M 288.699219 101.75 C 288.699219 100.785156 287.980469 100 287.089844 100 C 286.199219 100 285.480469 100.785156 285.480469 101.75 C 285.480469 102.714844 286.199219 103.5 287.089844 103.5 C 287.980469 103.5 288.699219 102.714844 288.699219 101.75 Z M 288.699219 101.75 "/>
<path style="fill:none;stroke-width:1;stroke-linecap:butt;stroke-linejoin:miter;stroke:rgb(100%,100%,100%);stroke-opacity:1;stroke-miterlimit:10;" d="M 127.46875 124.398438 L 162.691406 144.371094 L 175.53125 137.769531 "/>
<path style="fill:none;stroke-width:1;stroke-linecap:butt;stroke-linejoin:miter;stroke:rgb(100%,100%,100%);stroke-opacity:1;stroke-miterlimit:10;" d="M 162.578125 144.660156 L 162.578125 152.730469 "/>
<path style=" stroke:none;fill-rule:nonzero;fill:rgb(98.431373%,70.980392%,67.843137%);fill-opacity:1;" d="M 137.300781 138 C 136.5625 137.863281 135.871094 137.535156 135.300781 137.050781 C 134.945312 136.390625 134.796875 135.636719 134.878906 134.890625 C 134.878906 134.222656 134.878906 133.527344 134.878906 132.800781 C 134.800781 132.734375 134.753906 132.640625 134.75 132.539062 C 134.710938 131.972656 134.710938 131.40625 134.75 130.839844 L 131.890625 130.558594 C 131.394531 132.355469 131 134.171875 130.699219 136.011719 C 130.78125 136.570312 133.5 140.289062 134.890625 140.539062 C 136.28125 140.789062 140.121094 139.539062 140.441406 139.050781 C 139.398438 138.738281 138.339844 138.410156 137.300781 138 Z M 137.300781 138 "/>
<path style=" stroke:none;fill-rule:nonzero;fill:rgb(98.431373%,70.980392%,67.843137%);fill-opacity:1;" d="M 157.078125 127.839844 C 155.453125 127.851562 153.832031 128.003906 152.230469 128.289062 C 152.230469 128.289062 151.679688 125.101562 151.761719 124.941406 L 147.691406 125.21875 C 147.691406 125.21875 147.179688 131.140625 147.179688 131.921875 C 147.179688 133.351562 148.960938 133.808594 149.351562 133.75 C 149.628906 133.652344 149.902344 133.539062 150.171875 133.410156 C 150.023438 132.671875 149.945312 131.921875 149.941406 131.171875 C 149.941406 130.828125 150.03125 130.578125 150.359375 130.460938 C 151.144531 130.359375 151.9375 130.429688 152.691406 130.671875 C 153.421875 130.808594 154.140625 130.980469 154.871094 131.109375 C 156 130.625 157.039062 129.949219 157.941406 129.109375 C 158.199219 128.320312 158.53125 128.128906 157.078125 127.839844 Z M 157.078125 127.839844 "/>
<path style=" stroke:none;fill-rule:nonzero;fill:rgb(33.72549%,25.098039%,23.921569%);fill-opacity:1;" d="M 158.441406 128.101562 L 158.339844 127.988281 C 158.03125 127.691406 157.210938 127.71875 156.828125 127.699219 C 155.277344 127.710938 153.734375 127.910156 152.230469 128.289062 C 152.230469 128.289062 155.921875 127.789062 156.058594 128.449219 C 156.179688 128.988281 156.042969 129.550781 155.691406 129.96875 C 154.148438 131.339844 151.738281 129.828125 150.238281 129.179688 L 147.449219 127.980469 L 147.269531 130.25 C 147.171875 131.289062 147.171875 132.332031 147.269531 133.371094 C 147.460938 133.691406 149.109375 134.558594 149.460938 134.371094 C 149.808594 134.179688 150.890625 133.539062 150.890625 133.539062 L 150.671875 130.800781 C 150.671875 130.800781 152.96875 131.800781 154.058594 131.519531 C 154.890625 131.320312 159.398438 129.378906 158.441406 128.101562 Z M 158.441406 128.101562 "/>
<path style=" stroke:none;fill-rule:nonzero;fill:rgb(33.72549%,25.098039%,23.921569%);fill-opacity:1;" d="M 133.351562 136.128906 C 133.351562 136.128906 134.851562 140.808594 135.351562 141.128906 C 135.851562 141.449219 141.648438 139.601562 140.789062 138.5 C 140.238281 137.800781 136.789062 137.808594 136.460938 137.71875 C 136.460938 137.71875 138.289062 138.320312 138.289062 138.609375 C 137.609375 139.214844 136.769531 139.609375 135.871094 139.75 C 135.75 139.53125 133.25 135.429688 133.25 135.429688 L 130.898438 134.601562 L 129 138.890625 L 130.640625 139.589844 C 130.640625 139.589844 131.140625 140.898438 131.308594 140.898438 C 131.871094 140.136719 132.378906 139.328125 132.820312 138.488281 C 132.929688 139.085938 133.121094 139.660156 133.390625 140.199219 C 133.621094 140.371094 135.53125 141.941406 136.390625 140.738281 L 134.78125 138.929688 "/>
<path style=" stroke:none;fill-rule:nonzero;fill:rgb(33.72549%,25.098039%,23.921569%);fill-opacity:1;" d="M 129 138.890625 L 129.300781 139.960938 L 131.308594 140.898438 L 131.308594 138.890625 L 130.148438 138.488281 "/>
<path style=" stroke:none;fill-rule:nonzero;fill:rgb(60%,60.392157%,10.980392%);fill-opacity:1;" d="M 145.308594 126.828125 C 148.890625 127.664062 152.65625 126.773438 155.480469 124.421875 C 155.539062 118.421875 156.101562 112.949219 155.921875 106.929688 C 155.628906 97.101562 154.199219 87.449219 147.300781 79.78125 L 134.738281 77.851562 C 129.640625 87.550781 128.601562 131.921875 128.601562 131.921875 C 128.601562 131.921875 135 136 139.871094 134 L 141.761719 97 C 141.761719 97 145.089844 100.941406 145.691406 103.140625 C 146.128906 104.800781 145.230469 119.398438 145.308594 126.828125 Z M 145.308594 126.828125 "/>
<path style=" stroke:none;fill-rule:nonzero;fill:rgb(42.745098%,88.235294%,98.823529%);fill-opacity:1;" d="M 114.320312 102.859375 C 114.320312 96.808594 104.394531 91.898438 92.148438 91.898438 C 79.90625 91.898438 69.980469 96.808594 69.980469 102.859375 C 69.980469 108.914062 79.90625 113.820312 92.148438 113.820312 C 104.394531 113.820312 114.320312 108.914062 114.320312 102.859375 Z M 114.320312 102.859375 "/>
<path style=" stroke:none;fill-rule:nonzero;fill:rgb(40%,20.784314%,20.784314%);fill-opacity:1;" d="M 114.320312 102.859375 C 114.320312 96.808594 104.394531 91.898438 92.148438 91.898438 C 79.90625 91.898438 69.980469 96.808594 69.980469 102.859375 C 69.980469 108.914062 79.90625 113.820312 92.148438 113.820312 C 104.394531 113.820312 114.320312 108.914062 114.320312 102.859375 Z M 114.320312 102.859375 "/>
<path style=" stroke:none;fill-rule:nonzero;fill:url(#linear3);" d="M 325.769531 208.390625 L 307.851562 219 C 307.851562 219 313.398438 228.738281 327.089844 234.488281 L 348 223.28125 "/>
<path style=" stroke:none;fill-rule:nonzero;fill:rgb(3.529412%,25.882353%,30.980392%);fill-opacity:1;" d="M 357.339844 212.410156 C 357.339844 205.941406 349.898438 200.699219 340.71875 200.699219 C 331.542969 200.699219 324.101562 205.941406 324.101562 212.410156 C 324.101562 218.878906 331.542969 224.121094 340.71875 224.121094 C 349.898438 224.121094 357.339844 218.878906 357.339844 212.410156 Z M 357.339844 212.410156 "/>
<path style=" stroke:none;fill-rule:nonzero;fill:rgb(59.215686%,29.803922%,14.901961%);fill-opacity:1;" d="M 353.160156 205.5 C 353.160156 202.683594 347.585938 200.398438 340.710938 200.398438 C 333.835938 200.398438 328.261719 202.683594 328.261719 205.5 C 328.261719 208.316406 333.835938 210.601562 340.710938 210.601562 C 347.585938 210.601562 353.160156 208.316406 353.160156 205.5 Z M 353.160156 205.5 "/>
<path style=" stroke:none;fill-rule:nonzero;fill:rgb(60%,60.392157%,10.980392%);fill-opacity:1;" d="M 340.25 197 C 340.25 194.699219 340.171875 192.398438 339.988281 190.109375 C 339.941406 189.515625 339.890625 188.921875 339.828125 188.328125 L 339.699219 187.160156 C 339.648438 186.820312 339.519531 185.929688 339.519531 185.96875 C 339.441406 185.503906 339.359375 185.035156 339.28125 184.570312 C 337.921875 176.765625 334.886719 169.351562 330.390625 162.828125 C 328.699219 166.859375 327.859375 171.191406 327.921875 175.558594 C 327.921875 176.820312 328.019531 178.078125 328.128906 179.339844 C 328.128906 179.679688 328.128906 179.820312 328.128906 179.871094 C 328.128906 179.921875 328.128906 179.789062 328.179688 180.078125 C 328.28125 180.699219 328.398438 181.320312 328.519531 181.929688 C 329.019531 184.273438 329.691406 186.582031 330.519531 188.828125 C 331.257812 190.898438 332.15625 192.902344 333.210938 194.828125 C 334.339844 197 335.570312 199.121094 336.890625 201.179688 C 337.890625 202.789062 338.890625 204.238281 339.890625 205.609375 C 340.109375 202.75 340.25 199.871094 340.25 197 Z M 333.710938 171.148438 C 333.753906 170.851562 333.734375 170.546875 333.648438 170.261719 C 333.96875 170.585938 334.28125 170.921875 334.578125 171.261719 C 334.296875 171.179688 334.003906 171.140625 333.710938 171.148438 Z M 333.710938 171.148438 "/>
<path style=" stroke:none;fill-rule:nonzero;fill:rgb(60%,60.392157%,10.980392%);fill-opacity:1;" d="M 344.539062 198.769531 C 345.789062 196.839844 346.960938 194.859375 348.050781 192.828125 C 348.328125 192.304688 348.605469 191.773438 348.878906 191.238281 L 349.398438 190.179688 L 349.890625 189.078125 C 350.078125 188.648438 350.261719 188.210938 350.441406 187.769531 C 353.511719 180.472656 354.96875 172.59375 354.710938 164.679688 C 351.097656 167.152344 348.03125 170.339844 345.710938 174.050781 C 345.039062 175.121094 344.429688 176.21875 343.839844 177.339844 L 343.589844 177.808594 C 343.589844 177.808594 343.589844 177.75 343.519531 178.019531 C 343.269531 178.601562 343.03125 179.179688 342.808594 179.761719 C 341.957031 181.996094 341.265625 184.292969 340.738281 186.628906 C 340.238281 188.769531 339.902344 190.945312 339.738281 193.140625 C 339.511719 195.578125 339.410156 198.03125 339.398438 200.46875 C 339.398438 202.378906 339.398438 204.128906 339.519531 205.808594 C 341.308594 203.539062 343 201.191406 344.539062 198.769531 Z M 353 173.488281 C 353.199219 173.265625 353.34375 173 353.429688 172.710938 C 353.523438 173.15625 353.601562 173.605469 353.671875 174.058594 C 353.476562 173.835938 353.25 173.644531 353 173.488281 Z M 353 173.488281 "/>
<path style=" stroke:none;fill-rule:nonzero;fill:rgb(60%,60.392157%,10.980392%);fill-opacity:1;" d="M 344.449219 204.5 C 345.742188 203.832031 347.011719 203.144531 348.261719 202.429688 L 349.261719 201.839844 L 349.878906 201.441406 L 350.5 201.011719 L 351.21875 200.480469 C 355.234375 197.535156 358.5625 193.753906 360.980469 189.398438 C 358.238281 189.574219 355.5625 190.316406 353.121094 191.570312 C 352.410156 191.929688 351.730469 192.328125 351.050781 192.738281 L 350.761719 192.910156 C 350.761719 192.910156 350.761719 192.910156 350.660156 193 C 350.339844 193.230469 350.019531 193.46875 349.710938 193.710938 C 348.527344 194.628906 347.410156 195.632812 346.371094 196.710938 C 345.40625 197.703125 344.523438 198.769531 343.730469 199.898438 C 342.820312 201.140625 341.96875 202.429688 341.179688 203.75 C 340.558594 204.75 340.019531 205.75 339.519531 206.671875 C 341.171875 206 342.820312 205.308594 344.449219 204.5 Z M 357.179688 193.589844 C 357.363281 193.535156 357.527344 193.4375 357.671875 193.308594 C 357.578125 193.582031 357.476562 193.851562 357.371094 194.121094 C 357.335938 193.933594 357.269531 193.753906 357.179688 193.589844 Z M 357.179688 193.589844 "/>
<path style=" stroke:none;fill-rule:nonzero;fill:rgb(60%,60.392157%,10.980392%);fill-opacity:1;" d="M 340.25 197 C 340.25 194.699219 340.171875 192.398438 339.988281 190.109375 C 339.941406 189.515625 339.890625 188.921875 339.828125 188.328125 L 339.699219 187.160156 C 339.648438 186.820312 339.519531 185.929688 339.519531 185.96875 C 339.441406 185.503906 339.359375 185.035156 339.28125 184.570312 C 337.921875 176.765625 334.886719 169.351562 330.390625 162.828125 C 328.699219 166.859375 327.859375 171.191406 327.921875 175.558594 C 327.921875 176.820312 328.019531 178.078125 328.128906 179.339844 C 328.128906 179.679688 328.128906 179.820312 328.128906 179.871094 C 328.128906 179.921875 328.128906 179.789062 328.179688 180.078125 C 328.28125 180.699219 328.398438 181.320312 328.519531 181.929688 C 329.019531 184.273438 329.691406 186.582031 330.519531 188.828125 C 331.257812 190.898438 332.15625 192.902344 333.210938 194.828125 C 334.339844 197 335.570312 199.121094 336.890625 201.179688 C 337.890625 202.789062 338.890625 204.238281 339.890625 205.609375 C 340.109375 202.75 340.25 199.871094 340.25 197 Z M 333.710938 171.148438 C 333.753906 170.851562 333.734375 170.546875 333.648438 170.261719 C 333.96875 170.585938 334.28125 170.921875 334.578125 171.261719 C 334.296875 171.179688 334.003906 171.140625 333.710938 171.148438 Z M 333.710938 171.148438 "/>
<path style=" stroke:none;fill-rule:nonzero;fill:rgb(60%,60.392157%,10.980392%);fill-opacity:1;" d="M 344.539062 198.769531 C 345.789062 196.839844 346.960938 194.859375 348.050781 192.828125 C 348.328125 192.304688 348.605469 191.773438 348.878906 191.238281 L 349.398438 190.179688 L 349.890625 189.078125 C 350.078125 188.648438 350.261719 188.210938 350.441406 187.769531 C 353.511719 180.472656 354.96875 172.59375 354.710938 164.679688 C 351.097656 167.152344 348.03125 170.339844 345.710938 174.050781 C 345.039062 175.121094 344.429688 176.21875 343.839844 177.339844 L 343.589844 177.808594 C 343.589844 177.808594 343.589844 177.75 343.519531 178.019531 C 343.269531 178.601562 343.03125 179.179688 342.808594 179.761719 C 341.957031 181.996094 341.265625 184.292969 340.738281 186.628906 C 340.238281 188.769531 339.902344 190.945312 339.738281 193.140625 C 339.511719 195.578125 339.410156 198.03125 339.398438 200.46875 C 339.398438 202.378906 339.398438 204.128906 339.519531 205.808594 C 341.308594 203.539062 343 201.191406 344.539062 198.769531 Z M 353 173.488281 C 353.199219 173.265625 353.34375 173 353.429688 172.710938 C 353.523438 173.15625 353.601562 173.605469 353.671875 174.058594 C 353.476562 173.835938 353.25 173.644531 353 173.488281 Z M 353 173.488281 "/>
<path style=" stroke:none;fill-rule:nonzero;fill:rgb(60%,60.392157%,10.980392%);fill-opacity:1;" d="M 344.449219 204.5 C 345.742188 203.832031 347.011719 203.144531 348.261719 202.429688 L 349.261719 201.839844 L 349.878906 201.441406 L 350.5 201.011719 L 351.21875 200.480469 C 355.234375 197.535156 358.5625 193.753906 360.980469 189.398438 C 358.238281 189.574219 355.5625 190.316406 353.121094 191.570312 C 352.410156 191.929688 351.730469 192.328125 351.050781 192.738281 L 350.761719 192.910156 C 350.761719 192.910156 350.761719 192.910156 350.660156 193 C 350.339844 193.230469 350.019531 193.46875 349.710938 193.710938 C 348.527344 194.628906 347.410156 195.632812 346.371094 196.710938 C 345.40625 197.703125 344.523438 198.769531 343.730469 199.898438 C 342.820312 201.140625 341.96875 202.429688 341.179688 203.75 C 340.558594 204.75 340.019531 205.75 339.519531 206.671875 C 341.171875 206 342.820312 205.308594 344.449219 204.5 Z M 357.179688 193.589844 C 357.363281 193.535156 357.527344 193.4375 357.671875 193.308594 C 357.578125 193.582031 357.476562 193.851562 357.371094 194.121094 C 357.335938 193.933594 357.269531 193.753906 357.179688 193.589844 Z M 357.179688 193.589844 "/>
</g>
</svg>
