<?xml version="1.0" encoding="UTF-8"?>
<svg xmlns="http://www.w3.org/2000/svg" xmlns:xlink="http://www.w3.org/1999/xlink" width="400px" height="311px" viewBox="0 0 400 311" version="1.1">
<defs>
<filter id="alpha" filterUnits="objectBoundingBox" x="0%" y="0%" width="100%" height="100%">
  <feColorMatrix type="matrix" in="SourceGraphic" values="0 0 0 0 1 0 0 0 0 1 0 0 0 0 1 0 0 0 1 0"/>
</filter>
<mask id="mask0">
  <g filter="url(#alpha)">
<rect x="0" y="0" width="400" height="311" style="fill:rgb(0%,0%,0%);fill-opacity:0.180392;stroke:none;"/>
  </g>
</mask>
<clipPath id="clip1">
  <rect x="0" y="0" width="400" height="311"/>
</clipPath>
<g id="surface5" clip-path="url(#clip1)">
<path style=" stroke:none;fill-rule:nonzero;fill:rgb(3.529412%,25.882353%,30.980392%);fill-opacity:1;" d="M 396.609375 271.8125 C 390.546875 284.132812 376.871094 290.558594 363.796875 294.675781 C 342.902344 301.234375 321.0625 304.253906 299.179688 303.609375 C 272.183594 302.804688 245.566406 296.421875 218.574219 295.703125 C 173.410156 294.496094 129.273438 309.09375 84.164062 310.914062 C 60.476562 311.835938 34.683594 308.3125 17.742188 291.679688 C -4.976562 269.355469 -3.378906 231.449219 9.230469 202.15625 C 21.839844 172.867188 43.144531 148.167969 56.820312 119.332031 C 63.707031 104.808594 68.578125 89.4375 75.316406 74.851562 C 85.496094 52.875 100.207031 32.625 119.894531 18.558594 C 139.582031 4.488281 164.507812 -2.933594 188.367188 1.003906 C 200.195312 2.953125 211.390625 7.558594 222.058594 13.148438 C 224.972656 14.671875 227.847656 16.269531 230.6875 17.910156 C 241.003906 23.933594 251.027344 33.144531 262.519531 36.742188 C 276.3125 40.976562 291.773438 39.472656 305.886719 43.804688 C 320.988281 48.429688 335.457031 56.984375 344.171875 70.164062 C 364.460938 100.734375 348.214844 143.203125 360.765625 177.691406 C 365.074219 189.527344 372.601562 199.921875 379.914062 210.308594 C 387.726562 221.390625 395.300781 232.539062 398.488281 245.589844 C 400.625 254.238281 400.558594 263.777344 396.609375 271.8125 Z M 396.609375 271.8125 "/>
</g>
<linearGradient id="linear0" gradientUnits="userSpaceOnUse" x1="99.91" y1="222.82" x2="124.31" y2="314.79" gradientTransform="matrix(1.056163,0,0,1.058579,-13.52983,-5.599884)">
<stop offset="0.01" style="stop-color:rgb(0%,0%,0%);stop-opacity:1;"/>
<stop offset="0.08" style="stop-color:rgb(0%,0%,0%);stop-opacity:0.690196;"/>
<stop offset="0.21" style="stop-color:rgb(0%,0%,0%);stop-opacity:0.321569;"/>
<stop offset="1" style="stop-color:rgb(0%,0%,0%);stop-opacity:0;"/>
</linearGradient>
<linearGradient id="linear1" gradientUnits="userSpaceOnUse" x1="121.8" y1="139.99" x2="148.08" y2="133.98" gradientTransform="matrix(1.056163,0,0,1.058579,-13.52983,-5.599884)">
<stop offset="0.01" style="stop-color:rgb(0%,0%,0%);stop-opacity:1;"/>
<stop offset="0.08" style="stop-color:rgb(0%,0%,0%);stop-opacity:0.690196;"/>
<stop offset="0.21" style="stop-color:rgb(0%,0%,0%);stop-opacity:0.321569;"/>
<stop offset="1" style="stop-color:rgb(0%,0%,0%);stop-opacity:0;"/>
</linearGradient>
<linearGradient id="linear2" gradientUnits="userSpaceOnUse" x1="116.36" y1="129.87" x2="139.59" y2="119.45" gradientTransform="matrix(1.056163,0,0,1.058579,-13.52983,-5.599884)">
<stop offset="0.01" style="stop-color:rgb(0%,0%,0%);stop-opacity:1;"/>
<stop offset="0.08" style="stop-color:rgb(0%,0%,0%);stop-opacity:0.690196;"/>
<stop offset="0.21" style="stop-color:rgb(0%,0%,0%);stop-opacity:0.321569;"/>
<stop offset="1" style="stop-color:rgb(0%,0%,0%);stop-opacity:0;"/>
</linearGradient>
<linearGradient id="linear3" gradientUnits="userSpaceOnUse" x1="123.41" y1="102.55" x2="85.74" y2="123.81" gradientTransform="matrix(1.056163,0,0,1.058579,-13.52983,-5.599884)">
<stop offset="0.01" style="stop-color:rgb(0%,0%,0%);stop-opacity:1;"/>
<stop offset="0.08" style="stop-color:rgb(0%,0%,0%);stop-opacity:0.690196;"/>
<stop offset="0.21" style="stop-color:rgb(0%,0%,0%);stop-opacity:0.321569;"/>
<stop offset="1" style="stop-color:rgb(0%,0%,0%);stop-opacity:0;"/>
</linearGradient>
<linearGradient id="linear4" gradientUnits="userSpaceOnUse" x1="83.01" y1="148.98" x2="136.36" y2="140.34" gradientTransform="matrix(1.056163,0,0,1.058579,-13.52983,-5.599884)">
<stop offset="0.01" style="stop-color:rgb(0%,0%,0%);stop-opacity:1;"/>
<stop offset="0.08" style="stop-color:rgb(0%,0%,0%);stop-opacity:0.690196;"/>
<stop offset="0.21" style="stop-color:rgb(0%,0%,0%);stop-opacity:0.321569;"/>
<stop offset="1" style="stop-color:rgb(0%,0%,0%);stop-opacity:0;"/>
</linearGradient>
<linearGradient id="linear5" gradientUnits="userSpaceOnUse" x1="77.52" y1="132.46" x2="112.81" y2="159.86" gradientTransform="matrix(1.056163,0,0,1.058579,-13.52983,-5.599884)">
<stop offset="0.01" style="stop-color:rgb(0%,0%,0%);stop-opacity:1;"/>
<stop offset="0.08" style="stop-color:rgb(0%,0%,0%);stop-opacity:0.690196;"/>
<stop offset="0.21" style="stop-color:rgb(0%,0%,0%);stop-opacity:0.321569;"/>
<stop offset="1" style="stop-color:rgb(0%,0%,0%);stop-opacity:0;"/>
</linearGradient>
<linearGradient id="linear6" gradientUnits="userSpaceOnUse" x1="83.59" y1="133.35" x2="128.48" y2="109.57" gradientTransform="matrix(1.056163,0,0,1.058579,-13.52983,-5.599884)">
<stop offset="0.01" style="stop-color:rgb(0%,0%,0%);stop-opacity:1;"/>
<stop offset="0.08" style="stop-color:rgb(0%,0%,0%);stop-opacity:0.690196;"/>
<stop offset="0.21" style="stop-color:rgb(0%,0%,0%);stop-opacity:0.321569;"/>
<stop offset="1" style="stop-color:rgb(0%,0%,0%);stop-opacity:0;"/>
</linearGradient>
<linearGradient id="linear7" gradientUnits="userSpaceOnUse" x1="153.56" y1="156.3" x2="141.74" y2="120.07" gradientTransform="matrix(1.056163,0,0,1.058579,-13.52983,-5.599884)">
<stop offset="0.01" style="stop-color:rgb(0%,0%,0%);stop-opacity:1;"/>
<stop offset="0.08" style="stop-color:rgb(0%,0%,0%);stop-opacity:0.690196;"/>
<stop offset="0.21" style="stop-color:rgb(0%,0%,0%);stop-opacity:0.321569;"/>
<stop offset="1" style="stop-color:rgb(0%,0%,0%);stop-opacity:0;"/>
</linearGradient>
<linearGradient id="linear8" gradientUnits="userSpaceOnUse" x1="90.57" y1="183.78" x2="135.83" y2="193.72" gradientTransform="matrix(1.056163,0,0,1.058579,-13.52983,-5.599884)">
<stop offset="0.01" style="stop-color:rgb(0%,0%,0%);stop-opacity:1;"/>
<stop offset="0.08" style="stop-color:rgb(0%,0%,0%);stop-opacity:0.690196;"/>
<stop offset="0.21" style="stop-color:rgb(0%,0%,0%);stop-opacity:0.321569;"/>
<stop offset="1" style="stop-color:rgb(0%,0%,0%);stop-opacity:0;"/>
</linearGradient>
<linearGradient id="linear9" gradientUnits="userSpaceOnUse" x1="75.94" y1="221.88" x2="121.27" y2="237.51" gradientTransform="matrix(1.056163,0,0,1.058579,-13.52983,-5.599884)">
<stop offset="0.01" style="stop-color:rgb(0%,0%,0%);stop-opacity:1;"/>
<stop offset="0.08" style="stop-color:rgb(0%,0%,0%);stop-opacity:0.690196;"/>
<stop offset="0.21" style="stop-color:rgb(0%,0%,0%);stop-opacity:0.321569;"/>
<stop offset="1" style="stop-color:rgb(0%,0%,0%);stop-opacity:0;"/>
</linearGradient>
<linearGradient id="linear10" gradientUnits="userSpaceOnUse" x1="101.69" y1="218.24" x2="147.02" y2="233.87" gradientTransform="matrix(1.056163,0,0,1.058579,-13.52983,-5.599884)">
<stop offset="0.01" style="stop-color:rgb(0%,0%,0%);stop-opacity:1;"/>
<stop offset="0.08" style="stop-color:rgb(0%,0%,0%);stop-opacity:0.690196;"/>
<stop offset="0.21" style="stop-color:rgb(0%,0%,0%);stop-opacity:0.321569;"/>
<stop offset="1" style="stop-color:rgb(0%,0%,0%);stop-opacity:0;"/>
</linearGradient>
<linearGradient id="linear11" gradientUnits="userSpaceOnUse" x1="100.06" y1="185.19" x2="163.97" y2="190.96" gradientTransform="matrix(1.056163,0,0,1.058579,-13.52983,-5.599884)">
<stop offset="0.01" style="stop-color:rgb(0%,0%,0%);stop-opacity:1;"/>
<stop offset="0.08" style="stop-color:rgb(0%,0%,0%);stop-opacity:0.690196;"/>
<stop offset="0.21" style="stop-color:rgb(0%,0%,0%);stop-opacity:0.321569;"/>
<stop offset="1" style="stop-color:rgb(0%,0%,0%);stop-opacity:0;"/>
</linearGradient>
<linearGradient id="linear12" gradientUnits="userSpaceOnUse" x1="101.69" y1="218.24" x2="147.02" y2="233.87" gradientTransform="matrix(1.056163,0,0,1.058579,-13.52983,-5.599884)">
<stop offset="0.01" style="stop-color:rgb(0%,0%,0%);stop-opacity:1;"/>
<stop offset="0.08" style="stop-color:rgb(0%,0%,0%);stop-opacity:0.690196;"/>
<stop offset="0.21" style="stop-color:rgb(0%,0%,0%);stop-opacity:0.321569;"/>
<stop offset="1" style="stop-color:rgb(0%,0%,0%);stop-opacity:0;"/>
</linearGradient>
<linearGradient id="linear13" gradientUnits="userSpaceOnUse" x1="84.65" y1="267.91" x2="109.99" y2="239.76" gradientTransform="matrix(1.056163,0,0,1.058579,-13.52983,-5.599884)">
<stop offset="0.01" style="stop-color:rgb(0%,0%,0%);stop-opacity:1;"/>
<stop offset="0.08" style="stop-color:rgb(0%,0%,0%);stop-opacity:0.690196;"/>
<stop offset="0.21" style="stop-color:rgb(0%,0%,0%);stop-opacity:0.321569;"/>
<stop offset="1" style="stop-color:rgb(0%,0%,0%);stop-opacity:0;"/>
</linearGradient>
<linearGradient id="linear14" gradientUnits="userSpaceOnUse" x1="110.8" y1="264.32" x2="136.15" y2="236.17" gradientTransform="matrix(1.056163,0,0,1.058579,-13.52983,-5.599884)">
<stop offset="0.01" style="stop-color:rgb(0%,0%,0%);stop-opacity:1;"/>
<stop offset="0.08" style="stop-color:rgb(0%,0%,0%);stop-opacity:0.690196;"/>
<stop offset="0.21" style="stop-color:rgb(0%,0%,0%);stop-opacity:0.321569;"/>
<stop offset="1" style="stop-color:rgb(0%,0%,0%);stop-opacity:0;"/>
</linearGradient>
<linearGradient id="linear15" gradientUnits="userSpaceOnUse" x1="85.17" y1="175.59" x2="111.92" y2="157.01" gradientTransform="matrix(1.056163,0,0,1.058579,-13.52983,-5.599884)">
<stop offset="0.01" style="stop-color:rgb(0%,0%,0%);stop-opacity:1;"/>
<stop offset="0.08" style="stop-color:rgb(0%,0%,0%);stop-opacity:0.690196;"/>
<stop offset="0.21" style="stop-color:rgb(0%,0%,0%);stop-opacity:0.321569;"/>
<stop offset="1" style="stop-color:rgb(0%,0%,0%);stop-opacity:0;"/>
</linearGradient>
<linearGradient id="linear16" gradientUnits="userSpaceOnUse" x1="72.86" y1="180.48" x2="164.65" y2="153.45" gradientTransform="matrix(1.056163,0,0,1.058579,-13.52983,-5.599884)">
<stop offset="0.01" style="stop-color:rgb(0%,0%,0%);stop-opacity:1;"/>
<stop offset="0.08" style="stop-color:rgb(0%,0%,0%);stop-opacity:0.690196;"/>
<stop offset="0.21" style="stop-color:rgb(0%,0%,0%);stop-opacity:0.321569;"/>
<stop offset="1" style="stop-color:rgb(0%,0%,0%);stop-opacity:0;"/>
</linearGradient>
<mask id="mask1">
  <g filter="url(#alpha)">
<rect x="0" y="0" width="400" height="311" style="fill:rgb(0%,0%,0%);fill-opacity:0.160784;stroke:none;"/>
  </g>
</mask>
<clipPath id="clip2">
  <rect x="0" y="0" width="400" height="311"/>
</clipPath>
<g id="surface8" clip-path="url(#clip2)">
<path style=" stroke:none;fill-rule:nonzero;fill:rgb(15.686275%,13.72549%,15.686275%);fill-opacity:1;" d="M 363.171875 270.753906 C 363.171875 256.269531 322.632812 244.53125 272.628906 244.53125 C 222.621094 244.53125 182.082031 256.269531 182.082031 270.753906 C 182.082031 285.234375 222.621094 296.972656 272.628906 296.972656 C 322.632812 296.972656 363.171875 285.234375 363.171875 270.753906 Z M 363.171875 270.753906 "/>
</g>
<linearGradient id="linear17" gradientUnits="userSpaceOnUse" x1="254.53" y1="258.2" x2="263.09" y2="-4.82" gradientTransform="matrix(1.056163,0,0,1.058579,-13.52983,-5.599884)">
<stop offset="0.01" style="stop-color:rgb(100%,100%,100%);stop-opacity:1;"/>
<stop offset="0.13" style="stop-color:rgb(100%,100%,100%);stop-opacity:0.690196;"/>
<stop offset="0.15" style="stop-color:rgb(100%,100%,100%);stop-opacity:0.611765;"/>
<stop offset="0.2" style="stop-color:rgb(100%,100%,100%);stop-opacity:0.470588;"/>
<stop offset="0.25" style="stop-color:rgb(100%,100%,100%);stop-opacity:0.341176;"/>
<stop offset="0.3" style="stop-color:rgb(100%,100%,100%);stop-opacity:0.231373;"/>
<stop offset="0.36" style="stop-color:rgb(100%,100%,100%);stop-opacity:0.14902;"/>
<stop offset="0.44" style="stop-color:rgb(100%,100%,100%);stop-opacity:0.0784314;"/>
<stop offset="0.52" style="stop-color:rgb(100%,100%,100%);stop-opacity:0.0313725;"/>
<stop offset="0.65" style="stop-color:rgb(100%,100%,100%);stop-opacity:0.0117647;"/>
<stop offset="1" style="stop-color:rgb(100%,100%,100%);stop-opacity:0;"/>
</linearGradient>
<mask id="mask2">
  <g filter="url(#alpha)">
<rect x="0" y="0" width="400" height="311" style="fill:rgb(0%,0%,0%);fill-opacity:0.819608;stroke:none;"/>
  </g>
</mask>
<clipPath id="clip3">
  <rect x="0" y="0" width="400" height="311"/>
</clipPath>
<g id="surface11" clip-path="url(#clip3)">
<path style=" stroke:none;fill-rule:nonzero;fill:rgb(3.529412%,25.882353%,30.980392%);fill-opacity:1;" d="M 287.613281 73.792969 C 287.554688 78.5625 284.109375 82.613281 279.421875 83.429688 C 274.730469 84.246094 270.128906 81.597656 268.464844 77.128906 C 268.085938 76.070312 267.894531 74.957031 267.894531 73.835938 C 267.902344 68.367188 272.324219 63.9375 277.78125 63.9375 C 280.101562 63.929688 282.347656 64.746094 284.117188 66.246094 C 286.335938 68.125 287.613281 70.882812 287.613281 73.792969 Z M 287.613281 73.792969 "/>
</g>
<mask id="mask3">
  <g filter="url(#alpha)">
<rect x="0" y="0" width="400" height="311" style="fill:rgb(0%,0%,0%);fill-opacity:0.54902;stroke:none;"/>
  </g>
</mask>
<clipPath id="clip4">
  <rect x="0" y="0" width="400" height="311"/>
</clipPath>
<g id="surface14" clip-path="url(#clip4)">
<path style=" stroke:none;fill-rule:nonzero;fill:rgb(100%,100%,100%);fill-opacity:1;" d="M 284.636719 69.558594 C 284.625 75.003906 280.234375 79.417969 274.804688 79.445312 C 272.484375 79.453125 270.238281 78.628906 268.464844 77.128906 C 268.085938 76.070312 267.894531 74.957031 267.894531 73.835938 C 267.902344 68.367188 272.324219 63.9375 277.78125 63.9375 C 280.101562 63.929688 282.347656 64.746094 284.117188 66.246094 C 284.480469 67.3125 284.65625 68.433594 284.636719 69.558594 Z M 284.636719 69.558594 "/>
</g>
<mask id="mask4">
  <g filter="url(#alpha)">
<rect x="0" y="0" width="400" height="311" style="fill:rgb(0%,0%,0%);fill-opacity:0.819608;stroke:none;"/>
  </g>
</mask>
<clipPath id="clip5">
  <rect x="0" y="0" width="400" height="311"/>
</clipPath>
<g id="surface17" clip-path="url(#clip5)">
<path style=" stroke:none;fill-rule:nonzero;fill:rgb(3.529412%,25.882353%,30.980392%);fill-opacity:1;" d="M 242.535156 159 C 244.28125 157.796875 246.632812 158.023438 248.113281 159.539062 C 249.59375 161.054688 249.769531 163.417969 248.535156 165.136719 C 248.25 165.550781 247.890625 165.910156 247.480469 166.195312 C 246.203125 167.144531 244.515625 167.320312 243.074219 166.65625 C 241.628906 165.992188 240.664062 164.59375 240.550781 163.003906 C 240.433594 161.417969 241.191406 159.894531 242.527344 159.03125 Z M 242.535156 159 "/>
</g>
<mask id="mask5">
  <g filter="url(#alpha)">
<rect x="0" y="0" width="400" height="311" style="fill:rgb(0%,0%,0%);fill-opacity:0.54902;stroke:none;"/>
  </g>
</mask>
<clipPath id="clip6">
  <rect x="0" y="0" width="400" height="311"/>
</clipPath>
<g id="surface20" clip-path="url(#clip6)">
<path style=" stroke:none;fill-rule:nonzero;fill:rgb(100%,100%,100%);fill-opacity:1;" d="M 241.734375 161.15625 C 243.121094 160.191406 244.941406 160.117188 246.402344 160.972656 C 247.863281 161.824219 248.695312 163.453125 248.535156 165.136719 C 248.25 165.550781 247.890625 165.910156 247.480469 166.195312 C 246.089844 167.160156 244.269531 167.234375 242.808594 166.378906 C 241.347656 165.527344 240.515625 163.902344 240.667969 162.214844 C 240.957031 161.804688 241.320312 161.445312 241.734375 161.15625 Z M 241.734375 161.15625 "/>
</g>
<mask id="mask6">
  <g filter="url(#alpha)">
<rect x="0" y="0" width="400" height="311" style="fill:rgb(0%,0%,0%);fill-opacity:0.819608;stroke:none;"/>
  </g>
</mask>
<clipPath id="clip7">
  <rect x="0" y="0" width="400" height="311"/>
</clipPath>
<g id="surface23" clip-path="url(#clip7)">
<path style=" stroke:none;fill-rule:nonzero;fill:rgb(3.529412%,25.882353%,30.980392%);fill-opacity:1;" d="M 239.453125 126.933594 C 241.195312 125.730469 243.546875 125.960938 245.027344 127.476562 C 246.507812 128.992188 246.6875 131.351562 245.453125 133.074219 C 245.167969 133.488281 244.8125 133.847656 244.394531 134.132812 C 243.453125 134.796875 242.285156 135.058594 241.152344 134.859375 C 240.015625 134.664062 239.007812 134.019531 238.34375 133.074219 C 237.765625 132.230469 237.496094 131.214844 237.582031 130.195312 C 237.679688 128.878906 238.367188 127.679688 239.453125 126.933594 Z M 239.453125 126.933594 "/>
</g>
<mask id="mask7">
  <g filter="url(#alpha)">
<rect x="0" y="0" width="400" height="311" style="fill:rgb(0%,0%,0%);fill-opacity:0.54902;stroke:none;"/>
  </g>
</mask>
<clipPath id="clip8">
  <rect x="0" y="0" width="400" height="311"/>
</clipPath>
<g id="surface26" clip-path="url(#clip8)">
<path style=" stroke:none;fill-rule:nonzero;fill:rgb(100%,100%,100%);fill-opacity:1;" d="M 238.648438 129.09375 C 240.039062 128.125 241.859375 128.054688 243.320312 128.90625 C 244.777344 129.761719 245.609375 131.386719 245.453125 133.074219 C 245.167969 133.488281 244.8125 133.847656 244.394531 134.132812 C 243.453125 134.796875 242.285156 135.058594 241.152344 134.859375 C 240.015625 134.664062 239.007812 134.019531 238.34375 133.074219 C 237.765625 132.230469 237.496094 131.214844 237.582031 130.195312 C 237.871094 129.765625 238.230469 129.390625 238.648438 129.09375 Z M 238.648438 129.09375 "/>
</g>
<mask id="mask8">
  <g filter="url(#alpha)">
<rect x="0" y="0" width="400" height="311" style="fill:rgb(0%,0%,0%);fill-opacity:0.819608;stroke:none;"/>
  </g>
</mask>
<clipPath id="clip9">
  <rect x="0" y="0" width="400" height="311"/>
</clipPath>
<g id="surface29" clip-path="url(#clip9)">
<path style=" stroke:none;fill-rule:nonzero;fill:rgb(3.529412%,25.882353%,30.980392%);fill-opacity:1;" d="M 247.785156 161.402344 L 247.269531 159.972656 L 275.902344 149.585938 L 265.921875 133.488281 L 292.980469 126.152344 L 293.371094 127.621094 L 268.285156 134.429688 L 278.191406 150.382812 Z M 247.785156 161.402344 "/>
</g>
<mask id="mask9">
  <g filter="url(#alpha)">
<rect x="0" y="0" width="400" height="311" style="fill:rgb(0%,0%,0%);fill-opacity:0.819608;stroke:none;"/>
  </g>
</mask>
<clipPath id="clip10">
  <rect x="0" y="0" width="400" height="311"/>
</clipPath>
<g id="surface32" clip-path="url(#clip10)">
<path style=" stroke:none;fill-rule:nonzero;fill:rgb(3.529412%,25.882353%,30.980392%);fill-opacity:1;" d="M 294.015625 118.074219 C 297.5 115.65625 302.214844 116.105469 305.183594 119.140625 C 308.152344 122.171875 308.503906 126.910156 306.023438 130.351562 C 305.445312 131.15625 304.730469 131.851562 303.910156 132.40625 C 299.964844 135.046875 294.632812 134.03125 291.929688 130.121094 C 289.222656 126.214844 290.140625 120.855469 293.992188 118.074219 Z M 294.015625 118.074219 "/>
</g>
<mask id="mask10">
  <g filter="url(#alpha)">
<rect x="0" y="0" width="400" height="311" style="fill:rgb(0%,0%,0%);fill-opacity:0.54902;stroke:none;"/>
  </g>
</mask>
<clipPath id="clip11">
  <rect x="0" y="0" width="400" height="311"/>
</clipPath>
<g id="surface35" clip-path="url(#clip11)">
<path style=" stroke:none;fill-rule:nonzero;fill:rgb(100%,100%,100%);fill-opacity:1;" d="M 292.410156 122.394531 C 295.183594 120.460938 298.828125 120.316406 301.75 122.023438 C 304.667969 123.730469 306.335938 126.980469 306.023438 130.351562 C 305.445312 131.15625 304.730469 131.851562 303.910156 132.40625 C 301.132812 134.335938 297.496094 134.480469 294.574219 132.777344 C 291.65625 131.070312 289.984375 127.828125 290.285156 124.457031 C 290.875 123.65625 291.589844 122.957031 292.410156 122.394531 Z M 292.410156 122.394531 "/>
</g>
<mask id="mask11">
  <g filter="url(#alpha)">
<rect x="0" y="0" width="400" height="311" style="fill:rgb(0%,0%,0%);fill-opacity:0.819608;stroke:none;"/>
  </g>
</mask>
<clipPath id="clip12">
  <rect x="0" y="0" width="400" height="311"/>
</clipPath>
<g id="surface38" clip-path="url(#clip12)">
<path style=" stroke:none;fill-rule:nonzero;fill:rgb(3.529412%,25.882353%,30.980392%);fill-opacity:1;" d="M 281.667969 130.214844 L 263.46875 98.902344 L 283.757812 90.191406 L 278.6875 80.929688 L 280.019531 80.199219 L 285.890625 90.933594 L 265.644531 99.621094 L 282.976562 129.441406 Z M 281.667969 130.214844 "/>
</g>
<mask id="mask12">
  <g filter="url(#alpha)">
<rect x="0" y="0" width="400" height="311" style="fill:rgb(0%,0%,0%);fill-opacity:0.819608;stroke:none;"/>
  </g>
</mask>
<clipPath id="clip13">
  <rect x="0" y="0" width="400" height="311"/>
</clipPath>
<g id="surface41" clip-path="url(#clip13)">
<path style=" stroke:none;fill-rule:nonzero;fill:rgb(3.529412%,25.882353%,30.980392%);fill-opacity:1;" d="M 280.222656 183.421875 C 284.25 181.898438 288.792969 183.386719 291.144531 187 C 293.496094 190.613281 293.027344 195.378906 290.015625 198.464844 C 287.003906 201.546875 282.261719 202.117188 278.605469 199.835938 C 274.953125 197.554688 273.371094 193.035156 274.804688 188.96875 C 275.703125 186.40625 277.6875 184.378906 280.222656 183.421875 Z M 280.222656 183.421875 "/>
</g>
<mask id="mask13">
  <g filter="url(#alpha)">
<rect x="0" y="0" width="400" height="311" style="fill:rgb(0%,0%,0%);fill-opacity:0.54902;stroke:none;"/>
  </g>
</mask>
<clipPath id="clip14">
  <rect x="0" y="0" width="400" height="311"/>
</clipPath>
<g id="surface44" clip-path="url(#clip14)">
<path style=" stroke:none;fill-rule:nonzero;fill:rgb(100%,100%,100%);fill-opacity:1;" d="M 277.453125 187.398438 C 282.203125 185.632812 287.480469 188.058594 289.242188 192.820312 C 289.984375 194.847656 289.984375 197.070312 289.242188 199.097656 C 286.0625 201.675781 281.5625 201.835938 278.214844 199.484375 C 274.863281 197.132812 273.472656 192.84375 274.804688 188.96875 C 275.589844 188.296875 276.488281 187.769531 277.453125 187.398438 Z M 277.453125 187.398438 "/>
</g>
<mask id="mask14">
  <g filter="url(#alpha)">
<rect x="0" y="0" width="400" height="311" style="fill:rgb(0%,0%,0%);fill-opacity:0.819608;stroke:none;"/>
  </g>
</mask>
<clipPath id="clip15">
  <rect x="0" y="0" width="400" height="311"/>
</clipPath>
<g id="surface47" clip-path="url(#clip15)">
<path style=" stroke:none;fill-rule:nonzero;fill:rgb(3.529412%,25.882353%,30.980392%);fill-opacity:1;" d="M 299.632812 200.75 C 301.726562 199.980469 304.066406 200.828125 305.1875 202.761719 C 306.304688 204.695312 305.878906 207.152344 304.175781 208.59375 C 303.777344 208.925781 303.320312 209.1875 302.832031 209.367188 C 301.28125 209.996094 299.511719 209.734375 298.214844 208.671875 C 296.914062 207.613281 296.296875 205.929688 296.597656 204.28125 C 296.898438 202.628906 298.074219 201.277344 299.664062 200.75 Z M 299.632812 200.75 "/>
</g>
<mask id="mask15">
  <g filter="url(#alpha)">
<rect x="0" y="0" width="400" height="311" style="fill:rgb(0%,0%,0%);fill-opacity:0.54902;stroke:none;"/>
  </g>
</mask>
<clipPath id="clip16">
  <rect x="0" y="0" width="400" height="311"/>
</clipPath>
<g id="surface50" clip-path="url(#clip16)">
<path style=" stroke:none;fill-rule:nonzero;fill:rgb(100%,100%,100%);fill-opacity:1;" d="M 298.261719 202.738281 C 299.929688 202.117188 301.8125 202.519531 303.078125 203.777344 C 304.347656 205.03125 304.777344 206.910156 304.175781 208.59375 C 303.777344 208.925781 303.320312 209.1875 302.832031 209.367188 C 301.164062 209.984375 299.289062 209.578125 298.023438 208.328125 C 296.753906 207.078125 296.320312 205.207031 296.910156 203.523438 C 297.3125 203.1875 297.769531 202.921875 298.261719 202.738281 Z M 298.261719 202.738281 "/>
</g>
<mask id="mask16">
  <g filter="url(#alpha)">
<rect x="0" y="0" width="400" height="311" style="fill:rgb(0%,0%,0%);fill-opacity:0.819608;stroke:none;"/>
  </g>
</mask>
<clipPath id="clip17">
  <rect x="0" y="0" width="400" height="311"/>
</clipPath>
<g id="surface53" clip-path="url(#clip17)">
<path style=" stroke:none;fill-rule:nonzero;fill:rgb(3.529412%,25.882353%,30.980392%);fill-opacity:1;" d="M 273.851562 212.996094 C 276.296875 212.082031 279.015625 213.328125 279.925781 215.78125 C 280.835938 218.230469 279.589844 220.957031 277.144531 221.867188 C 274.699219 222.777344 271.980469 221.523438 271.074219 219.074219 C 270.707031 218.046875 270.707031 216.921875 271.074219 215.898438 C 271.523438 214.566406 272.542969 213.5 273.851562 212.996094 Z M 273.851562 212.996094 "/>
</g>
<mask id="mask17">
  <g filter="url(#alpha)">
<rect x="0" y="0" width="400" height="311" style="fill:rgb(0%,0%,0%);fill-opacity:0.54902;stroke:none;"/>
  </g>
</mask>
<clipPath id="clip18">
  <rect x="0" y="0" width="400" height="311"/>
</clipPath>
<g id="surface56" clip-path="url(#clip18)">
<path style=" stroke:none;fill-rule:nonzero;fill:rgb(100%,100%,100%);fill-opacity:1;" d="M 272.425781 215.050781 C 273.847656 213.820312 275.910156 213.699219 277.464844 214.746094 C 279.023438 215.796875 279.6875 217.757812 279.089844 219.539062 C 278.488281 221.320312 276.777344 222.480469 274.902344 222.371094 C 273.03125 222.261719 271.464844 220.910156 271.074219 219.074219 C 270.707031 218.046875 270.707031 216.921875 271.074219 215.898438 C 271.472656 215.539062 271.929688 215.25 272.425781 215.050781 Z M 272.425781 215.050781 "/>
</g>
<mask id="mask18">
  <g filter="url(#alpha)">
<rect x="0" y="0" width="400" height="311" style="fill:rgb(0%,0%,0%);fill-opacity:0.819608;stroke:none;"/>
  </g>
</mask>
<clipPath id="clip19">
  <rect x="0" y="0" width="400" height="311"/>
</clipPath>
<g id="surface59" clip-path="url(#clip19)">
<path style=" stroke:none;fill-rule:nonzero;fill:rgb(3.529412%,25.882353%,30.980392%);fill-opacity:1;" d="M 289.050781 219.65625 L 281.785156 212 L 278.488281 215.8125 L 277.949219 215.335938 L 281.761719 210.921875 L 289.007812 218.554688 L 299.441406 205.832031 L 300.003906 206.285156 Z M 289.050781 219.65625 "/>
</g>
</defs>
<g id="surface1">
<use xlink:href="#surface5" mask="url(#mask0)"/>
<path style=" stroke:none;fill-rule:nonzero;fill:url(#linear0);" d="M 117.339844 255.996094 C 95.882812 257.589844 74.734375 262.011719 54.433594 269.15625 C 52.988281 269.664062 51.265625 270.519531 51.265625 272.066406 C 51.265625 273.609375 52.851562 274.542969 54.277344 275.050781 C 60.433594 277.253906 67.117188 277.335938 73.65625 277.390625 C 98.941406 277.632812 124.773438 277.78125 148.738281 269.703125 C 150.851562 268.984375 153.4375 267.535156 153.164062 265.28125 C 152.890625 263.023438 150.164062 262.273438 147.96875 261.976562 L 111.035156 256.929688 "/>
<path style=" stroke:none;fill-rule:nonzero;fill:rgb(100%,100%,100%);fill-opacity:1;" d="M 133.964844 147.808594 C 133.699219 148.039062 133.371094 148.175781 133.023438 148.199219 C 130.910156 148.390625 127.457031 145.492188 126.265625 144.550781 L 121.921875 141.097656 C 119.144531 138.894531 116.535156 135.296875 119.28125 131.996094 C 119.363281 131.890625 119.453125 131.792969 119.546875 131.699219 C 119.8125 131.417969 120.117188 131.179688 120.453125 130.988281 C 121.171875 130.582031 122 130.414062 122.820312 130.511719 C 124.699219 130.746094 126.136719 132.3125 127.308594 133.835938 C 129.582031 136.800781 131.535156 139.988281 133.539062 143.152344 C 134.023438 143.855469 134.378906 144.636719 134.597656 145.460938 C 134.820312 146.300781 134.582031 147.195312 133.964844 147.808594 Z M 133.964844 147.808594 "/>
<path style=" stroke:none;fill-rule:nonzero;fill:url(#linear1);" d="M 133.023438 148.199219 C 130.910156 148.390625 127.457031 145.492188 126.265625 144.550781 L 121.921875 141.097656 C 119.144531 138.894531 116.535156 135.296875 119.28125 131.996094 C 119.921875 131.695312 120.632812 131.582031 121.332031 131.667969 C 123.234375 131.898438 124.660156 133.464844 125.820312 134.988281 C 128.089844 137.964844 130.046875 141.140625 132.050781 144.316406 C 132.539062 145.011719 132.898438 145.789062 133.109375 146.613281 C 133.234375 147.140625 133.203125 147.691406 133.023438 148.199219 Z M 133.023438 148.199219 "/>
<path style=" stroke:none;fill-rule:nonzero;fill:rgb(100%,100%,100%);fill-opacity:1;" d="M 122.28125 122.488281 C 122.882812 123.054688 123.402344 123.707031 123.8125 124.425781 L 125.800781 127.601562 C 126.519531 128.539062 126.960938 129.664062 127.078125 130.839844 C 127.097656 131.066406 127.027344 131.289062 126.886719 131.464844 C 126.753906 131.578125 126.59375 131.652344 126.421875 131.675781 C 124.226562 132.226562 121.96875 132.511719 119.707031 132.523438 C 118.917969 132.53125 118.140625 132.359375 117.433594 132.015625 C 116.296875 131.261719 115.496094 130.097656 115.195312 128.765625 C 114.582031 126.976562 112.820312 123.261719 114.792969 121.777344 C 116.578125 120.488281 120.6875 121.101562 122.28125 122.488281 Z M 122.28125 122.488281 "/>
<path style=" stroke:none;fill-rule:nonzero;fill:url(#linear2);" d="M 122.578125 122.488281 C 123.179688 123.054688 123.695312 123.707031 124.109375 124.425781 L 126.09375 127.601562 C 126.8125 128.539062 127.257812 129.664062 127.371094 130.839844 C 127.394531 131.066406 127.324219 131.289062 127.183594 131.464844 C 127.050781 131.578125 126.890625 131.652344 126.71875 131.675781 C 124.519531 132.226562 122.265625 132.511719 120 132.523438 C 119.226562 132.570312 118.457031 132.441406 117.742188 132.140625 C 116.605469 131.390625 115.800781 130.226562 115.5 128.894531 C 114.890625 127.105469 113.136719 123.386719 115.101562 121.90625 C 116.886719 120.488281 120.984375 121.101562 122.578125 122.488281 Z M 122.578125 122.488281 "/>
<path style=" stroke:none;fill-rule:nonzero;fill:rgb(100%,100%,100%);fill-opacity:1;" d="M 98.570312 102.542969 C 98.519531 104.417969 99.03125 106.261719 100.039062 107.835938 C 100.300781 108.167969 100.53125 108.523438 100.726562 108.894531 C 101.023438 109.78125 101.066406 110.730469 100.851562 111.636719 C 100.523438 113.851562 100.15625 116.199219 98.667969 117.871094 C 98.578125 117.960938 98.503906 118.066406 98.457031 118.179688 C 98.359375 118.476562 98.625 118.773438 98.855469 118.984375 C 99.605469 119.671875 100.378906 120.339844 101.160156 121.007812 C 101.960938 121.738281 102.855469 122.355469 103.820312 122.847656 C 105.207031 123.472656 106.765625 123.582031 108.226562 123.15625 C 108.433594 123.121094 108.621094 123 108.730469 122.816406 C 108.78125 122.664062 108.78125 122.503906 108.730469 122.351562 C 108.332031 120.414062 108.03125 118.453125 107.832031 116.484375 C 107.777344 116.066406 107.777344 115.644531 107.832031 115.226562 C 107.925781 114.863281 108.050781 114.507812 108.203125 114.167969 C 108.5625 113.113281 108.773438 112.019531 108.835938 110.90625 C 109.070312 108.609375 108.890625 106.289062 108.296875 104.058594 C 107.707031 101.808594 106.476562 99.78125 104.761719 98.214844 C 103.554688 97.15625 101.273438 95.992188 99.773438 97.21875 C 99.339844 97.707031 99.070312 98.316406 99.003906 98.964844 C 98.722656 100.136719 98.578125 101.339844 98.570312 102.542969 Z M 98.570312 102.542969 "/>
<path style=" stroke:none;fill-rule:nonzero;fill:url(#linear3);" d="M 98.570312 102.542969 C 98.519531 104.417969 99.03125 106.261719 100.039062 107.835938 C 100.300781 108.167969 100.53125 108.523438 100.726562 108.894531 C 101.023438 109.78125 101.066406 110.730469 100.851562 111.636719 C 100.523438 113.851562 100.15625 116.199219 98.667969 117.871094 C 98.578125 117.960938 98.503906 118.066406 98.457031 118.179688 C 98.359375 118.476562 98.625 118.773438 98.855469 118.984375 C 99.605469 119.671875 100.378906 120.339844 101.160156 121.007812 C 101.960938 121.738281 102.855469 122.355469 103.820312 122.847656 C 105.207031 123.472656 106.765625 123.582031 108.226562 123.15625 C 108.433594 123.121094 108.621094 123 108.730469 122.816406 C 108.78125 122.664062 108.78125 122.503906 108.730469 122.351562 C 108.332031 120.414062 108.03125 118.453125 107.832031 116.484375 C 107.777344 116.066406 107.777344 115.644531 107.832031 115.226562 C 107.925781 114.863281 108.050781 114.507812 108.203125 114.167969 C 108.5625 113.113281 108.773438 112.019531 108.835938 110.90625 C 109.070312 108.609375 108.890625 106.289062 108.296875 104.058594 C 107.707031 101.808594 106.476562 99.78125 104.761719 98.214844 C 103.554688 97.15625 101.273438 95.992188 99.773438 97.21875 C 99.339844 97.707031 99.070312 98.316406 99.003906 98.964844 C 98.722656 100.136719 98.578125 101.339844 98.570312 102.542969 Z M 98.570312 102.542969 "/>
<path style=" stroke:none;fill-rule:nonzero;fill:rgb(100%,100%,100%);fill-opacity:1;" d="M 97.207031 95.347656 C 97.246094 94.527344 97.492188 93.730469 97.925781 93.039062 L 99.226562 90.550781 C 99.523438 89.921875 99.902344 89.332031 100.347656 88.792969 C 101.152344 87.96875 102.191406 87.40625 103.324219 87.183594 C 105.035156 86.859375 106.789062 86.789062 108.519531 86.984375 C 109.449219 87.019531 110.375 87.148438 111.277344 87.375 C 113.882812 88.28125 115.925781 90.339844 116.820312 92.953125 C 117.671875 95.542969 118.027344 98.269531 117.878906 100.988281 C 117.890625 102.347656 117.800781 103.707031 117.601562 105.054688 C 117.191406 107.179688 116.480469 109.234375 115.492188 111.160156 C 115.066406 112.148438 114.5 113.070312 113.8125 113.890625 C 113.054688 114.878906 111.886719 115.460938 110.644531 115.460938 C 109.402344 115.460938 108.230469 114.878906 107.476562 113.890625 C 106.601562 112.878906 105.914062 111.722656 105.4375 110.472656 C 104.785156 109.21875 104.425781 107.832031 104.378906 106.417969 C 104.507812 105.613281 104.558594 104.800781 104.539062 103.984375 C 104.328125 103.042969 103.886719 102.167969 103.25 101.445312 C 102.65625 100.515625 101.902344 99.707031 101.023438 99.050781 C 100.210938 98.542969 99.449219 97.960938 98.742188 97.316406 C 98.179688 96.722656 97.25 96.457031 97.207031 95.347656 Z M 97.207031 95.347656 "/>
<path style=" stroke:none;fill-rule:nonzero;fill:rgb(100%,100%,100%);fill-opacity:1;" d="M 121.554688 153.820312 C 121.792969 155.957031 121.601562 158.117188 120.992188 160.171875 C 120.921875 160.429688 120.78125 160.65625 120.582031 160.828125 C 120.28125 161 119.933594 161.066406 119.589844 161.019531 C 117.308594 160.960938 115.027344 161.082031 112.765625 161.378906 C 111.425781 161.558594 110.09375 161.804688 108.753906 162.003906 C 107.929688 162.132812 107.105469 162.238281 106.28125 162.300781 C 103.648438 162.5 101.003906 162.273438 98.445312 161.625 C 98.167969 161.570312 97.90625 161.460938 97.671875 161.304688 C 97.382812 161.058594 97.15625 160.742188 97.019531 160.386719 L 91.738281 149.523438 C 90.742188 147.578125 89.871094 145.570312 89.128906 143.511719 C 88.417969 141.421875 87.992188 139.246094 87.863281 137.042969 C 87.785156 135.742188 87.8125 134.433594 87.945312 133.136719 C 87.871094 132.523438 88.070312 131.90625 88.488281 131.449219 C 88.90625 130.992188 89.503906 130.742188 90.121094 130.765625 C 91.363281 130.636719 92.589844 130.414062 93.796875 130.097656 C 95.015625 129.78125 96.058594 128.988281 96.691406 127.898438 C 97.484375 126.363281 96.988281 124.476562 96.28125 122.902344 C 95.859375 121.804688 95.15625 120.839844 94.242188 120.105469 C 93.679688 119.714844 92.921875 119.175781 93.183594 118.5625 C 93.273438 118.386719 93.410156 118.238281 93.574219 118.136719 C 95.773438 116.59375 98 117.535156 99.765625 119.089844 C 101.820312 120.808594 104.507812 121.578125 107.15625 121.207031 C 108.667969 121.015625 108.046875 119.546875 107.960938 118.382812 C 109.195312 118.730469 110.410156 119.144531 111.613281 119.585938 C 112.761719 119.957031 113.832031 120.523438 114.785156 121.261719 C 115.59375 122.039062 116.285156 122.933594 116.832031 123.917969 C 117.433594 124.871094 118.027344 125.824219 118.554688 126.808594 C 122.988281 135.191406 121.3125 144.71875 121.554688 153.820312 Z M 121.554688 153.820312 "/>
<path style=" stroke:none;fill-rule:nonzero;fill:url(#linear4);" d="M 108.753906 161.972656 C 107.929688 162.101562 107.105469 162.207031 106.28125 162.269531 C 103.648438 162.46875 101.003906 162.242188 98.445312 161.59375 C 98.167969 161.539062 97.90625 161.429688 97.671875 161.273438 C 97.382812 161.027344 97.15625 160.710938 97.019531 160.355469 L 91.738281 149.492188 C 90.742188 147.546875 89.871094 145.539062 89.128906 143.480469 C 88.421875 141.402344 87.996094 139.234375 87.863281 137.042969 C 88.761719 136.367188 89.835938 135.964844 90.957031 135.878906 C 92.605469 135.707031 94.230469 135.351562 95.804688 134.820312 C 96.394531 134.609375 101.085938 132.882812 101.085938 132.214844 C 101.402344 134.480469 99.203125 136.21875 97.316406 137.507812 C 96.726562 137.828125 96.246094 138.320312 95.941406 138.917969 C 95.757812 139.546875 95.757812 140.214844 95.941406 140.84375 C 96.945312 145.492188 98.195312 150.085938 99.679688 154.605469 C 100.027344 155.984375 100.675781 157.269531 101.582031 158.363281 C 103.472656 160.34375 106.503906 160.511719 108.753906 161.972656 Z M 108.753906 161.972656 "/>
<path style=" stroke:none;fill-rule:nonzero;fill:rgb(100%,100%,100%);fill-opacity:1;" d="M 83.933594 156.933594 C 83.554688 157.957031 82.976562 158.890625 82.234375 159.6875 C 81.460938 160.492188 80.300781 160.777344 79.242188 160.425781 C 78.949219 160.296875 78.6875 160.105469 78.472656 159.867188 C 77.742188 158.800781 77.402344 157.515625 77.511719 156.226562 C 77.539062 149.628906 78.382812 143.0625 80.023438 136.671875 C 80.457031 134.988281 80.773438 131.996094 82.453125 131.03125 C 83.246094 130.8125 84.074219 130.742188 84.894531 130.820312 C 87.007812 130.894531 89.742188 131.339844 89.804688 132.027344 C 90.648438 140.621094 87.449219 149.058594 83.933594 156.933594 Z M 83.933594 156.933594 "/>
<path style=" stroke:none;fill-rule:nonzero;fill:url(#linear5);" d="M 80.871094 156.605469 C 80.496094 157.628906 79.917969 158.566406 79.167969 159.359375 C 78.960938 159.558594 78.726562 159.730469 78.472656 159.867188 C 77.742188 158.800781 77.402344 157.515625 77.511719 156.226562 C 77.539062 149.628906 78.382812 143.0625 80.023438 136.671875 C 80.457031 134.988281 80.773438 131.996094 82.453125 131.03125 C 83.246094 130.8125 84.074219 130.742188 84.894531 130.820312 C 85.949219 131.042969 86.699219 131.328125 86.742188 131.699219 C 87.597656 140.292969 84.40625 148.730469 80.871094 156.605469 Z M 80.871094 156.605469 "/>
<path style=" stroke:none;fill-rule:nonzero;fill:rgb(100%,100%,100%);fill-opacity:1;" d="M 90.300781 119.3125 C 88.296875 120.355469 86.828125 122.203125 86.257812 124.394531 C 85.523438 126.566406 85.765625 128.953125 86.921875 130.9375 C 88.660156 133.449219 91.949219 134.34375 94.714844 133.054688 C 95.179688 132.816406 95.609375 132.523438 96.003906 132.183594 C 98.5 129.949219 99.203125 126.324219 97.726562 123.3125 C 96.164062 120.265625 94.199219 117.503906 90.300781 119.3125 Z M 90.300781 119.3125 "/>
<path style=" stroke:none;fill-rule:nonzero;fill:url(#linear6);" d="M 90.300781 119.3125 C 88.296875 120.355469 86.828125 122.203125 86.257812 124.394531 C 85.523438 126.566406 85.765625 128.953125 86.921875 130.9375 C 88.660156 133.449219 91.949219 134.34375 94.714844 133.054688 C 95.179688 132.816406 95.609375 132.523438 96.003906 132.183594 C 98.5 129.949219 99.203125 126.324219 97.726562 123.3125 C 96.164062 120.265625 94.199219 117.503906 90.300781 119.3125 Z M 90.300781 119.3125 "/>
<path style=" stroke:none;fill-rule:nonzero;fill:rgb(100%,100%,100%);fill-opacity:1;" d="M 90.152344 135.191406 C 91.214844 134.882812 92.078125 134.101562 92.488281 133.074219 C 93.332031 131.625 93.972656 130.070312 94.398438 128.449219 C 94.820312 126.808594 94.546875 125.066406 93.648438 123.632812 C 92.621094 122.417969 91.300781 121.488281 89.816406 120.933594 C 88.714844 120.332031 87.511719 119.941406 86.265625 119.789062 C 83.6875 119.796875 81.382812 121.394531 80.46875 123.8125 C 79.632812 126.210938 79.632812 128.824219 80.46875 131.222656 C 81.308594 133.597656 82.292969 135.917969 83.414062 138.175781 C 83.933594 139.351562 86.203125 137.117188 86.488281 136.894531 C 87.617188 136.144531 88.855469 135.570312 90.152344 135.191406 Z M 90.152344 135.191406 "/>
<path style=" stroke:none;fill-rule:nonzero;fill:rgb(100%,100%,100%);fill-opacity:1;" d="M 83.46875 158.617188 C 82.550781 158.414062 81.601562 158.375 80.667969 158.5 C 79.742188 158.636719 78.910156 159.140625 78.355469 159.898438 C 78.054688 160.351562 77.894531 160.878906 77.890625 161.421875 C 77.871094 161.90625 78.078125 162.375 78.453125 162.683594 C 78.726562 162.847656 79.039062 162.933594 79.359375 162.925781 C 80.429688 163 81.484375 162.664062 82.316406 161.984375 C 83.148438 161.285156 83.511719 160.171875 83.246094 159.113281 "/>
<path style=" stroke:none;fill-rule:nonzero;fill:rgb(100%,100%,100%);fill-opacity:1;" d="M 154.949219 136.523438 C 154.925781 136.648438 154.890625 136.773438 154.855469 136.894531 C 153.925781 139.34375 152.359375 141.5 150.324219 143.140625 C 147.28125 145.941406 143.886719 148.332031 140.226562 150.246094 C 137.542969 151.652344 133.824219 152.859375 131.585938 150.085938 L 131.40625 149.851562 C 129.378906 147.070312 132.09375 144.898438 134.332031 143.425781 C 139.867188 139.765625 146.519531 138.410156 152.234375 135.097656 C 152.933594 134.695312 153.839844 134.257812 154.503906 134.714844 C 154.996094 135.179688 155.171875 135.886719 154.949219 136.523438 Z M 154.949219 136.523438 "/>
<path style=" stroke:none;fill-rule:nonzero;fill:url(#linear7);" d="M 154.949219 136.523438 C 154.925781 136.648438 154.890625 136.773438 154.855469 136.894531 C 153.925781 139.34375 152.359375 141.5 150.324219 143.140625 C 147.28125 145.941406 143.886719 148.332031 140.226562 150.246094 C 137.542969 151.652344 133.824219 152.859375 131.585938 150.085938 C 131.460938 148.128906 133.5 146.558594 135.230469 145.40625 C 140.753906 141.742188 147.410156 140.390625 153.1875 137.085938 C 153.699219 136.710938 154.316406 136.515625 154.949219 136.523438 Z M 154.949219 136.523438 "/>
<path style=" stroke:none;fill-rule:nonzero;fill:rgb(100%,100%,100%);fill-opacity:1;" d="M 154.398438 131.304688 C 154.726562 129.335938 155.359375 127.1875 157.070312 126.171875 C 157.261719 126.046875 157.546875 126.171875 157.632812 126.414062 C 157.695312 126.644531 157.671875 126.890625 157.570312 127.105469 C 157.324219 127.78125 156.894531 128.363281 156.609375 129.03125 C 156.261719 129.671875 156.242188 130.4375 156.554688 131.09375 C 158.917969 129.738281 160.695312 127.550781 161.539062 124.953125 C 161.617188 124.609375 161.765625 124.285156 161.972656 124.003906 C 162.191406 123.71875 162.574219 123.617188 162.902344 123.757812 C 162.671875 126.019531 162.089844 128.230469 161.179688 130.3125 L 164.773438 125.535156 C 164.734375 127.683594 164.082031 129.773438 162.890625 131.558594 C 164.007812 130.421875 165.035156 129.199219 165.953125 127.898438 C 166.378906 130.195312 164.773438 132.3125 163.261719 134.101562 C 164.078125 133.269531 165.023438 132.570312 166.058594 132.035156 C 164.179688 135.953125 159.859375 138.3125 155.816406 139.382812 C 154.019531 139.859375 152.308594 139.679688 152.742188 137.5 C 153.175781 135.316406 154.0625 133.457031 154.398438 131.304688 Z M 154.398438 131.304688 "/>
<path style=" stroke:none;fill-rule:nonzero;fill:rgb(100%,100%,100%);fill-opacity:1;" d="M 109.511719 185.527344 C 108.234375 193.710938 106.109375 201.738281 103.175781 209.480469 C 102.695312 211.125 101.871094 212.648438 100.757812 213.949219 C 100.464844 214.253906 100.132812 214.519531 99.773438 214.742188 C 98.703125 215.480469 97.339844 215.648438 96.121094 215.1875 C 94.105469 214.296875 93.566406 211.746094 93.363281 209.566406 C 92.582031 201.292969 92.734375 192.960938 93.820312 184.722656 C 94.292969 181.195312 94.78125 174.84375 97.800781 172.390625 C 99.460938 171.273438 101.550781 171.015625 103.429688 171.703125 C 105.035156 172.125 106.496094 172.976562 107.65625 174.167969 C 110.230469 177.144531 110.042969 181.597656 109.511719 185.527344 Z M 109.511719 185.527344 "/>
<path style=" stroke:none;fill-rule:nonzero;fill:url(#linear8);" d="M 109.511719 185.527344 C 108.234375 193.710938 106.109375 201.738281 103.175781 209.480469 C 102.695312 211.125 101.871094 212.648438 100.757812 213.949219 C 100.464844 214.253906 100.132812 214.519531 99.773438 214.742188 C 98.359375 213.621094 97.925781 211.453125 97.746094 209.566406 C 96.960938 201.292969 97.117188 192.960938 98.210938 184.722656 C 98.675781 181.195312 99.164062 174.84375 102.195312 172.390625 C 102.5625 172.089844 102.980469 171.859375 103.429688 171.703125 C 105.035156 172.125 106.496094 172.976562 107.65625 174.167969 C 110.230469 177.144531 110.042969 181.597656 109.511719 185.527344 Z M 109.511719 185.527344 "/>
<path style=" stroke:none;fill-rule:nonzero;fill:rgb(100%,100%,100%);fill-opacity:1;" d="M 97.261719 211.621094 C 96.507812 211.707031 95.785156 211.96875 95.148438 212.382812 C 94.515625 212.730469 93.972656 213.222656 93.566406 213.824219 C 92.804688 215.183594 93.074219 216.886719 94.210938 217.949219 C 95.367188 218.96875 96.976562 219.289062 98.433594 218.789062 C 98.753906 218.6875 99.058594 218.539062 99.332031 218.34375 C 100.058594 217.683594 100.472656 216.742188 100.472656 215.757812 C 100.589844 213.855469 99.480469 211.492188 97.261719 211.621094 Z M 97.261719 211.621094 "/>
<path style=" stroke:none;fill-rule:nonzero;fill:rgb(100%,100%,100%);fill-opacity:1;" d="M 99.679688 222.28125 C 99.332031 230.515625 96.734375 238.476562 94.175781 246.300781 L 91.390625 254.769531 C 91.089844 256.0625 90.445312 257.25 89.53125 258.207031 C 88.636719 259.042969 87.285156 259.152344 86.265625 258.472656 C 86.164062 258.40625 86.074219 258.320312 86.003906 258.21875 C 86.953125 248.523438 87.925781 238.8125 88.917969 229.085938 C 89.054688 226.492188 89.5625 223.925781 90.429688 221.476562 C 91.378906 219.40625 92.945312 217.679688 94.917969 216.542969 C 96.480469 215.769531 98.085938 215.949219 99.140625 218.203125 C 99.648438 219.5 99.832031 220.898438 99.679688 222.28125 Z M 99.679688 222.28125 "/>
<path style=" stroke:none;fill-rule:nonzero;fill:url(#linear9);" d="M 96.765625 222.28125 C 96.425781 230.515625 93.828125 238.476562 91.273438 246.300781 C 90.34375 249.121094 89.410156 251.945312 88.472656 254.769531 C 88.179688 256.0625 87.542969 257.25 86.625 258.207031 C 86.515625 258.308594 86.394531 258.398438 86.265625 258.472656 C 86.164062 258.40625 86.074219 258.320312 86.003906 258.21875 C 86.953125 248.523438 87.925781 238.8125 88.917969 229.085938 C 89.054688 226.492188 89.5625 223.925781 90.429688 221.476562 C 91.378906 219.40625 92.945312 217.679688 94.917969 216.542969 C 95.503906 216.964844 95.960938 217.539062 96.238281 218.203125 C 96.742188 219.5 96.921875 220.898438 96.765625 222.28125 Z M 96.765625 222.28125 "/>
<path style=" stroke:none;fill-rule:nonzero;fill:url(#linear10);" d="M 123.949219 218.4375 C 123.613281 226.671875 121.023438 234.632812 118.457031 242.457031 C 117.53125 245.28125 116.597656 248.101562 115.660156 250.925781 C 115.367188 252.21875 114.726562 253.40625 113.8125 254.367188 C 113.699219 254.464844 113.582031 254.554688 113.453125 254.628906 C 113.351562 254.558594 113.261719 254.472656 113.1875 254.375 L 116.070312 225.203125 C 116.207031 222.605469 116.71875 220.039062 117.59375 217.589844 C 118.535156 215.515625 120.105469 213.789062 122.082031 212.65625 C 122.664062 213.082031 123.121094 213.65625 123.402344 214.320312 C 123.914062 215.628906 124.101562 217.039062 123.949219 218.4375 Z M 123.949219 218.4375 "/>
<path style=" stroke:none;fill-rule:nonzero;fill:rgb(100%,100%,100%);fill-opacity:1;" d="M 90.175781 258.070312 C 89.699219 257.582031 89.089844 257.242188 88.421875 257.097656 C 87.691406 257.074219 86.972656 257.304688 86.394531 257.753906 C 85.605469 258.144531 85 258.824219 84.695312 259.648438 C 84.609375 260.15625 84.628906 260.675781 84.757812 261.171875 L 85.402344 264.855469 C 85.421875 265.230469 85.574219 265.589844 85.835938 265.863281 C 86.050781 266.015625 86.300781 266.109375 86.5625 266.136719 L 89.972656 266.792969 C 91.542969 267.167969 93.15625 267.339844 94.769531 267.3125 C 95.320312 267.316406 95.859375 267.164062 96.320312 266.867188 C 96.742188 266.5 97.03125 266 97.136719 265.449219 C 97.304688 264.984375 97.304688 264.476562 97.136719 264.007812 C 96.660156 262.949219 95.847656 263.722656 95.179688 263.375 C 94.683594 263.109375 94.324219 261.988281 93.976562 261.523438 C 92.839844 260.234375 91.566406 259.078125 90.175781 258.070312 Z M 90.175781 258.070312 "/>
<path style=" stroke:none;fill-rule:nonzero;fill:rgb(100%,100%,100%);fill-opacity:1;" d="M 117.433594 254.207031 C 116.957031 253.714844 116.34375 253.371094 115.671875 253.222656 C 114.941406 253.203125 114.230469 253.433594 113.652344 253.878906 C 112.863281 254.265625 112.253906 254.945312 111.953125 255.773438 C 111.847656 256.277344 111.847656 256.796875 111.953125 257.296875 L 112.597656 260.992188 C 112.621094 261.363281 112.773438 261.71875 113.03125 261.988281 C 113.246094 262.136719 113.496094 262.230469 113.757812 262.261719 L 117.171875 262.917969 C 118.742188 263.292969 120.351562 263.464844 121.964844 263.4375 C 122.515625 263.445312 123.054688 263.289062 123.519531 262.992188 C 123.945312 262.628906 124.230469 262.128906 124.332031 261.574219 C 124.480469 261.105469 124.464844 260.59375 124.277344 260.136719 C 123.804688 259.078125 123 259.847656 122.324219 259.5 C 121.828125 259.234375 121.46875 258.113281 121.121094 257.648438 C 120.023438 256.367188 118.785156 255.214844 117.433594 254.207031 Z M 117.433594 254.207031 "/>
<path style=" stroke:none;fill-rule:nonzero;fill:rgb(100%,100%,100%);fill-opacity:1;" d="M 127.773438 207.332031 C 127.703125 209.042969 127.277344 210.71875 126.527344 212.253906 C 125.722656 213.820312 124.054688 214.746094 122.304688 214.59375 C 122.085938 214.554688 121.875 214.496094 121.667969 214.414062 C 119.917969 213.75 118.933594 211.664062 118.28125 209.820312 C 115.480469 201.996094 113.589844 193.878906 112.640625 185.621094 C 112.226562 182.097656 111.140625 175.820312 113.472656 172.6875 C 113.96875 172.039062 114.628906 171.535156 115.386719 171.234375 C 118.039062 170.242188 120.996094 170.527344 123.414062 172.007812 C 126.695312 174.230469 127.636719 178.59375 128.058594 182.542969 C 128.820312 190.792969 128.722656 199.101562 127.773438 207.332031 Z M 127.773438 207.332031 "/>
<path style=" stroke:none;fill-rule:nonzero;fill:url(#linear11);" d="M 124.320312 207.914062 C 124.253906 209.628906 123.828125 211.308594 123.074219 212.847656 C 122.71875 213.457031 122.246094 213.992188 121.679688 214.414062 C 119.925781 213.75 118.945312 211.664062 118.289062 209.820312 C 115.492188 201.996094 113.597656 193.878906 112.648438 185.621094 C 112.238281 182.097656 111.148438 175.820312 113.484375 172.6875 C 113.980469 172.039062 114.640625 171.535156 115.394531 171.234375 C 117.015625 171.265625 118.59375 171.734375 119.96875 172.589844 C 123.253906 174.824219 124.195312 179.1875 124.625 183.175781 C 125.371094 191.410156 125.269531 199.703125 124.320312 207.914062 Z M 124.320312 207.914062 "/>
<path style=" stroke:none;fill-rule:nonzero;fill:rgb(100%,100%,100%);fill-opacity:1;" d="M 124.457031 207.746094 C 123.703125 207.832031 122.980469 208.09375 122.34375 208.507812 C 121.714844 208.859375 121.171875 209.351562 120.761719 209.949219 C 120.011719 211.308594 120.277344 213.007812 121.40625 214.078125 C 122.5625 215.09375 124.175781 215.414062 125.628906 214.914062 C 125.957031 214.820312 126.265625 214.667969 126.539062 214.46875 C 127.265625 213.808594 127.679688 212.867188 127.679688 211.886719 C 127.785156 209.980469 126.675781 207.621094 124.457031 207.746094 Z M 124.457031 207.746094 "/>
<path style=" stroke:none;fill-rule:nonzero;fill:rgb(100%,100%,100%);fill-opacity:1;" d="M 117.601562 217.613281 C 116.726562 220.058594 116.214844 222.617188 116.082031 225.210938 L 113.210938 254.398438 C 114.195312 255.347656 115.753906 255.347656 116.738281 254.398438 C 117.652344 253.441406 118.292969 252.257812 118.597656 250.96875 L 121.382812 242.5 C 123.949219 234.664062 126.550781 226.707031 126.875 218.46875 C 127.027344 217.089844 126.835938 215.695312 126.328125 214.40625 C 123.929688 209.292969 118.828125 214.667969 117.601562 217.613281 Z M 117.601562 217.613281 "/>
<path style=" stroke:none;fill-rule:nonzero;fill:url(#linear12);" d="M 123.949219 218.4375 C 123.613281 226.671875 121.023438 234.632812 118.457031 242.457031 C 117.53125 245.28125 116.597656 248.101562 115.660156 250.925781 C 115.367188 252.21875 114.726562 253.40625 113.8125 254.367188 C 113.699219 254.464844 113.582031 254.554688 113.453125 254.628906 C 113.351562 254.558594 113.261719 254.472656 113.1875 254.375 L 116.070312 225.203125 C 116.207031 222.605469 116.71875 220.039062 117.59375 217.589844 C 118.535156 215.515625 120.105469 213.789062 122.082031 212.65625 C 122.664062 213.082031 123.121094 213.65625 123.402344 214.320312 C 123.914062 215.628906 124.101562 217.039062 123.949219 218.4375 Z M 123.949219 218.4375 "/>
<path style=" stroke:none;fill-rule:nonzero;fill:url(#linear13);" d="M 91.546875 264.582031 C 91.421875 264.566406 91.300781 264.601562 91.199219 264.675781 C 91.082031 264.78125 91.09375 264.972656 91.007812 265.109375 C 90.925781 265.25 90.578125 265.3125 90.324219 265.28125 C 89.597656 265.21875 88.882812 265.042969 88.210938 264.761719 C 87.546875 264.472656 87.035156 263.910156 86.816406 263.214844 C 86.511719 262.039062 87.324219 260.613281 86.574219 259.660156 C 86.273438 259.324219 85.832031 259.15625 85.386719 259.207031 C 84.945312 259.257812 84.550781 259.519531 84.335938 259.914062 C 84.171875 260.351562 84.132812 260.828125 84.21875 261.289062 C 84.332031 262.398438 84.46875 263.507812 84.628906 264.625 C 84.621094 264.875 84.722656 265.117188 84.910156 265.289062 C 85.09375 265.457031 85.339844 265.539062 85.589844 265.511719 L 91.832031 266.667969 C 92.320312 266.785156 92.824219 266.8125 93.320312 266.75 C 94.09375 266.613281 94.992188 265.617188 94.199219 264.910156 C 93.703125 264.445312 92.191406 264.570312 91.546875 264.582031 Z M 91.546875 264.582031 "/>
<path style=" stroke:none;fill-rule:nonzero;fill:url(#linear14);" d="M 119.175781 260.78125 C 119.054688 260.765625 118.929688 260.800781 118.828125 260.875 C 118.710938 260.992188 118.722656 261.183594 118.636719 261.308594 C 118.554688 261.4375 118.195312 261.511719 117.953125 261.480469 C 117.222656 261.425781 116.511719 261.25 115.839844 260.960938 C 115.171875 260.675781 114.664062 260.109375 114.445312 259.414062 C 114.140625 258.242188 114.953125 256.8125 114.203125 255.859375 C 113.902344 255.53125 113.460938 255.363281 113.019531 255.414062 C 112.574219 255.464844 112.183594 255.722656 111.964844 256.113281 C 111.804688 256.554688 111.761719 257.027344 111.847656 257.488281 C 111.964844 258.601562 112.089844 259.710938 112.25 260.824219 C 112.261719 261.003906 112.316406 261.175781 112.40625 261.332031 C 112.621094 261.558594 112.910156 261.699219 113.21875 261.722656 L 119.460938 262.867188 C 119.945312 262.988281 120.445312 263.019531 120.941406 262.960938 C 121.722656 262.824219 122.621094 261.820312 121.816406 261.121094 C 121.332031 260.644531 119.820312 260.769531 119.175781 260.78125 Z M 119.175781 260.78125 "/>
<path style=" stroke:none;fill-rule:nonzero;fill:rgb(100%,100%,100%);fill-opacity:1;" d="M 99.871094 177.535156 C 100.472656 178.074219 101.160156 178.792969 100.925781 179.578125 C 100.695312 180.359375 99.753906 180.574219 98.960938 180.636719 C 96.355469 180.5 93.832031 179.679688 91.644531 178.253906 C 88.054688 176.21875 84.742188 173.726562 81.789062 170.84375 C 79.558594 168.652344 77.214844 165.359375 79.433594 162.300781 C 81.460938 159.515625 84.367188 161.445312 86.445312 163.117188 C 91.621094 167.117188 94.960938 173.046875 99.871094 177.535156 Z M 99.871094 177.535156 "/>
<path style=" stroke:none;fill-rule:nonzero;fill:rgb(100%,100%,100%);fill-opacity:1;" d="M 100.917969 179.515625 C 100.695312 180.253906 99.796875 180.507812 99.027344 180.574219 C 96.414062 180.433594 93.886719 179.605469 91.695312 178.179688 C 88.105469 176.144531 84.792969 173.65625 81.839844 170.769531 C 79.625 168.601562 77.300781 165.339844 79.464844 162.300781 L 79.464844 162.25 C 81.492188 159.464844 84.386719 161.390625 86.476562 163.0625 C 91.652344 167.203125 94.992188 173.140625 99.882812 177.566406 C 100.472656 178.019531 101.160156 178.742188 100.917969 179.515625 Z M 100.917969 179.515625 "/>
<path style=" stroke:none;fill-rule:nonzero;fill:url(#linear15);" d="M 99.027344 180.53125 C 96.414062 180.390625 93.886719 179.566406 91.695312 178.136719 C 88.105469 176.101562 84.792969 173.613281 81.839844 170.726562 C 79.625 168.558594 77.300781 165.296875 79.464844 162.257812 C 81.164062 161.886719 83.078125 163.222656 84.578125 164.375 C 89.753906 168.527344 93.027344 174.453125 97.992188 178.890625 C 98.519531 179.292969 98.886719 179.875 99.027344 180.53125 Z M 99.027344 180.53125 "/>
<path style=" stroke:none;fill-rule:nonzero;fill:rgb(100%,100%,100%);fill-opacity:1;" d="M 96.796875 169.320312 C 96.613281 170.511719 97.175781 171.695312 98.210938 172.304688 C 101.761719 175.058594 106.460938 176.539062 108.984375 180.210938 C 109.429688 181.054688 110.042969 181.800781 110.78125 182.402344 C 111.648438 182.839844 112.621094 183.023438 113.589844 182.933594 C 114.621094 183.058594 115.664062 182.761719 116.472656 182.105469 C 116.773438 181.746094 116.996094 181.328125 117.128906 180.878906 C 119.09375 175.664062 120.191406 170.160156 120.371094 164.589844 C 120.371094 163.382812 120.265625 161.941406 119.207031 161.414062 C 118.617188 161.167969 117.96875 161.101562 117.339844 161.210938 L 103.132812 162.375 C 101.464844 162.511719 99.109375 162.175781 97.992188 163.433594 C 96.871094 164.695312 96.796875 167.890625 96.796875 169.320312 Z M 96.796875 169.320312 "/>
<path style=" stroke:none;fill-rule:nonzero;fill:url(#linear16);" d="M 106.050781 163.773438 C 105.480469 164.535156 104.875 165.277344 104.253906 165.996094 C 107.273438 166.757812 109.28125 169.617188 110.589844 172.453125 C 111.921875 175.164062 112.644531 178.132812 112.703125 181.15625 C 112.714844 181.34375 112.683594 181.53125 112.609375 181.707031 C 112.382812 182.054688 111.945312 182.207031 111.550781 182.066406 C 111.171875 181.914062 110.832031 181.679688 110.558594 181.378906 C 107.359375 178.378906 103.902344 175.667969 100.230469 173.277344 C 99.632812 172.929688 99.078125 172.511719 98.582031 172.03125 C 98.03125 171.425781 97.632812 170.699219 97.421875 169.914062 C 96.914062 168.175781 97.144531 165.03125 98.917969 163.984375 C 100.695312 162.9375 104.167969 163.773438 106.050781 163.773438 Z M 106.050781 163.773438 "/>
<path style=" stroke:none;fill-rule:nonzero;fill:rgb(100%,100%,100%);fill-opacity:1;" d="M 104.074219 177.34375 C 106.039062 177.058594 108.296875 176.996094 109.765625 178.308594 C 109.84375 178.394531 109.878906 178.511719 109.867188 178.628906 C 109.855469 178.742188 109.796875 178.851562 109.703125 178.921875 C 109.507812 179.054688 109.273438 179.109375 109.039062 179.078125 C 108.320312 179.078125 107.621094 178.824219 106.925781 178.75 C 106.210938 178.617188 105.472656 178.835938 104.941406 179.332031 C 106.960938 181.179688 109.597656 182.203125 112.332031 182.203125 C 112.691406 182.167969 113.050781 182.207031 113.390625 182.320312 C 113.726562 182.433594 113.945312 182.765625 113.917969 183.125 C 111.699219 183.601562 109.417969 183.734375 107.15625 183.515625 L 112.808594 185.453125 C 110.746094 186.089844 108.546875 186.117188 106.472656 185.527344 C 107.898438 186.234375 109.378906 186.832031 110.898438 187.316406 C 108.847656 188.375 106.335938 187.546875 104.179688 186.660156 C 105.21875 187.179688 106.167969 187.863281 106.988281 188.691406 C 102.699219 188.097656 99.132812 184.710938 96.871094 181.1875 C 95.816406 179.621094 95.507812 177.9375 97.707031 177.671875 C 99.902344 177.40625 101.917969 177.671875 104.074219 177.34375 Z M 104.074219 177.34375 "/>
<path style=" stroke:none;fill-rule:nonzero;fill:rgb(3.529412%,25.882353%,30.980392%);fill-opacity:1;" d="M 110.757812 100.714844 C 110.175781 100.589844 109.570312 100.757812 109.132812 101.15625 C 108.9375 101.53125 108.882812 101.964844 108.984375 102.375 C 108.984375 102.851562 109.082031 103.316406 109.152344 103.78125 C 109.167969 103.875 109.199219 103.964844 109.25 104.046875 C 109.34375 104.144531 109.472656 104.199219 109.609375 104.207031 C 112.175781 104.714844 114.800781 104.882812 117.414062 104.703125 C 117.609375 104.710938 117.804688 104.660156 117.972656 104.554688 C 118.148438 104.363281 118.246094 104.109375 118.246094 103.847656 C 118.316406 102.898438 118.316406 101.945312 118.246094 101 C 118.246094 100.332031 117.65625 100.605469 117.191406 100.660156 C 116.484375 100.746094 115.753906 100.753906 115.078125 100.777344 C 113.632812 100.789062 112.152344 100.777344 110.757812 100.714844 Z M 110.757812 100.714844 "/>
<use xlink:href="#surface8" mask="url(#mask1)"/>
<path style=" stroke:none;fill-rule:nonzero;fill:rgb(3.529412%,25.882353%,30.980392%);fill-opacity:1;" d="M 354.027344 257.394531 C 354.027344 246.765625 317.582031 238.148438 272.628906 238.148438 C 227.671875 238.148438 191.230469 246.765625 191.230469 257.394531 C 191.230469 268.023438 227.671875 276.636719 272.628906 276.636719 C 317.582031 276.636719 354.027344 268.023438 354.027344 257.394531 Z M 354.027344 257.394531 "/>
<path style=" stroke:none;fill-rule:nonzero;fill:url(#linear17);" d="M 379.914062 210.253906 L 357.394531 256.832031 C 355.210938 261.382812 351.347656 264.898438 346.621094 266.644531 C 324.503906 274.765625 257.238281 295.078125 198.695312 267.480469 C 194.011719 265.253906 190.414062 261.234375 188.714844 256.324219 L 137.660156 110.316406 C 148.8125 103.136719 160.894531 97.15625 168.996094 86.761719 C 178.566406 74.480469 180.890625 58.117188 188.007812 44.238281 C 195.125 30.359375 207.628906 19.320312 222.078125 13.191406 C 224.992188 14.714844 227.867188 16.3125 230.707031 17.953125 C 241.003906 23.933594 251.027344 33.144531 262.519531 36.742188 C 276.3125 40.976562 291.773438 39.472656 305.886719 43.804688 C 320.988281 48.429688 335.457031 56.984375 344.171875 70.164062 C 364.460938 100.734375 348.214844 143.203125 360.765625 177.691406 C 365.074219 189.476562 372.601562 199.847656 379.914062 210.253906 Z M 379.914062 210.253906 "/>
<use xlink:href="#surface11" mask="url(#mask2)"/>
<use xlink:href="#surface14" mask="url(#mask3)"/>
<use xlink:href="#surface17" mask="url(#mask4)"/>
<use xlink:href="#surface20" mask="url(#mask5)"/>
<use xlink:href="#surface23" mask="url(#mask6)"/>
<use xlink:href="#surface26" mask="url(#mask7)"/>
<use xlink:href="#surface29" mask="url(#mask8)"/>
<path style=" stroke:none;fill-rule:nonzero;fill:rgb(3.529412%,25.882353%,30.980392%);fill-opacity:1;" d="M 266.480469 134.386719 L 259.828125 124.773438 L 244.753906 130.238281 L 244.238281 128.796875 L 260.40625 122.945312 L 267.726562 133.527344 Z M 266.480469 134.386719 "/>
<use xlink:href="#surface32" mask="url(#mask9)"/>
<use xlink:href="#surface35" mask="url(#mask10)"/>
<use xlink:href="#surface38" mask="url(#mask11)"/>
<use xlink:href="#surface41" mask="url(#mask12)"/>
<use xlink:href="#surface44" mask="url(#mask13)"/>
<use xlink:href="#surface47" mask="url(#mask14)"/>
<use xlink:href="#surface50" mask="url(#mask15)"/>
<use xlink:href="#surface53" mask="url(#mask16)"/>
<use xlink:href="#surface56" mask="url(#mask17)"/>
<use xlink:href="#surface59" mask="url(#mask18)"/>
</g>
</svg>
